{"asset":{"version":"2.0","generator":"Blockbench 4.12.3 glTF exporter"},"scenes":[{"nodes":[1],"name":"blockbench_export"}],"scene":0,"nodes":[{"translation":[0,0.4375,0],"name":"circle","mesh":0},{"children":[0]}],"bufferViews":[{"buffer":0,"byteOffset":0,"byteLength":960,"target":34962,"byteStride":12},{"buffer":0,"byteOffset":960,"byteLength":960,"target":34962,"byteStride":12},{"buffer":0,"byteOffset":1920,"byteLength":640,"target":34962,"byteStride":8},{"buffer":0,"byteOffset":2560,"byteLength":228,"target":34963}],"buffers":[{"byteLength":2788,"uri":"data:application/octet-stream;base64,"}],"accessors":[{"bufferView":0,"componentType":5126,"count":80,"max":[0.29993563890457153,-0.029599374160170555,0.2982618808746338],"min":[-0.26868563890457153,-0.44769999384880066,-0.29802873730659485],"type":"VEC3"},{"bufferView":1,"componentType":5126,"count":80,"max":[1,0.9885690212249756,1],"min":[-0.9905210137367249,-0.3007057011127472,-1],"type":"VEC3"},{"bufferView":2,"componentType":5126,"count":80,"max":[0.8125,0.7875499725341797],"min":[0,0],"type":"VEC2"},{"bufferView":3,"componentType":5123,"count":114,"max":[79],"min":[0],"type":"SCALAR"}],"materials":[{"pbrMetallicRoughness":{"metallicFactor":0,"roughnessFactor":1,"baseColorTexture":{"index":0}},"alphaMode":"MASK","alphaCutoff":0.05,"doubleSided":true}],"textures":[{"sampler":0,"source":0,"name":"bananaPeel.png"}],"samplers":[{"magFilter":9728,"minFilter":9728,"wrapS":33071,"wrapT":33071}],"images":[{"mimeType":"image/png","uri":"data:image/png;base64,"}],"meshes":[{"primitives":[{"mode":4,"attributes":{"POSITION":0,"NORMAL":1,"TEXCOORD_0":2},"indices":3,"material":0}]}]}