{"asset":{"version":"2.0","generator":"Blockbench 4.12.3 glTF exporter"},"scenes":[{"nodes":[1],"name":"blockbench_export"}],"scene":0,"nodes":[{"translation":[0,0.03125,0],"name":"circle","mesh":0},{"children":[0]}],"bufferViews":[{"buffer":0,"byteOffset":0,"byteLength":2688,"target":34962,"byteStride":12},{"buffer":0,"byteOffset":2688,"byteLength":2688,"target":34962,"byteStride":12},{"buffer":0,"byteOffset":5376,"byteLength":1792,"target":34962,"byteStride":8},{"buffer":0,"byteOffset":7168,"byteLength":624,"target":34963}],"buffers":[{"byteLength":7792,"uri":"data:application/octet-stream;base64,"}],"accessors":[{"bufferView":0,"componentType":5126,"count":224,"max":[0.1815437525510788,0.375,0.3125374913215637],"min":[-0.1815437525510788,-0.03125,-0.15625],"type":"VEC3"},{"bufferView":1,"componentType":5126,"count":224,"max":[1,1,1],"min":[-1,-1,-1],"type":"VEC3"},{"bufferView":2,"componentType":5126,"count":224,"max":[0.71875,0.765625],"min":[0.0014875000342726707,0],"type":"VEC2"},{"bufferView":3,"componentType":5123,"count":312,"max":[223],"min":[0],"type":"SCALAR"}],"materials":[{"pbrMetallicRoughness":{"metallicFactor":0,"roughnessFactor":1,"baseColorTexture":{"index":0}},"alphaMode":"MASK","alphaCutoff":0.05,"doubleSided":true}],"textures":[{"sampler":0,"source":0,"name":"coffeeCup.png"}],"samplers":[{"magFilter":9728,"minFilter":9728,"wrapS":33071,"wrapT":33071}],"images":[{"mimeType":"image/png","uri":"data:image/png;base64,"}],"meshes":[{"primitives":[{"mode":4,"attributes":{"POSITION":0,"NORMAL":1,"TEXCOORD_0":2},"indices":3,"material":0}]}]}