{
	"asset":{
		"generator":"Khronos glTF Blender I/O v4.4.56",
		"version":"2.0"
	},
	"scene":0,
	"scenes":[
		{
			"name":"Scene",
			"nodes":[
				15
			]
		}
	],
	"nodes":[
		{
			"name":"Hand",
			"rotation":[
				-1.1519496467826684e-10,
				1.7763568394002505e-15,
				2.849675591425603e-16,
				1
			],
			"translation":[
				1.3170878832013955e-09,
				-0.125,
				4.2093883934057885e-10
			]
		},
		{
			"children":[
				0
			],
			"name":"LowerArm",
			"rotation":[
				2.3283064365386963e-09,
				-4.1165527875364205e-08,
				-9.584596020700115e-17,
				1
			],
			"translation":[
				-0.0025230904575437307,
				-0.3428037762641907,
				0.0015886415494605899
			]
		},
		{
			"children":[
				1
			],
			"name":"ArmL",
			"rotation":[
				-1.5777218104420236e-30,
				3.828225203506008e-08,
				2.646978591258413e-23,
				1
			],
			"scale":[
				1,
				0.9999999403953552,
				1
			],
			"translation":[
				0.20564806461334229,
				0.22405368089675903,
				-0.0328386053442955
			]
		},
		{
			"name":"Hand2",
			"rotation":[
				1.1518697107248954e-10,
				1.327425396001897e-23,
				-4.731913560935891e-16,
				1
			],
			"translation":[
				3.009727356229064e-09,
				-0.12500005960464478,
				-8.58602078324111e-11
			]
		},
		{
			"children":[
				3
			],
			"name":"LowerArm2",
			"rotation":[
				-2.3283055483602766e-09,
				-1.4316599106223293e-07,
				3.333341462824057e-16,
				1
			],
			"translation":[
				-0.002523101167753339,
				-0.3428038954734802,
				0.0015886438777670264
			]
		},
		{
			"children":[
				4
			],
			"name":"ArmR",
			"rotation":[
				3.993608332681372e-30,
				-1,
				1.5777218104420236e-30,
				7.549790126404332e-08
			],
			"translation":[
				-0.20685188472270966,
				0.22405368089675903,
				-0.032838623970746994
			]
		},
		{
			"children":[
				2,
				5
			],
			"name":"UpperBody",
			"rotation":[
				6.77927340424307e-31,
				-2.4653346031300316e-10,
				9.367723249499515e-31,
				1
			],
			"translation":[
				0.0312499962747097,
				0.8687497973442078,
				4.4306347479761143e-10
			]
		},
		{
			"name":"Foot",
			"rotation":[
				1.3787921915309198e-09,
				-4.2582293247050984e-10,
				8.159529261393759e-17,
				1
			],
			"translation":[
				-2.8365426674170635e-10,
				-0.16874992847442627,
				0.006250000558793545
			]
		},
		{
			"children":[
				7
			],
			"name":"LowerLeg",
			"rotation":[
				-1.8799290589780377e-23,
				-1.7763568394002505e-15,
				2.0436611788244935e-22,
				1
			],
			"translation":[
				1.942890293094024e-16,
				-0.18749994039535522,
				2.6645352591003757e-15
			]
		},
		{
			"children":[
				8
			],
			"name":"LegL",
			"rotation":[
				3.108624892466912e-15,
				-1.5108820861087224e-09,
				1.4918945328148827e-23,
				1
			],
			"translation":[
				0.1249999850988388,
				0.5624998211860657,
				1.7722432410494093e-09
			]
		},
		{
			"name":"Foot2",
			"rotation":[
				1.3787921915309198e-09,
				-4.029576672337498e-10,
				-5.556208880658369e-19,
				1
			],
			"translation":[
				-2.99458902119909e-10,
				-0.16874992847442627,
				0.006250000558793545
			]
		},
		{
			"children":[
				10
			],
			"name":"LowerLeg2",
			"rotation":[
				-1.5456376641832695e-15,
				1.417817811687552e-23,
				-1.6087153349928157e-22,
				1
			],
			"translation":[
				-1.0408340855860843e-16,
				-0.18749994039535522,
				8.881784197001252e-16
			]
		},
		{
			"children":[
				11
			],
			"name":"LegR",
			"rotation":[
				-1.6283273498348392e-15,
				-2.4653346031300316e-10,
				-1.7111558970661663e-23,
				1
			],
			"translation":[
				-0.0624999925494194,
				0.5624998211860657,
				-8.861198441678653e-10
			]
		},
		{
			"children":[
				6,
				9,
				12
			],
			"name":"Player",
			"rotation":[
				-8.557136332854043e-09,
				2.4203236748121526e-08,
				-4.1422078995684666e-16,
				1
			]
		},
		{
			"mesh":0,
			"name":"Mesh_0.002",
			"skin":0
		},
		{
			"children":[
				14,
				13
			],
			"name":"Player"
		}
	],
	"animations":[
		{
			"channels":[
				{
					"sampler":0,
					"target":{
						"node":13,
						"path":"translation"
					}
				},
				{
					"sampler":1,
					"target":{
						"node":13,
						"path":"rotation"
					}
				},
				{
					"sampler":2,
					"target":{
						"node":13,
						"path":"scale"
					}
				},
				{
					"sampler":3,
					"target":{
						"node":6,
						"path":"translation"
					}
				},
				{
					"sampler":4,
					"target":{
						"node":6,
						"path":"rotation"
					}
				},
				{
					"sampler":5,
					"target":{
						"node":6,
						"path":"scale"
					}
				},
				{
					"sampler":6,
					"target":{
						"node":2,
						"path":"translation"
					}
				},
				{
					"sampler":7,
					"target":{
						"node":2,
						"path":"rotation"
					}
				},
				{
					"sampler":8,
					"target":{
						"node":2,
						"path":"scale"
					}
				},
				{
					"sampler":9,
					"target":{
						"node":1,
						"path":"translation"
					}
				},
				{
					"sampler":10,
					"target":{
						"node":1,
						"path":"rotation"
					}
				},
				{
					"sampler":11,
					"target":{
						"node":1,
						"path":"scale"
					}
				},
				{
					"sampler":12,
					"target":{
						"node":0,
						"path":"translation"
					}
				},
				{
					"sampler":13,
					"target":{
						"node":0,
						"path":"rotation"
					}
				},
				{
					"sampler":14,
					"target":{
						"node":0,
						"path":"scale"
					}
				},
				{
					"sampler":15,
					"target":{
						"node":5,
						"path":"translation"
					}
				},
				{
					"sampler":16,
					"target":{
						"node":5,
						"path":"rotation"
					}
				},
				{
					"sampler":17,
					"target":{
						"node":5,
						"path":"scale"
					}
				},
				{
					"sampler":18,
					"target":{
						"node":4,
						"path":"translation"
					}
				},
				{
					"sampler":19,
					"target":{
						"node":4,
						"path":"rotation"
					}
				},
				{
					"sampler":20,
					"target":{
						"node":4,
						"path":"scale"
					}
				},
				{
					"sampler":21,
					"target":{
						"node":3,
						"path":"translation"
					}
				},
				{
					"sampler":22,
					"target":{
						"node":3,
						"path":"rotation"
					}
				},
				{
					"sampler":23,
					"target":{
						"node":3,
						"path":"scale"
					}
				},
				{
					"sampler":24,
					"target":{
						"node":9,
						"path":"translation"
					}
				},
				{
					"sampler":25,
					"target":{
						"node":9,
						"path":"rotation"
					}
				},
				{
					"sampler":26,
					"target":{
						"node":9,
						"path":"scale"
					}
				},
				{
					"sampler":27,
					"target":{
						"node":8,
						"path":"translation"
					}
				},
				{
					"sampler":28,
					"target":{
						"node":8,
						"path":"rotation"
					}
				},
				{
					"sampler":29,
					"target":{
						"node":8,
						"path":"scale"
					}
				},
				{
					"sampler":30,
					"target":{
						"node":7,
						"path":"translation"
					}
				},
				{
					"sampler":31,
					"target":{
						"node":7,
						"path":"rotation"
					}
				},
				{
					"sampler":32,
					"target":{
						"node":7,
						"path":"scale"
					}
				},
				{
					"sampler":33,
					"target":{
						"node":12,
						"path":"translation"
					}
				},
				{
					"sampler":34,
					"target":{
						"node":12,
						"path":"rotation"
					}
				},
				{
					"sampler":35,
					"target":{
						"node":12,
						"path":"scale"
					}
				},
				{
					"sampler":36,
					"target":{
						"node":11,
						"path":"translation"
					}
				},
				{
					"sampler":37,
					"target":{
						"node":11,
						"path":"rotation"
					}
				},
				{
					"sampler":38,
					"target":{
						"node":11,
						"path":"scale"
					}
				},
				{
					"sampler":39,
					"target":{
						"node":10,
						"path":"translation"
					}
				},
				{
					"sampler":40,
					"target":{
						"node":10,
						"path":"rotation"
					}
				},
				{
					"sampler":41,
					"target":{
						"node":10,
						"path":"scale"
					}
				}
			],
			"name":"PlayerAction",
			"samplers":[
				{
					"input":7,
					"interpolation":"STEP",
					"output":8
				},
				{
					"input":7,
					"interpolation":"STEP",
					"output":9
				},
				{
					"input":7,
					"interpolation":"STEP",
					"output":10
				},
				{
					"input":7,
					"interpolation":"STEP",
					"output":11
				},
				{
					"input":7,
					"interpolation":"STEP",
					"output":12
				},
				{
					"input":7,
					"interpolation":"STEP",
					"output":13
				},
				{
					"input":7,
					"interpolation":"STEP",
					"output":14
				},
				{
					"input":7,
					"interpolation":"STEP",
					"output":15
				},
				{
					"input":7,
					"interpolation":"STEP",
					"output":16
				},
				{
					"input":7,
					"interpolation":"STEP",
					"output":17
				},
				{
					"input":7,
					"interpolation":"STEP",
					"output":18
				},
				{
					"input":7,
					"interpolation":"STEP",
					"output":19
				},
				{
					"input":7,
					"interpolation":"STEP",
					"output":20
				},
				{
					"input":7,
					"interpolation":"STEP",
					"output":21
				},
				{
					"input":7,
					"interpolation":"STEP",
					"output":22
				},
				{
					"input":7,
					"interpolation":"STEP",
					"output":23
				},
				{
					"input":7,
					"interpolation":"STEP",
					"output":24
				},
				{
					"input":7,
					"interpolation":"STEP",
					"output":25
				},
				{
					"input":7,
					"interpolation":"STEP",
					"output":26
				},
				{
					"input":7,
					"interpolation":"STEP",
					"output":27
				},
				{
					"input":7,
					"interpolation":"STEP",
					"output":28
				},
				{
					"input":7,
					"interpolation":"STEP",
					"output":29
				},
				{
					"input":7,
					"interpolation":"STEP",
					"output":30
				},
				{
					"input":7,
					"interpolation":"STEP",
					"output":31
				},
				{
					"input":7,
					"interpolation":"STEP",
					"output":32
				},
				{
					"input":33,
					"interpolation":"LINEAR",
					"output":34
				},
				{
					"input":7,
					"interpolation":"STEP",
					"output":35
				},
				{
					"input":7,
					"interpolation":"STEP",
					"output":36
				},
				{
					"input":33,
					"interpolation":"LINEAR",
					"output":37
				},
				{
					"input":7,
					"interpolation":"STEP",
					"output":38
				},
				{
					"input":7,
					"interpolation":"STEP",
					"output":39
				},
				{
					"input":7,
					"interpolation":"STEP",
					"output":40
				},
				{
					"input":7,
					"interpolation":"STEP",
					"output":41
				},
				{
					"input":7,
					"interpolation":"STEP",
					"output":42
				},
				{
					"input":33,
					"interpolation":"LINEAR",
					"output":43
				},
				{
					"input":7,
					"interpolation":"STEP",
					"output":44
				},
				{
					"input":7,
					"interpolation":"STEP",
					"output":45
				},
				{
					"input":33,
					"interpolation":"LINEAR",
					"output":46
				},
				{
					"input":7,
					"interpolation":"STEP",
					"output":47
				},
				{
					"input":7,
					"interpolation":"STEP",
					"output":48
				},
				{
					"input":33,
					"interpolation":"LINEAR",
					"output":49
				},
				{
					"input":7,
					"interpolation":"STEP",
					"output":50
				}
			]
		}
	],
	"materials":[
		{
			"alphaCutoff":0.05000000074505806,
			"alphaMode":"MASK",
			"doubleSided":true,
			"name":"Material_0.002",
			"pbrMetallicRoughness":{
				"baseColorTexture":{
					"index":0
				},
				"metallicFactor":0
			}
		}
	],
	"meshes":[
		{
			"name":"Mesh_0.002",
			"primitives":[
				{
					"attributes":{
						"POSITION":0,
						"NORMAL":1,
						"TEXCOORD_0":2,
						"JOINTS_0":3,
						"WEIGHTS_0":4
					},
					"indices":5,
					"material":0
				}
			]
		}
	],
	"textures":[
		{
			"sampler":0,
			"source":0
		}
	],
	"images":[
		{
			"mimeType":"image/png",
			"name":"Image_0",
			"uri":"Image_0.png"
		}
	],
	"skins":[
		{
			"inverseBindMatrices":6,
			"joints":[
				13,
				6,
				2,
				1,
				0,
				5,
				4,
				3,
				9,
				8,
				7,
				12,
				11,
				10
			],
			"name":"Player"
		}
	],
	"accessors":[
		{
			"bufferView":0,
			"componentType":5126,
			"count":559,
			"max":[
				0.2577779293060303,
				1.1648991107940674,
				0.15625
			],
			"min":[
				-0.25898173451423645,
				1.8208607954761646e-09,
				-0.08766482770442963
			],
			"type":"VEC3"
		},
		{
			"bufferView":1,
			"componentType":5126,
			"count":559,
			"type":"VEC3"
		},
		{
			"bufferView":2,
			"componentType":5126,
			"count":559,
			"type":"VEC2"
		},
		{
			"bufferView":3,
			"componentType":5121,
			"count":559,
			"type":"VEC4"
		},
		{
			"bufferView":4,
			"componentType":5126,
			"count":559,
			"type":"VEC4"
		},
		{
			"bufferView":5,
			"componentType":5123,
			"count":720,
			"type":"SCALAR"
		},
		{
			"bufferView":6,
			"componentType":5126,
			"count":14,
			"type":"MAT4"
		},
		{
			"bufferView":7,
			"componentType":5126,
			"count":2,
			"max":[
				0.8333333333333334
			],
			"min":[
				0.041666666666666664
			],
			"type":"SCALAR"
		},
		{
			"bufferView":8,
			"componentType":5126,
			"count":2,
			"type":"VEC3"
		},
		{
			"bufferView":9,
			"componentType":5126,
			"count":2,
			"type":"VEC4"
		},
		{
			"bufferView":10,
			"componentType":5126,
			"count":2,
			"type":"VEC3"
		},
		{
			"bufferView":11,
			"componentType":5126,
			"count":2,
			"type":"VEC3"
		},
		{
			"bufferView":12,
			"componentType":5126,
			"count":2,
			"type":"VEC4"
		},
		{
			"bufferView":13,
			"componentType":5126,
			"count":2,
			"type":"VEC3"
		},
		{
			"bufferView":14,
			"componentType":5126,
			"count":2,
			"type":"VEC3"
		},
		{
			"bufferView":15,
			"componentType":5126,
			"count":2,
			"type":"VEC4"
		},
		{
			"bufferView":16,
			"componentType":5126,
			"count":2,
			"type":"VEC3"
		},
		{
			"bufferView":17,
			"componentType":5126,
			"count":2,
			"type":"VEC3"
		},
		{
			"bufferView":18,
			"componentType":5126,
			"count":2,
			"type":"VEC4"
		},
		{
			"bufferView":19,
			"componentType":5126,
			"count":2,
			"type":"VEC3"
		},
		{
			"bufferView":20,
			"componentType":5126,
			"count":2,
			"type":"VEC3"
		},
		{
			"bufferView":21,
			"componentType":5126,
			"count":2,
			"type":"VEC4"
		},
		{
			"bufferView":22,
			"componentType":5126,
			"count":2,
			"type":"VEC3"
		},
		{
			"bufferView":23,
			"componentType":5126,
			"count":2,
			"type":"VEC3"
		},
		{
			"bufferView":24,
			"componentType":5126,
			"count":2,
			"type":"VEC4"
		},
		{
			"bufferView":25,
			"componentType":5126,
			"count":2,
			"type":"VEC3"
		},
		{
			"bufferView":26,
			"componentType":5126,
			"count":2,
			"type":"VEC3"
		},
		{
			"bufferView":27,
			"componentType":5126,
			"count":2,
			"type":"VEC4"
		},
		{
			"bufferView":28,
			"componentType":5126,
			"count":2,
			"type":"VEC3"
		},
		{
			"bufferView":29,
			"componentType":5126,
			"count":2,
			"type":"VEC3"
		},
		{
			"bufferView":30,
			"componentType":5126,
			"count":2,
			"type":"VEC4"
		},
		{
			"bufferView":31,
			"componentType":5126,
			"count":2,
			"type":"VEC3"
		},
		{
			"bufferView":32,
			"componentType":5126,
			"count":2,
			"type":"VEC3"
		},
		{
			"bufferView":33,
			"componentType":5126,
			"count":20,
			"max":[
				0.8333333333333334
			],
			"min":[
				0.041666666666666664
			],
			"type":"SCALAR"
		},
		{
			"bufferView":34,
			"componentType":5126,
			"count":20,
			"type":"VEC4"
		},
		{
			"bufferView":35,
			"componentType":5126,
			"count":2,
			"type":"VEC3"
		},
		{
			"bufferView":36,
			"componentType":5126,
			"count":2,
			"type":"VEC3"
		},
		{
			"bufferView":37,
			"componentType":5126,
			"count":20,
			"type":"VEC4"
		},
		{
			"bufferView":38,
			"componentType":5126,
			"count":2,
			"type":"VEC3"
		},
		{
			"bufferView":39,
			"componentType":5126,
			"count":2,
			"type":"VEC3"
		},
		{
			"bufferView":40,
			"componentType":5126,
			"count":2,
			"type":"VEC4"
		},
		{
			"bufferView":41,
			"componentType":5126,
			"count":2,
			"type":"VEC3"
		},
		{
			"bufferView":42,
			"componentType":5126,
			"count":2,
			"type":"VEC3"
		},
		{
			"bufferView":43,
			"componentType":5126,
			"count":20,
			"type":"VEC4"
		},
		{
			"bufferView":44,
			"componentType":5126,
			"count":2,
			"type":"VEC3"
		},
		{
			"bufferView":45,
			"componentType":5126,
			"count":2,
			"type":"VEC3"
		},
		{
			"bufferView":46,
			"componentType":5126,
			"count":20,
			"type":"VEC4"
		},
		{
			"bufferView":47,
			"componentType":5126,
			"count":2,
			"type":"VEC3"
		},
		{
			"bufferView":48,
			"componentType":5126,
			"count":2,
			"type":"VEC3"
		},
		{
			"bufferView":49,
			"componentType":5126,
			"count":20,
			"type":"VEC4"
		},
		{
			"bufferView":50,
			"componentType":5126,
			"count":2,
			"type":"VEC3"
		}
	],
	"bufferViews":[
		{
			"buffer":0,
			"byteLength":6708,
			"byteOffset":0,
			"target":34962
		},
		{
			"buffer":0,
			"byteLength":6708,
			"byteOffset":6708,
			"target":34962
		},
		{
			"buffer":0,
			"byteLength":4472,
			"byteOffset":13416,
			"target":34962
		},
		{
			"buffer":0,
			"byteLength":2236,
			"byteOffset":17888,
			"target":34962
		},
		{
			"buffer":0,
			"byteLength":8944,
			"byteOffset":20124,
			"target":34962
		},
		{
			"buffer":0,
			"byteLength":1440,
			"byteOffset":29068,
			"target":34963
		},
		{
			"buffer":0,
			"byteLength":896,
			"byteOffset":30508
		},
		{
			"buffer":0,
			"byteLength":8,
			"byteOffset":31404
		},
		{
			"buffer":0,
			"byteLength":24,
			"byteOffset":31412
		},
		{
			"buffer":0,
			"byteLength":32,
			"byteOffset":31436
		},
		{
			"buffer":0,
			"byteLength":24,
			"byteOffset":31468
		},
		{
			"buffer":0,
			"byteLength":24,
			"byteOffset":31492
		},
		{
			"buffer":0,
			"byteLength":32,
			"byteOffset":31516
		},
		{
			"buffer":0,
			"byteLength":24,
			"byteOffset":31548
		},
		{
			"buffer":0,
			"byteLength":24,
			"byteOffset":31572
		},
		{
			"buffer":0,
			"byteLength":32,
			"byteOffset":31596
		},
		{
			"buffer":0,
			"byteLength":24,
			"byteOffset":31628
		},
		{
			"buffer":0,
			"byteLength":24,
			"byteOffset":31652
		},
		{
			"buffer":0,
			"byteLength":32,
			"byteOffset":31676
		},
		{
			"buffer":0,
			"byteLength":24,
			"byteOffset":31708
		},
		{
			"buffer":0,
			"byteLength":24,
			"byteOffset":31732
		},
		{
			"buffer":0,
			"byteLength":32,
			"byteOffset":31756
		},
		{
			"buffer":0,
			"byteLength":24,
			"byteOffset":31788
		},
		{
			"buffer":0,
			"byteLength":24,
			"byteOffset":31812
		},
		{
			"buffer":0,
			"byteLength":32,
			"byteOffset":31836
		},
		{
			"buffer":0,
			"byteLength":24,
			"byteOffset":31868
		},
		{
			"buffer":0,
			"byteLength":24,
			"byteOffset":31892
		},
		{
			"buffer":0,
			"byteLength":32,
			"byteOffset":31916
		},
		{
			"buffer":0,
			"byteLength":24,
			"byteOffset":31948
		},
		{
			"buffer":0,
			"byteLength":24,
			"byteOffset":31972
		},
		{
			"buffer":0,
			"byteLength":32,
			"byteOffset":31996
		},
		{
			"buffer":0,
			"byteLength":24,
			"byteOffset":32028
		},
		{
			"buffer":0,
			"byteLength":24,
			"byteOffset":32052
		},
		{
			"buffer":0,
			"byteLength":80,
			"byteOffset":32076
		},
		{
			"buffer":0,
			"byteLength":320,
			"byteOffset":32156
		},
		{
			"buffer":0,
			"byteLength":24,
			"byteOffset":32476
		},
		{
			"buffer":0,
			"byteLength":24,
			"byteOffset":32500
		},
		{
			"buffer":0,
			"byteLength":320,
			"byteOffset":32524
		},
		{
			"buffer":0,
			"byteLength":24,
			"byteOffset":32844
		},
		{
			"buffer":0,
			"byteLength":24,
			"byteOffset":32868
		},
		{
			"buffer":0,
			"byteLength":32,
			"byteOffset":32892
		},
		{
			"buffer":0,
			"byteLength":24,
			"byteOffset":32924
		},
		{
			"buffer":0,
			"byteLength":24,
			"byteOffset":32948
		},
		{
			"buffer":0,
			"byteLength":320,
			"byteOffset":32972
		},
		{
			"buffer":0,
			"byteLength":24,
			"byteOffset":33292
		},
		{
			"buffer":0,
			"byteLength":24,
			"byteOffset":33316
		},
		{
			"buffer":0,
			"byteLength":320,
			"byteOffset":33340
		},
		{
			"buffer":0,
			"byteLength":24,
			"byteOffset":33660
		},
		{
			"buffer":0,
			"byteLength":24,
			"byteOffset":33684
		},
		{
			"buffer":0,
			"byteLength":320,
			"byteOffset":33708
		},
		{
			"buffer":0,
			"byteLength":24,
			"byteOffset":34028
		}
	],
	"samplers":[
		{
			"magFilter":9728,
			"minFilter":9984,
			"wrapS":33071,
			"wrapT":33071
		}
	],
	"buffers":[
		{
			"byteLength":34052,
			"uri":"Crouch_walk.bin"
		}
	]
}
