{"asset":{"version":"2.0","generator":"Blockbench 4.12.3 glTF exporter"},"scenes":[{"nodes":[43],"name":"blockbench_export"}],"scene":0,"nodes":[{"rotation":[0,0,-0.19509032201612825,0.9807852804032304],"name":"Hand","mesh":0},{"translation":[0,-0.125,0],"name":"Hand","children":[0]},{"rotation":[0,0,-0.19509032201612825,0.9807852804032304],"translation":[0,-0.125,0],"name":"Arm","mesh":1},{"translation":[-0.002523125000000001,-0.3428037500000001,0.0015887499999999999],"name":"LowerArm","children":[1,2]},{"rotation":[0,0,-0.19509032201612825,0.9807852804032304],"translation":[-0.002523125000000001,-0.15530375000000007,0.0015887499999999999],"name":"Forearm","mesh":2},{"translation":[0.20564812500000001,0.22405375000000005,-0.03283875],"name":"ArmL","children":[3,4]},{"rotation":[0,0,-0.19509032201612825,0.9807852804032304],"translation":[0.125,0,0],"name":"Hand","mesh":3},{"translation":[0,-0.125,0],"name":"Hand2","children":[6]},{"rotation":[0,0,-0.19509032201612825,0.9807852804032304],"translation":[0.125,-0.125,0],"name":"Arm","mesh":4},{"translation":[-0.12752312499999996,-0.34280374999999996,0.0015887499999999999],"name":"LowerArm2","children":[7,8]},{"rotation":[0,0,-0.19509032201612825,0.9807852804032304],"translation":[-0.0025231249999999594,-0.15530374999999996,0.0015887499999999999],"name":"Forearm","mesh":5},{"translation":[-0.20685187500000002,0.23030374999999992,-0.03283875],"name":"ArmR","children":[9,10]},{"rotation":[-0.5372996083468239,0,0,0.8433914458128857],"name":"Tail","mesh":6},{"name":"Tail","children":[12]},{"rotation":[-0.10886687485196457,0,0,0.9940563382223196],"translation":[-0.0625,-0.018750000000000044,0.04999999999999999],"name":"Hat Body","mesh":7},{"translation":[0,0.23124999999999996,-0.09999999999999998],"name":"Hat","children":[13,14]},{"translation":[0,-0.25,0],"name":"Beard","mesh":8},{"translation":[0,0.08125000000000004,0.13125],"name":"Beard","children":[16]},{"rotation":[0,0,-0.09584575252022398,0.9953961983671789],"name":"Right Eyebrow","mesh":9},{"translation":[-0.05000000000000002,0,-0.049999999999999996],"name":"RightEyebrow","children":[18]},{"rotation":[0,0,0.9117620435770886,0.4107188526134772],"translation":[0.006249999999999999,0.006249999999999867,0],"name":"Left Eyebrow","mesh":10},{"translation":[0.04375,0,-0.049999999999999996],"name":"LeftEyebrow","children":[20]},{"translation":[0,0.20625000000000004,0.13125],"name":"Eyebrows","children":[19,21]},{"translation":[0,0.006250000000000089,0],"name":"Head","mesh":11},{"translation":[0,0.018750000000000044,0],"name":"Head","children":[15,17,22,23]},{"translation":[0,0.25,0],"name":"Neck","mesh":12},{"translation":[0.0062500000000000056,0.28437499999999993,-0.03125],"name":"FullHead","children":[24,25]},{"translation":[0.28125,-0.86875,0],"name":"Chest","mesh":13},{"translation":[0.03125,0,-0.012499999999999997],"name":"UpperBody","children":[5,11,26,27]},{"name":"Foot","mesh":14},{"translation":[0,-0.16875,0.0062500000000000056],"name":"Foot","children":[29]},{"translation":[0.4375,-0.4375,0],"name":"Knee","mesh":15},{"translation":[0,-0.1875,0],"name":"LowerLeg","children":[30,31]},{"translation":[0.4375,-0.625,0],"name":"Upper Leg","mesh":16},{"translation":[0.125,-0.30625,-0.012499999999999997],"name":"LegL","children":[32,33]},{"name":"Foot","mesh":17},{"translation":[0,-0.16875,0.0062500000000000056],"name":"Foot2","children":[35]},{"translation":[0.4375,-0.4375,0],"name":"Knee","mesh":18},{"translation":[0,-0.1875,0],"name":"LowerLeg2","children":[36,37]},{"translation":[0.4375,-0.625,0],"name":"Upper Leg","mesh":19},{"translation":[-0.0625,-0.30625,-0.012499999999999997],"name":"LegR","children":[38,39]},{"translation":[0.3125,-0.86875,-0.012499999999999997],"name":"Lower Body","mesh":20},{"translation":[-0.125,0.86875,-0.1125],"name":"Chief","children":[28,34,40,41]},{"children":[42]}],"bufferViews":[{"buffer":0,"byteOffset":0,"byteLength":384,"target":34962,"byteStride":12},{"buffer":0,"byteOffset":384,"byteLength":384,"target":34962,"byteStride":12},{"buffer":0,"byteOffset":768,"byteLength":256,"target":34962,"byteStride":8},{"buffer":0,"byteOffset":1024,"byteLength":84,"target":34963},{"buffer":0,"byteOffset":1108,"byteLength":288,"target":34962,"byteStride":12},{"buffer":0,"byteOffset":1396,"byteLength":288,"target":34962,"byteStride":12},{"buffer":0,"byteOffset":1684,"byteLength":192,"target":34962,"byteStride":8},{"buffer":0,"byteOffset":1876,"byteLength":72,"target":34963},{"buffer":0,"byteOffset":1948,"byteLength":288,"target":34962,"byteStride":12},{"buffer":0,"byteOffset":2236,"byteLength":288,"target":34962,"byteStride":12},{"buffer":0,"byteOffset":2524,"byteLength":192,"target":34962,"byteStride":8},{"buffer":0,"byteOffset":2716,"byteLength":72,"target":34963},{"buffer":0,"byteOffset":2788,"byteLength":384,"target":34962,"byteStride":12},{"buffer":0,"byteOffset":3172,"byteLength":384,"target":34962,"byteStride":12},{"buffer":0,"byteOffset":3556,"byteLength":256,"target":34962,"byteStride":8},{"buffer":0,"byteOffset":3812,"byteLength":84,"target":34963},{"buffer":0,"byteOffset":3896,"byteLength":288,"target":34962,"byteStride":12},{"buffer":0,"byteOffset":4184,"byteLength":288,"target":34962,"byteStride":12},{"buffer":0,"byteOffset":4472,"byteLength":192,"target":34962,"byteStride":8},{"buffer":0,"byteOffset":4664,"byteLength":72,"target":34963},{"buffer":0,"byteOffset":4736,"byteLength":288,"target":34962,"byteStride":12},{"buffer":0,"byteOffset":5024,"byteLength":288,"target":34962,"byteStride":12},{"buffer":0,"byteOffset":5312,"byteLength":192,"target":34962,"byteStride":8},{"buffer":0,"byteOffset":5504,"byteLength":72,"target":34963},{"buffer":0,"byteOffset":5576,"byteLength":288,"target":34962,"byteStride":12},{"buffer":0,"byteOffset":5864,"byteLength":288,"target":34962,"byteStride":12},{"buffer":0,"byteOffset":6152,"byteLength":192,"target":34962,"byteStride":8},{"buffer":0,"byteOffset":6344,"byteLength":72,"target":34963},{"buffer":0,"byteOffset":6416,"byteLength":288,"target":34962,"byteStride":12},{"buffer":0,"byteOffset":6704,"byteLength":288,"target":34962,"byteStride":12},{"buffer":0,"byteOffset":6992,"byteLength":192,"target":34962,"byteStride":8},{"buffer":0,"byteOffset":7184,"byteLength":72,"target":34963},{"buffer":0,"byteOffset":7256,"byteLength":528,"target":34962,"byteStride":12},{"buffer":0,"byteOffset":7784,"byteLength":528,"target":34962,"byteStride":12},{"buffer":0,"byteOffset":8312,"byteLength":352,"target":34962,"byteStride":8},{"buffer":0,"byteOffset":8664,"byteLength":132,"target":34963},{"buffer":0,"byteOffset":8796,"byteLength":288,"target":34962,"byteStride":12},{"buffer":0,"byteOffset":9084,"byteLength":288,"target":34962,"byteStride":12},{"buffer":0,"byteOffset":9372,"byteLength":192,"target":34962,"byteStride":8},{"buffer":0,"byteOffset":9564,"byteLength":72,"target":34963},{"buffer":0,"byteOffset":9636,"byteLength":288,"target":34962,"byteStride":12},{"buffer":0,"byteOffset":9924,"byteLength":288,"target":34962,"byteStride":12},{"buffer":0,"byteOffset":10212,"byteLength":192,"target":34962,"byteStride":8},{"buffer":0,"byteOffset":10404,"byteLength":72,"target":34963},{"buffer":0,"byteOffset":10476,"byteLength":912,"target":34962,"byteStride":12},{"buffer":0,"byteOffset":11388,"byteLength":912,"target":34962,"byteStride":12},{"buffer":0,"byteOffset":12300,"byteLength":608,"target":34962,"byteStride":8},{"buffer":0,"byteOffset":12908,"byteLength":216,"target":34963},{"buffer":0,"byteOffset":13124,"byteLength":672,"target":34962,"byteStride":12},{"buffer":0,"byteOffset":13796,"byteLength":672,"target":34962,"byteStride":12},{"buffer":0,"byteOffset":14468,"byteLength":448,"target":34962,"byteStride":8},{"buffer":0,"byteOffset":14916,"byteLength":168,"target":34963},{"buffer":0,"byteOffset":15084,"byteLength":1008,"target":34962,"byteStride":12},{"buffer":0,"byteOffset":16092,"byteLength":1008,"target":34962,"byteStride":12},{"buffer":0,"byteOffset":17100,"byteLength":672,"target":34962,"byteStride":8},{"buffer":0,"byteOffset":17772,"byteLength":240,"target":34963},{"buffer":0,"byteOffset":18012,"byteLength":456,"target":34962,"byteStride":12},{"buffer":0,"byteOffset":18468,"byteLength":456,"target":34962,"byteStride":12},{"buffer":0,"byteOffset":18924,"byteLength":304,"target":34962,"byteStride":8},{"buffer":0,"byteOffset":19228,"byteLength":96,"target":34963},{"buffer":0,"byteOffset":19324,"byteLength":288,"target":34962,"byteStride":12},{"buffer":0,"byteOffset":19612,"byteLength":288,"target":34962,"byteStride":12},{"buffer":0,"byteOffset":19900,"byteLength":192,"target":34962,"byteStride":8},{"buffer":0,"byteOffset":20092,"byteLength":72,"target":34963},{"buffer":0,"byteOffset":20164,"byteLength":324,"target":34962,"byteStride":12},{"buffer":0,"byteOffset":20488,"byteLength":324,"target":34962,"byteStride":12},{"buffer":0,"byteOffset":20812,"byteLength":216,"target":34962,"byteStride":8},{"buffer":0,"byteOffset":21028,"byteLength":80,"target":34963},{"buffer":0,"byteOffset":21108,"byteLength":456,"target":34962,"byteStride":12},{"buffer":0,"byteOffset":21564,"byteLength":456,"target":34962,"byteStride":12},{"buffer":0,"byteOffset":22020,"byteLength":304,"target":34962,"byteStride":8},{"buffer":0,"byteOffset":22324,"byteLength":96,"target":34963},{"buffer":0,"byteOffset":22420,"byteLength":288,"target":34962,"byteStride":12},{"buffer":0,"byteOffset":22708,"byteLength":288,"target":34962,"byteStride":12},{"buffer":0,"byteOffset":22996,"byteLength":192,"target":34962,"byteStride":8},{"buffer":0,"byteOffset":23188,"byteLength":72,"target":34963},{"buffer":0,"byteOffset":23260,"byteLength":324,"target":34962,"byteStride":12},{"buffer":0,"byteOffset":23584,"byteLength":324,"target":34962,"byteStride":12},{"buffer":0,"byteOffset":23908,"byteLength":216,"target":34962,"byteStride":8},{"buffer":0,"byteOffset":24124,"byteLength":80,"target":34963},{"buffer":0,"byteOffset":24204,"byteLength":1080,"target":34962,"byteStride":12},{"buffer":0,"byteOffset":25284,"byteLength":1080,"target":34962,"byteStride":12},{"buffer":0,"byteOffset":26364,"byteLength":720,"target":34962,"byteStride":8},{"buffer":0,"byteOffset":27084,"byteLength":264,"target":34963}],"buffers":[{"byteLength":27348,"uri":"data:application/octet-stream;base64,"}],"accessors":[{"bufferView":0,"componentType":5126,"count":32,"max":[0.08099562674760818,0.03129562363028526,0.04445875063538551],"min":[-0.04539812356233597,-0.12056812644004822,-0.0475662499666214],"type":"VEC3"},{"bufferView":1,"componentType":5126,"count":32,"max":[0.9268572330474854,0.9212543368339539,0.9999787211418152],"min":[-0.9218522906303406,-0.9618838429450989,-0.9999827146530151],"type":"VEC3"},{"bufferView":2,"componentType":5126,"count":32,"max":[0.6949218511581421,0.6953125],"min":[0.04726562649011612,0.033155620098114014],"type":"VEC2"},{"bufferView":3,"componentType":5123,"count":42,"max":[31],"min":[0],"type":"SCALAR"},{"bufferView":4,"componentType":5126,"count":24,"max":[0.0408368743956089,0.16029749810695648,0.04531250149011612],"min":[-0.10054062306880951,-0.004323749803006649,-0.04843749850988388],"type":"VEC3"},{"bufferView":5,"componentType":5126,"count":24,"max":[0.9265714883804321,0.9357515573501587,0.9999817609786987],"min":[-0.921999454498291,-0.9360907077789307,-0.9999785423278809],"type":"VEC3"},{"bufferView":6,"componentType":5126,"count":24,"max":[0.65625,0.6796875],"min":[0.000006875000053696567,0.421875],"type":"VEC2"},{"bufferView":7,"componentType":5123,"count":36,"max":[23],"min":[0],"type":"SCALAR"},{"bufferView":8,"componentType":5126,"count":24,"max":[0.10678312182426453,0.2169637531042099,0.05323750153183937],"min":[-0.12985500693321228,-0.16147999465465546,-0.055668748915195465],"type":"VEC3"},{"bufferView":9,"componentType":5126,"count":24,"max":[0.9288395643234253,0.9231101870536804,0.9995889067649841],"min":[-0.916340172290802,-0.9357523322105408,-0.9998679161071777],"type":"VEC3"},{"bufferView":10,"componentType":5126,"count":24,"max":[0.46462640166282654,0.6361665725708008],"min":[0.140625,0.11029750108718872],"type":"VEC2"},{"bufferView":11,"componentType":5123,"count":36,"max":[23],"min":[0],"type":"SCALAR"},{"bufferView":12,"componentType":5126,"count":32,"max":[0.08099562674760818,0.03129562363028526,0.04445875063538551],"min":[-0.04539812356233597,-0.12056812644004822,-0.0475662499666214],"type":"VEC3"},{"bufferView":13,"componentType":5126,"count":32,"max":[0.9268572330474854,0.9212543368339539,0.9999787211418152],"min":[-0.9218522906303406,-0.9618838429450989,-0.9999827146530151],"type":"VEC3"},{"bufferView":14,"componentType":5126,"count":32,"max":[0.6953125,0.6792716979980469],"min":[0.047727812081575394,0.078125],"type":"VEC2"},{"bufferView":15,"componentType":5123,"count":42,"max":[31],"min":[0],"type":"SCALAR"},{"bufferView":16,"componentType":5126,"count":24,"max":[0.0408368743956089,0.16029749810695648,0.04531250149011612],"min":[-0.10054062306880951,-0.004323749803006649,-0.04843749850988388],"type":"VEC3"},{"bufferView":17,"componentType":5126,"count":24,"max":[0.9265714883804321,0.9357515573501587,0.9999817609786987],"min":[-0.921999454498291,-0.9360907077789307,-0.9999785423278809],"type":"VEC3"},{"bufferView":18,"componentType":5126,"count":24,"max":[0.6875,0.646484375],"min":[0.18750686943531036,0],"type":"VEC2"},{"bufferView":19,"componentType":5123,"count":36,"max":[23],"min":[0],"type":"SCALAR"},{"bufferView":20,"componentType":5126,"count":24,"max":[0.10678312182426453,0.2169637531042099,0.05323750153183937],"min":[-0.12746313214302063,-0.16147999465465546,-0.055668748915195465],"type":"VEC3"},{"bufferView":21,"componentType":5126,"count":24,"max":[0.9288395643234253,0.9146901965141296,0.9996119737625122],"min":[-0.9162065982818604,-0.9357523322105408,-0.9998679161071777],"type":"VEC3"},{"bufferView":22,"componentType":5126,"count":24,"max":[0.6209315657615662,0.5625],"min":[0.00020703124755527824,0.0009262561798095703],"type":"VEC2"},{"bufferView":23,"componentType":5123,"count":36,"max":[23],"min":[0],"type":"SCALAR"},{"bufferView":24,"componentType":5126,"count":24,"max":[0.046875,0.038295626640319824,0.03921562433242798],"min":[-0.046875,-0.039829373359680176,-0.15453436970710754],"type":"VEC3"},{"bufferView":25,"componentType":5126,"count":24,"max":[1,1,1],"min":[-1,-1,-1],"type":"VEC3"},{"bufferView":26,"componentType":5126,"count":24,"max":[0.642578125,0.67578125],"min":[0.4375,0.09375],"type":"VEC2"},{"bufferView":27,"componentType":5123,"count":36,"max":[23],"min":[0],"type":"SCALAR"},{"bufferView":28,"componentType":5126,"count":24,"max":[0.171875,0.078125,0.1875],"min":[-0.046875,0,-0.03750000149011612],"type":"VEC3"},{"bufferView":29,"componentType":5126,"count":24,"max":[1,1,1],"min":[-1,-1,-1],"type":"VEC3"},{"bufferView":30,"componentType":5126,"count":24,"max":[0.6015625,0.56640625],"min":[0.15625,0.046875],"type":"VEC2"},{"bufferView":31,"componentType":5123,"count":36,"max":[23],"min":[0],"type":"SCALAR"},{"bufferView":32,"componentType":5126,"count":44,"max":[0.09375,0.3125,0.012500000186264515],"min":[-0.09375,0.16249999403953552,-0.03125],"type":"VEC3"},{"bufferView":33,"componentType":5126,"count":44,"max":[1,1,1],"min":[-1,-1,-1],"type":"VEC3"},{"bufferView":34,"componentType":5126,"count":44,"max":[0.671875,0.6875],"min":[0,0],"type":"VEC2"},{"bufferView":35,"componentType":5123,"count":66,"max":[43],"min":[0],"type":"SCALAR"},{"bufferView":36,"componentType":5126,"count":24,"max":[0.02812499925494194,0.02500000037252903,0.05624999850988388],"min":[-0.02824000082910061,-0.02187499962747097,-0.05624999850988388],"type":"VEC3"},{"bufferView":37,"componentType":5126,"count":24,"max":[0.8618769645690918,0.8486607074737549,1],"min":[-0.887859046459198,-0.8697116374969482,-1],"type":"VEC3"},{"bufferView":38,"componentType":5126,"count":24,"max":[0.671875,0.6852026581764221],"min":[0,0.328125],"type":"VEC2"},{"bufferView":39,"componentType":5123,"count":36,"max":[23],"min":[0],"type":"SCALAR"},{"bufferView":40,"componentType":5126,"count":24,"max":[0.02812499925494194,0.02500000037252903,0.05624999850988388],"min":[-0.02824000082910061,-0.02187499962747097,-0.05624999850988388],"type":"VEC3"},{"bufferView":41,"componentType":5126,"count":24,"max":[0.8618769645690918,0.8486607074737549,1],"min":[-0.887859046459198,-0.8697116374969482,-1],"type":"VEC3"},{"bufferView":42,"componentType":5126,"count":24,"max":[0.6875,0.671875],"min":[0.1875,0.390625],"type":"VEC2"},{"bufferView":43,"componentType":5123,"count":36,"max":[23],"min":[0],"type":"SCALAR"},{"bufferView":44,"componentType":5126,"count":76,"max":[0.1015625,0.2593750059604645,0.12343750149011612],"min":[-0.1015625,0.003745625028386712,-0.07968749850988388],"type":"VEC3"},{"bufferView":45,"componentType":5126,"count":76,"max":[1,1,1],"min":[-1,-1,-1],"type":"VEC3"},{"bufferView":46,"componentType":5126,"count":76,"max":[0.6540181040763855,0.470703125],"min":[0.0009764062706381083,0.00020325183868408203],"type":"VEC2"},{"bufferView":47,"componentType":5123,"count":108,"max":[75],"min":[0],"type":"SCALAR"},{"bufferView":48,"componentType":5126,"count":56,"max":[0.08632812649011612,-0.2212543785572052,0.06588562577962875],"min":[-0.0778643786907196,-0.24943125247955322,-0.05937499925494194],"type":"VEC3"},{"bufferView":49,"componentType":5126,"count":56,"max":[0.9729660153388977,1,0.8880171775817871],"min":[-0.9780067205429077,-0.999805748462677,-0.8248926997184753],"type":"VEC3"},{"bufferView":50,"componentType":5126,"count":56,"max":[0.7003559470176697,0.705078125],"min":[0.0004054687451571226,0.09375],"type":"VEC2"},{"bufferView":51,"componentType":5123,"count":84,"max":[55],"min":[0],"type":"SCALAR"},{"bufferView":52,"componentType":5126,"count":84,"max":[-0.12497937679290771,1.1648993492126465,0.054049376398324966],"min":[-0.4386962354183197,0.8468481302261353,-0.08257687836885452],"type":"VEC3"},{"bufferView":53,"componentType":5126,"count":84,"max":[0.9999887347221375,0.9986370801925659,0.9960837364196777],"min":[-0.9999785423278809,-0.9998778104782104,-0.999890148639679],"type":"VEC3"},{"bufferView":54,"componentType":5126,"count":84,"max":[0.6884942054748535,0.6564114093780518],"min":[0.0008657812722958624,0],"type":"VEC2"},{"bufferView":55,"componentType":5123,"count":120,"max":[83],"min":[0],"type":"SCALAR"},{"bufferView":56,"componentType":5126,"count":38,"max":[0.0625,0.04374999925494194,0.15000000596046448],"min":[-0.0625,-0.20624999701976776,-0.06875000149011612],"type":"VEC3"},{"bufferView":57,"componentType":5126,"count":38,"max":[1,0.8944271802902222,0.9486833214759827],"min":[-1,-1,-1],"type":"VEC3"},{"bufferView":58,"componentType":5126,"count":38,"max":[0.609375,0.6939712762832642],"min":[0.046875,0.078125],"type":"VEC2"},{"bufferView":59,"componentType":5123,"count":48,"max":[37],"min":[0],"type":"SCALAR"},{"bufferView":60,"componentType":5126,"count":24,"max":[-0.375,0.4452987611293793,0.06621500104665756],"min":[-0.5,0.25,-0.0625],"type":"VEC3"},{"bufferView":61,"componentType":5126,"count":24,"max":[1,0.9998896718025208,0.9995821714401245],"min":[-0.9999997019767761,-0.8944271802902222,-1],"type":"VEC3"},{"bufferView":62,"componentType":5126,"count":24,"max":[0.53125,0.609375],"min":[0.09375,0.046875],"type":"VEC2"},{"bufferView":63,"componentType":5123,"count":36,"max":[23],"min":[0],"type":"SCALAR"},{"bufferView":64,"componentType":5126,"count":27,"max":[-0.375,0.6778218746185303,0.07306437194347382],"min":[-0.5,0.43993937969207764,-0.0625],"type":"VEC3"},{"bufferView":65,"componentType":5126,"count":27,"max":[1,0.9317667484283447,0.9995821118354797],"min":[-0.9999985098838806,-0.9994022250175476,-1],"type":"VEC3"},{"bufferView":66,"componentType":5126,"count":27,"max":[0.5947293639183044,0.609375],"min":[0.046875,0.15625],"type":"VEC2"},{"bufferView":67,"componentType":5123,"count":39,"max":[26],"min":[0],"type":"SCALAR"},{"bufferView":68,"componentType":5126,"count":38,"max":[0.0625,0.04374999925494194,0.15000000596046448],"min":[-0.0625,-0.20624999701976776,-0.06875000149011612],"type":"VEC3"},{"bufferView":69,"componentType":5126,"count":38,"max":[1,0.8944271802902222,0.9486833214759827],"min":[-1,-1,-1],"type":"VEC3"},{"bufferView":70,"componentType":5126,"count":38,"max":[0.685546875,0.609375],"min":[0.234375,0],"type":"VEC2"},{"bufferView":71,"componentType":5123,"count":48,"max":[37],"min":[0],"type":"SCALAR"},{"bufferView":72,"componentType":5126,"count":24,"max":[-0.375,0.4452987611293793,0.06621500104665756],"min":[-0.5,0.25,-0.0625],"type":"VEC3"},{"bufferView":73,"componentType":5126,"count":24,"max":[1,0.9998896718025208,0.9995821714401245],"min":[-0.9999997019767761,-0.8944271802902222,-1],"type":"VEC3"},{"bufferView":74,"componentType":5126,"count":24,"max":[0.578125,0.609375],"min":[0.2817665636539459,0.15625],"type":"VEC2"},{"bufferView":75,"componentType":5123,"count":36,"max":[23],"min":[0],"type":"SCALAR"},{"bufferView":76,"componentType":5126,"count":27,"max":[-0.375,0.6778218746185303,0.07306437194347382],"min":[-0.5,0.43993937969207764,-0.0625],"type":"VEC3"},{"bufferView":77,"componentType":5126,"count":27,"max":[1,0.9317667484283447,0.9995821118354797],"min":[-0.9999985098838806,-0.9994022250175476,-1],"type":"VEC3"},{"bufferView":78,"componentType":5126,"count":27,"max":[0.609375,0.5625],"min":[0,0.109375],"type":"VEC2"},{"bufferView":79,"componentType":5123,"count":39,"max":[26],"min":[0],"type":"SCALAR"},{"bufferView":80,"componentType":5126,"count":90,"max":[-0.12499125301837921,0.8519756197929382,0.07326937466859818],"min":[-0.4380856156349182,0.5625,-0.08257687836885452],"type":"VEC3"},{"bufferView":81,"componentType":5126,"count":90,"max":[0.9999979138374329,0.9999645352363586,0.9965205192565918],"min":[-0.9999949336051941,-0.9317667484283447,-0.9976611733436584],"type":"VEC3"},{"bufferView":82,"componentType":5126,"count":90,"max":[0.4779920279979706,0.291015625],"min":[0.07832500338554382,0],"type":"VEC2"},{"bufferView":83,"componentType":5123,"count":132,"max":[89],"min":[0],"type":"SCALAR"}],"materials":[{"pbrMetallicRoughness":{"metallicFactor":0,"roughnessFactor":1,"baseColorTexture":{"index":0}},"alphaMode":"MASK","alphaCutoff":0.05,"doubleSided":true}],"textures":[{"sampler":0,"source":0,"name":"texture"}],"samplers":[{"magFilter":9728,"minFilter":9728,"wrapS":33071,"wrapT":33071}],"images":[{"mimeType":"image/png","uri":"data:image/png;base64,"}],"meshes":[{"primitives":[{"mode":4,"attributes":{"POSITION":0,"NORMAL":1,"TEXCOORD_0":2},"indices":3,"material":0}]},{"primitives":[{"mode":4,"attributes":{"POSITION":4,"NORMAL":5,"TEXCOORD_0":6},"indices":7,"material":0}]},{"primitives":[{"mode":4,"attributes":{"POSITION":8,"NORMAL":9,"TEXCOORD_0":10},"indices":11,"material":0}]},{"primitives":[{"mode":4,"attributes":{"POSITION":12,"NORMAL":13,"TEXCOORD_0":14},"indices":15,"material":0}]},{"primitives":[{"mode":4,"attributes":{"POSITION":16,"NORMAL":17,"TEXCOORD_0":18},"indices":19,"material":0}]},{"primitives":[{"mode":4,"attributes":{"POSITION":20,"NORMAL":21,"TEXCOORD_0":22},"indices":23,"material":0}]},{"primitives":[{"mode":4,"attributes":{"POSITION":24,"NORMAL":25,"TEXCOORD_0":26},"indices":27,"material":0}]},{"primitives":[{"mode":4,"attributes":{"POSITION":28,"NORMAL":29,"TEXCOORD_0":30},"indices":31,"material":0}]},{"primitives":[{"mode":4,"attributes":{"POSITION":32,"NORMAL":33,"TEXCOORD_0":34},"indices":35,"material":0}]},{"primitives":[{"mode":4,"attributes":{"POSITION":36,"NORMAL":37,"TEXCOORD_0":38},"indices":39,"material":0}]},{"primitives":[{"mode":4,"attributes":{"POSITION":40,"NORMAL":41,"TEXCOORD_0":42},"indices":43,"material":0}]},{"primitives":[{"mode":4,"attributes":{"POSITION":44,"NORMAL":45,"TEXCOORD_0":46},"indices":47,"material":0}]},{"primitives":[{"mode":4,"attributes":{"POSITION":48,"NORMAL":49,"TEXCOORD_0":50},"indices":51,"material":0}]},{"primitives":[{"mode":4,"attributes":{"POSITION":52,"NORMAL":53,"TEXCOORD_0":54},"indices":55,"material":0}]},{"primitives":[{"mode":4,"attributes":{"POSITION":56,"NORMAL":57,"TEXCOORD_0":58},"indices":59,"material":0}]},{"primitives":[{"mode":4,"attributes":{"POSITION":60,"NORMAL":61,"TEXCOORD_0":62},"indices":63,"material":0}]},{"primitives":[{"mode":4,"attributes":{"POSITION":64,"NORMAL":65,"TEXCOORD_0":66},"indices":67,"material":0}]},{"primitives":[{"mode":4,"attributes":{"POSITION":68,"NORMAL":69,"TEXCOORD_0":70},"indices":71,"material":0}]},{"primitives":[{"mode":4,"attributes":{"POSITION":72,"NORMAL":73,"TEXCOORD_0":74},"indices":75,"material":0}]},{"primitives":[{"mode":4,"attributes":{"POSITION":76,"NORMAL":77,"TEXCOORD_0":78},"indices":79,"material":0}]},{"primitives":[{"mode":4,"attributes":{"POSITION":80,"NORMAL":81,"TEXCOORD_0":82},"indices":83,"material":0}]}]}