# Made in Blockbench 4.12.2
mtllib Computer Screen.mtl

o cuboid
v -0.5 1.25 0.4375
v -0.5 1.25 -0.25
v -0.5 0.375 0.4375
v -0.5 0.375 -0.25
v -0.3125 1.0625 -0.5
v -0.3125 0.625 -0.5
v -0.1875 0.3125 0.3125
v -0.1875 0.3125 -0.0625
v -0.1875 0.25 -0.0625
v -0.1875 0.25 0.3125
v -0.5625 0.25 0.4375
v -0.5625 0.25 -0.25
v -0.5625 0 0.4375
v -0.5625 0 -0.25
v -0.4375 1.1875 0.4375
v -0.4375 0.4375 0.4375
v -0.4375 1.1875 0.4062500000000001
v -0.4375 0.4375 0.4062500000000001
v 0.5 1.25 0.4375
v 0.5 1.25 -0.25
v 0.5 0.375 0.4375
v 0.5 0.375 -0.25
v 0.3125 1.0625 -0.5
v 0.3125 0.625 -0.5
v 0.1875 0.3125 0.3125
v 0.1875 0.3125 -0.0625
v 0.1875 0.25 -0.0625
v 0.1875 0.25 0.3125
v 0.5625 0.25 0.4375
v 0.5625 0.25 -0.25
v 0.5625 0 0.4375
v 0.5625 0 -0.25
v 0.4375 1.1875 0.4375
v 0.4375 0.4375 0.4375
v 0.4375 1.1875 0.4062500000000001
v 0.4375 0.4375 0.4062500000000001
vt 0.21875 0.40625
vt 0.46875 0.40625
vt 0.46875 0.578125
vt 0.21875 0.578125
vt 0.765625 1
vt 0.609375 1
vt 0.5625 0.90625
vt 0.8125 0.90625
vt 0.203125 0.953125
vt 0.046875 0.953125
vt 0.046875 0.84375
vt 0.203125 0.84375
vt 0.234375 0.3125
vt 0.390625 0.3125
vt 0.4375 0.390625
vt 0.1875 0.390625
vt 0.75 0.203125
vt 0.75 0.296875
vt 0.65625 0.296875
vt 0.65625 0.203125
vt 0.1505189446633417 0.6782876753776607
vt 0.15489980467438258 0.5846400882994894
vt 0.19345141626116646 0.5082331059127949
vt 0.1817691228983907 0.7579600047879181
vt 0.05676894466334168 0.6782876753776607
vt 0.009893716789832072 0.7579599376866691
vt 0.0018610837388335494 0.5080890173972765
vt 0.05375670726921724 0.5845860802691385
vt 0.046875 0.8125
vt 0.140625 0.8125
vt 0.140625 0.828125
vt 0.046875 0.828125
vt 0.75 0.328125
vt 0.84375 0.328125
vt 0.84375 0.34375
vt 0.75 0.34375
vt 0.40625 0.71875
vt 0.5 0.765625
vt 0.21875 0.765625
vt 0.3125 0.71875
vt 0.5 0.59375
vt 0.40625 0.625
vt 0.3125 0.625
vt 0.21875 0.59375
vt 0.84375 0.828125
vt 0.84375 0.890625
vt 0.5625 0.890625
vt 0.5625 0.828125
vt 0.734375 0.3125
vt 0.734375 0.375
vt 0.453125 0.375
vt 0.453125 0.3125
vt 0.546875 1
vt 0.265625 1
vt 0.265625 0.828125
vt 0.546875 0.828125
vt 0.703125 0.578125
vt 0.484375 0.578125
vt 0.484375 0.390625
vt 0.703125 0.390625
vt 0.265625 0.8125
vt 0.265625 0.796875
vt 0.484375 0.796875
vt 0.484375 0.8125
vt 0.9375 0.578125
vt 0.71875 0.578125
vt 0.71875 0.5625
vt 0.9375 0.5625
vt 0.015625 0.984375
vt 0.234375 0.984375
vt 0.25 1
vt 0 1
vt 0.25 0.78125
vt 0.234375 0.796875
vt 0.015625 0.796875
vt 0 0.78125
vt 0.6875 0.59375
vt 0.6875 0.8125
vt 0.515625 0.8125
vt 0.515625 0.59375
vt 0.265625 0.296875
vt 0.1875 0.25
vt 0.1875 0.140625
vt 0.265625 0.078125
vt 0.009893944663341682 0.7579595503776606
vt 0.05676894466334168 0.6782876753776607
vt 0.1505189446633417 0.6782876753776607
vt 0.1817689446633417 0.7579595503776606
vt 0.03125 0.234375
vt 0.03125 0.21875
vt 0.125 0.21875
vt 0.125 0.234375
vt 0.21875 0.59375
vt 0.3125 0.625
vt 0.3125 0.71875
vt 0.21875 0.765625
vt 0.28125 0.296875
vt 0.28125 0.234375
vt 0.453125 0.234375
vt 0.453125 0.296875
vt 0.75 0.359375
vt 0.765625 0.359375
vt 0.765625 0.546875
vt 0.75 0.546875
vt 0.015625 0.796875
vt 0.015625 0.984375
vt 0 1
vt 0 0.78125
vt 0.171875 0.46875
vt 0 0.46875
vt 0 0.25
vt 0.171875 0.25
vt 0.78125 0.65625
vt 0.78125 0.765625
vt 0.703125 0.8125
vt 0.703125 0.59375
vt 0.15490002455307667 0.584639652513103
vt 0.061559452487718526 0.5758875038333967
vt 0.02232703414134319 0.4921875
vt 0.19345141626116646 0.5082331059127949
vt 0.765625 0.59375
vt 0.859375 0.59375
vt 0.859375 0.609375
vt 0.765625 0.609375
vt 0.40625 0.71875
vt 0.40625 0.625
vt 0.5 0.59375
vt 0.5 0.765625
vt 0.46875 0.234375
vt 0.640625 0.234375
vt 0.640625 0.296875
vt 0.46875 0.296875
vt 0 0.234375
vt 0 0.046875
vt 0.015625 0.046875
vt 0.015625 0.234375
vt 0.25 1
vt 0.234375 0.984375
vt 0.234375 0.796875
vt 0.25 0.78125
vn 0 1 0
vn 0 -0.7071067811865476 -0.7071067811865476
vn 0 0 -1
vn 0 0.8 -0.6
vn 0 -1 0
vn 0 -0.8944271909999161 0.44721359549995804
vn 0 -0.948683298050514 -0.316227766016838
vn 0 0 1
vn 0 0 -1
vn 0 1 0
vn 0 1 0
vn 0 0 -1
vn 0 0 1
vn 0 -1 0
vn 0 0 1
vn 0 -1 0
vn 0 1 0
vn 0 0 1
vn 0 0 1
vn -1 0 0
vn -0.8 0 -0.6
vn -0.19611613513818407 -0.9805806756909203 0
vn -1 0 0
vn 0 1 0
vn -1 0 0
vn 1 0 0
vn 0 0 1
vn 1 0 0
vn 0.8 0 -0.6
vn 0.19611613513818407 -0.9805806756909203 0
vn 1 0 0
vn 0 1 0
vn 1 0 0
vn -1 0 0
vn 0 0 1
usemtl m_a0054c04-93f8-5afc-11b4-fd3951784ae1
f 1/1/1 19/2/1 20/3/1 2/4/1
f 6/5/2 24/6/2 22/7/2 4/8/2
f 5/9/3 23/10/3 24/11/3 6/12/3
f 23/13/4 5/14/4 2/15/4 20/16/4
f 27/17/5 28/18/5 10/19/5 9/20/5
f 7/21/6 25/22/6 21/23/6 3/24/6
f 8/25/7 4/26/7 22/27/7 26/28/7
f 10/29/8 28/30/8 25/31/8 7/32/8
f 27/33/9 9/34/9 8/35/9 26/36/9
f 27/37/10 30/38/10 12/39/10 9/40/10
f 29/41/11 28/42/11 10/43/11 11/44/11
f 14/45/12 12/46/12 30/47/12 32/48/12
f 31/49/13 29/50/13 11/51/13 13/52/13
f 31/53/14 13/54/14 14/55/14 32/56/14
f 35/57/15 17/58/15 18/59/15 36/60/15
f 15/61/16 17/62/16 35/63/16 33/64/16
f 36/65/17 18/66/17 16/67/17 34/68/17
f 15/69/18 33/70/18 19/71/18 1/72/18
f 21/73/19 34/74/19 16/75/19 3/76/19
f 3/77/20 1/78/20 2/79/20 4/80/20
f 2/81/21 5/82/21 6/83/21 4/84/21
f 4/85/22 8/86/22 7/87/22 3/88/22
f 8/89/23 9/90/23 10/91/23 7/92/23
f 11/93/24 10/94/24 9/95/24 12/96/24
f 12/97/25 14/98/25 13/99/25 11/100/25
f 16/101/26 18/102/26 17/103/26 15/104/26
f 16/105/27 15/106/27 1/107/27 3/108/27
f 20/109/28 19/110/28 21/111/28 22/112/28
f 24/113/29 23/114/29 20/115/29 22/116/29
f 25/117/30 26/118/30 22/119/30 21/120/30
f 28/121/31 27/122/31 26/123/31 25/124/31
f 27/125/32 28/126/32 29/127/32 30/128/32
f 31/129/33 32/130/33 30/131/33 29/132/33
f 35/133/34 36/134/34 34/135/34 33/136/34
f 19/137/35 33/138/35 34/139/35 21/140/35