{"asset":{"version":"2.0","generator":"Blockbench 4.12.3 glTF exporter"},"scenes":[{"nodes":[1],"name":"blockbench_export"}],"scene":0,"nodes":[{"name":"plane","mesh":0},{"children":[0]}],"bufferViews":[{"buffer":0,"byteOffset":0,"byteLength":1944,"target":34962,"byteStride":12},{"buffer":0,"byteOffset":1944,"byteLength":1944,"target":34962,"byteStride":12},{"buffer":0,"byteOffset":3888,"byteLength":1296,"target":34962,"byteStride":8},{"buffer":0,"byteOffset":5184,"byteLength":348,"target":34963}],"buffers":[{"byteLength":5532,"uri":"data:application/octet-stream;base64,"}],"accessors":[{"bufferView":0,"componentType":5126,"count":162,"max":[0.3584062457084656,0.10113812237977982,0.3241456151008606],"min":[-0.26976436376571655,0,-0.27795061469078064],"type":"VEC3"},{"bufferView":1,"componentType":5126,"count":162,"max":[0.5215385556221008,0.9983351826667786,0.45886197686195374],"min":[-0.4902612268924713,-1,-0.6556100845336914],"type":"VEC3"},{"bufferView":2,"componentType":5126,"count":162,"max":[0.5903559327125549,0.6171875],"min":[0.0009631250286474824,0],"type":"VEC2"},{"bufferView":3,"componentType":5123,"count":174,"max":[161],"min":[0],"type":"SCALAR"}],"materials":[{"pbrMetallicRoughness":{"metallicFactor":0,"roughnessFactor":1,"baseColorTexture":{"index":0}},"alphaMode":"MASK","alphaCutoff":0.05,"doubleSided":true}],"textures":[{"sampler":0,"source":0,"name":"clutterPileSmall.png"}],"samplers":[{"magFilter":9728,"minFilter":9728,"wrapS":33071,"wrapT":33071}],"images":[{"mimeType":"image/png","uri":"data:image/png;base64,"}],"meshes":[{"primitives":[{"mode":4,"attributes":{"POSITION":0,"NORMAL":1,"TEXCOORD_0":2},"indices":3,"material":0}]}]}