{"asset":{"version":"2.0","generator":"Blockbench 4.12.3 glTF exporter"},"scenes":[{"nodes":[1],"name":"blockbench_export"}],"scene":0,"nodes":[{"rotation":[5.292120758300334e-7,0.9961947437261048,-0.08715522114135539,-4.1300024276564146e-8],"translation":[0,0.125,0],"name":"plane","mesh":0},{"children":[0]}],"bufferViews":[{"buffer":0,"byteOffset":0,"byteLength":3888,"target":34962,"byteStride":12},{"buffer":0,"byteOffset":3888,"byteLength":3888,"target":34962,"byteStride":12},{"buffer":0,"byteOffset":7776,"byteLength":2592,"target":34962,"byteStride":8},{"buffer":0,"byteOffset":10368,"byteLength":888,"target":34963}],"buffers":[{"byteLength":11256,"uri":"data:application/octet-stream;base64,"}],"accessors":[{"bufferView":0,"componentType":5126,"count":324,"max":[0.5218750238418579,2.023622512817383,0.4108743667602539],"min":[-0.5218750238418579,-0.1875,-0.5007431507110596],"type":"VEC3"},{"bufferView":1,"componentType":5126,"count":324,"max":[0.9974600672721863,0.9999921321868896,1],"min":[-0.9974600672721863,-1,-1],"type":"VEC3"},{"bufferView":2,"componentType":5126,"count":324,"max":[0.40625,0.6300811767578125],"min":[0,0],"type":"VEC2"},{"bufferView":3,"componentType":5123,"count":444,"max":[323],"min":[0],"type":"SCALAR"}],"materials":[{"pbrMetallicRoughness":{"metallicFactor":0,"roughnessFactor":1,"baseColorTexture":{"index":0}},"alphaMode":"MASK","alphaCutoff":0.05,"doubleSided":true}],"textures":[{"sampler":0,"source":0,"name":"warningInternSign.png"}],"samplers":[{"magFilter":9728,"minFilter":9728,"wrapS":33071,"wrapT":33071}],"images":[{"mimeType":"image/png","uri":"data:image/png;base64,"}],"meshes":[{"primitives":[{"mode":4,"attributes":{"POSITION":0,"NORMAL":1,"TEXCOORD_0":2},"indices":3,"material":0}]}]}