{"asset":{"version":"2.0","generator":"Blockbench 4.12.4 glTF exporter"},"scenes":[{"nodes":[1],"name":"blockbench_export"}],"scene":0,"nodes":[{"name":"circle","mesh":0},{"children":[0]}],"bufferViews":[{"buffer":0,"byteOffset":0,"byteLength":3672,"target":34962,"byteStride":12},{"buffer":0,"byteOffset":3672,"byteLength":3672,"target":34962,"byteStride":12},{"buffer":0,"byteOffset":7344,"byteLength":2448,"target":34962,"byteStride":8},{"buffer":0,"byteOffset":9792,"byteLength":852,"target":34963}],"buffers":[{"byteLength":10644,"uri":"data:application/octet-stream;base64,"}],"accessors":[{"bufferView":0,"componentType":5126,"count":306,"max":[0.0625,1.4531311988830566,0.0625],"min":[-0.125,0.1875,-0.06259375065565109],"type":"VEC3"},{"bufferView":1,"componentType":5126,"count":306,"max":[1,1,1],"min":[-1,-1,-1],"type":"VEC3"},{"bufferView":2,"componentType":5126,"count":306,"max":[0.7121624946594238,0.8498437404632568],"min":[0,0],"type":"VEC2"},{"bufferView":3,"componentType":5123,"count":426,"max":[305],"min":[0],"type":"SCALAR"}],"materials":[{"pbrMetallicRoughness":{"metallicFactor":0,"roughnessFactor":1,"baseColorTexture":{"index":0}},"alphaMode":"MASK","alphaCutoff":0.05,"doubleSided":true}],"textures":[{"sampler":0,"source":0,"name":"pen.png"}],"samplers":[{"magFilter":9728,"minFilter":9728,"wrapS":33071,"wrapT":33071}],"images":[{"mimeType":"image/png","uri":"data:image/png;base64,"}],"meshes":[{"primitives":[{"mode":4,"attributes":{"POSITION":0,"NORMAL":1,"TEXCOORD_0":2},"indices":3,"material":0}]}]}