{"asset":{"version":"2.0","generator":"Blockbench 4.12.3 glTF exporter"},"scenes":[{"nodes":[6],"name":"blockbench_export"}],"scene":0,"nodes":[{"translation":[0,0.5625,0],"name":"seat","mesh":0},{"rotation":[0.16220487305439787,-0.8377950951864631,0.3686387082224973,0.36863865836203435],"translation":[0,0.0625,0],"name":"spider","mesh":1},{"rotation":[0.27059805007309845,-0.2705980500730985,-0.6532814824381882,0.6532814824381883],"name":"wheel","mesh":2},{"rotation":[-0.6408563820557885,0.6408563820557884,0.2988362387301199,-0.2988362387301198],"name":"wheel","mesh":3},{"rotation":[-0.29883623873011983,0.29883623873011983,-0.6408563820557884,0.6408563820557885],"name":"wheel","mesh":4},{"rotation":[0.6532814824381883,-0.6532814824381882,0.27059805007309856,-0.2705980500730984],"name":"wheel","mesh":5},{"children":[0,1,2,3,4,5]}],"bufferViews":[{"buffer":0,"byteOffset":0,"byteLength":3720,"target":34962,"byteStride":12},{"buffer":0,"byteOffset":3720,"byteLength":3720,"target":34962,"byteStride":12},{"buffer":0,"byteOffset":7440,"byteLength":2480,"target":34962,"byteStride":8},{"buffer":0,"byteOffset":9920,"byteLength":912,"target":34963},{"buffer":0,"byteOffset":10832,"byteLength":2640,"target":34962,"byteStride":12},{"buffer":0,"byteOffset":13472,"byteLength":2640,"target":34962,"byteStride":12},{"buffer":0,"byteOffset":16112,"byteLength":1760,"target":34962,"byteStride":8},{"buffer":0,"byteOffset":17872,"byteLength":648,"target":34963},{"buffer":0,"byteOffset":18520,"byteLength":720,"target":34962,"byteStride":12},{"buffer":0,"byteOffset":19240,"byteLength":720,"target":34962,"byteStride":12},{"buffer":0,"byteOffset":19960,"byteLength":480,"target":34962,"byteStride":8},{"buffer":0,"byteOffset":20440,"byteLength":144,"target":34963},{"buffer":0,"byteOffset":20584,"byteLength":720,"target":34962,"byteStride":12},{"buffer":0,"byteOffset":21304,"byteLength":720,"target":34962,"byteStride":12},{"buffer":0,"byteOffset":22024,"byteLength":480,"target":34962,"byteStride":8},{"buffer":0,"byteOffset":22504,"byteLength":144,"target":34963},{"buffer":0,"byteOffset":22648,"byteLength":720,"target":34962,"byteStride":12},{"buffer":0,"byteOffset":23368,"byteLength":720,"target":34962,"byteStride":12},{"buffer":0,"byteOffset":24088,"byteLength":480,"target":34962,"byteStride":8},{"buffer":0,"byteOffset":24568,"byteLength":144,"target":34963},{"buffer":0,"byteOffset":24712,"byteLength":720,"target":34962,"byteStride":12},{"buffer":0,"byteOffset":25432,"byteLength":720,"target":34962,"byteStride":12},{"buffer":0,"byteOffset":26152,"byteLength":480,"target":34962,"byteStride":8},{"buffer":0,"byteOffset":26632,"byteLength":144,"target":34963}],"buffers":[{"byteLength":26776,"uri":"data:application/octet-stream;base64,"}],"accessors":[{"bufferView":0,"componentType":5126,"count":310,"max":[0.53125,1.3125,0.53125],"min":[-0.53125,0.046875,-0.375],"type":"VEC3"},{"bufferView":1,"componentType":5126,"count":310,"max":[1,1,1],"min":[-1,-1,-1],"type":"VEC3"},{"bufferView":2,"componentType":5126,"count":310,"max":[0.84375,0.9093281030654907],"min":[0,0],"type":"VEC2"},{"bufferView":3,"componentType":5123,"count":456,"max":[309],"min":[0],"type":"SCALAR"},{"bufferView":4,"componentType":5126,"count":220,"max":[0.6374174952507019,0.4936387538909912,0.4002949893474579],"min":[-0.6374174952507019,-0.4417949914932251,-0.4950031340122223],"type":"VEC3"},{"bufferView":5,"componentType":5126,"count":220,"max":[1,1,1],"min":[-1,-1,-0.9961947202682495],"type":"VEC3"},{"bufferView":6,"componentType":5126,"count":220,"max":[0.859375,0.8828125],"min":[0,0],"type":"VEC2"},{"bufferView":7,"componentType":5123,"count":324,"max":[219],"min":[0],"type":"SCALAR"},{"bufferView":8,"componentType":5126,"count":60,"max":[0.028418749570846558,0.0625,-0.4329949915409088],"min":[-0.21591874957084656,0,-0.6579949855804443],"type":"VEC3"},{"bufferView":9,"componentType":5126,"count":60,"max":[0.8788110017776489,1,1],"min":[-0.8788110017776489,-1,-1],"type":"VEC3"},{"bufferView":10,"componentType":5126,"count":60,"max":[0.875,0.859375],"min":[0.546875,0.234375],"type":"VEC2"},{"bufferView":11,"componentType":5123,"count":72,"max":[59],"min":[0],"type":"SCALAR"},{"bufferView":12,"componentType":5126,"count":60,"max":[0.028418749570846558,0.0625,-0.4329949915409088],"min":[-0.21591874957084656,0,-0.6579949855804443],"type":"VEC3"},{"bufferView":13,"componentType":5126,"count":60,"max":[0.8788110017776489,1,1],"min":[-0.8788110017776489,-1,-1],"type":"VEC3"},{"bufferView":14,"componentType":5126,"count":60,"max":[0.890625,0.875],"min":[0,0],"type":"VEC2"},{"bufferView":15,"componentType":5123,"count":72,"max":[59],"min":[0],"type":"SCALAR"},{"bufferView":16,"componentType":5126,"count":60,"max":[0.028418749570846558,0.0625,-0.4329949915409088],"min":[-0.21591874957084656,0,-0.6579949855804443],"type":"VEC3"},{"bufferView":17,"componentType":5126,"count":60,"max":[0.8788110017776489,1,1],"min":[-0.8788110017776489,-1,-1],"type":"VEC3"},{"bufferView":18,"componentType":5126,"count":60,"max":[0.890625,0.8374999761581421],"min":[0.09445781260728836,0.3968750238418579],"type":"VEC2"},{"bufferView":19,"componentType":5123,"count":72,"max":[59],"min":[0],"type":"SCALAR"},{"bufferView":20,"componentType":5126,"count":60,"max":[0.028418749570846558,0.0625,-0.4329949915409088],"min":[-0.21591874957084656,0,-0.6579949855804443],"type":"VEC3"},{"bufferView":21,"componentType":5126,"count":60,"max":[0.8788110017776489,1,1],"min":[-0.8788110017776489,-1,-1],"type":"VEC3"},{"bufferView":22,"componentType":5126,"count":60,"max":[0.890625,0.875],"min":[0.09375,0.09375],"type":"VEC2"},{"bufferView":23,"componentType":5123,"count":72,"max":[59],"min":[0],"type":"SCALAR"}],"materials":[{"pbrMetallicRoughness":{"metallicFactor":0,"roughnessFactor":1,"baseColorTexture":{"index":0}},"alphaMode":"MASK","alphaCutoff":0.05,"doubleSided":true}],"textures":[{"sampler":0,"source":0,"name":"spinnyChair"}],"samplers":[{"magFilter":9728,"minFilter":9728,"wrapS":33071,"wrapT":33071}],"images":[{"mimeType":"image/png","uri":"data:image/png;base64,"}],"meshes":[{"primitives":[{"mode":4,"attributes":{"POSITION":0,"NORMAL":1,"TEXCOORD_0":2},"indices":3,"material":0}]},{"primitives":[{"mode":4,"attributes":{"POSITION":4,"NORMAL":5,"TEXCOORD_0":6},"indices":7,"material":0}]},{"primitives":[{"mode":4,"attributes":{"POSITION":8,"NORMAL":9,"TEXCOORD_0":10},"indices":11,"material":0}]},{"primitives":[{"mode":4,"attributes":{"POSITION":12,"NORMAL":13,"TEXCOORD_0":14},"indices":15,"material":0}]},{"primitives":[{"mode":4,"attributes":{"POSITION":16,"NORMAL":17,"TEXCOORD_0":18},"indices":19,"material":0}]},{"primitives":[{"mode":4,"attributes":{"POSITION":20,"NORMAL":21,"TEXCOORD_0":22},"indices":23,"material":0}]}]}