{"asset":{"version":"2.0","generator":"Blockbench 4.12.2 glTF exporter"},"scenes":[{"nodes":[4],"name":"blockbench_export"}],"scene":0,"nodes":[{"translation":[0,-0.0625,0.8125],"name":"cuboid","mesh":0},{"name":"Toaster","mesh":1},{"rotation":[-0.10204806190910085,-0.03290461100250894,0.14106036411594636,0.9841775517206469],"translation":[0.25,1.4375,0.0625],"name":"Toast","mesh":2},{"translation":[-0.25,0.875,0.0625],"name":"Toast","mesh":3},{"children":[0,1,2,3]}],"bufferViews":[{"buffer":0,"byteOffset":0,"byteLength":288,"target":34962,"byteStride":12},{"buffer":0,"byteOffset":288,"byteLength":288,"target":34962,"byteStride":12},{"buffer":0,"byteOffset":576,"byteLength":192,"target":34962,"byteStride":8},{"buffer":0,"byteOffset":768,"byteLength":72,"target":34963},{"buffer":0,"byteOffset":840,"byteLength":1680,"target":34962,"byteStride":12},{"buffer":0,"byteOffset":2520,"byteLength":1680,"target":34962,"byteStride":12},{"buffer":0,"byteOffset":4200,"byteLength":1120,"target":34962,"byteStride":8},{"buffer":0,"byteOffset":5320,"byteLength":408,"target":34963},{"buffer":0,"byteOffset":5728,"byteLength":1632,"target":34962,"byteStride":12},{"buffer":0,"byteOffset":7360,"byteLength":1632,"target":34962,"byteStride":12},{"buffer":0,"byteOffset":8992,"byteLength":1088,"target":34962,"byteStride":8},{"buffer":0,"byteOffset":10080,"byteLength":372,"target":34963},{"buffer":0,"byteOffset":10452,"byteLength":1632,"target":34962,"byteStride":12},{"buffer":0,"byteOffset":12084,"byteLength":1632,"target":34962,"byteStride":12},{"buffer":0,"byteOffset":13716,"byteLength":1088,"target":34962,"byteStride":8},{"buffer":0,"byteOffset":14804,"byteLength":372,"target":34963}],"buffers":[{"byteLength":15176,"uri":"data:application/octet-stream;base64,"}],"accessors":[{"bufferView":0,"componentType":5126,"count":24,"max":[0.25,0.5,0.25],"min":[-0.25,0.3125,-0.25],"type":"VEC3"},{"bufferView":1,"componentType":5126,"count":24,"max":[1,1,1],"min":[-1,-1,-1],"type":"VEC3"},{"bufferView":2,"componentType":5126,"count":24,"max":[0.5703125,0.5234375],"min":[0.359375,0.1796875],"type":"VEC2"},{"bufferView":3,"componentType":5123,"count":36,"max":[23],"min":[0],"type":"SCALAR"},{"bufferView":4,"componentType":5126,"count":140,"max":[0.75,1.375,0.9375],"min":[-0.75,0,-0.9375],"type":"VEC3"},{"bufferView":5,"componentType":5126,"count":140,"max":[1,1,1],"min":[-1,-1,-1],"type":"VEC3"},{"bufferView":6,"componentType":5126,"count":140,"max":[0.703125,0.6355351209640503],"min":[0,0],"type":"VEC2"},{"bufferView":7,"componentType":5123,"count":204,"max":[139],"min":[0],"type":"SCALAR"},{"bufferView":8,"componentType":5126,"count":136,"max":[0.0625,0.7671874761581421,0.375],"min":[-0.0625,-0.3125,-0.5625],"type":"VEC3"},{"bufferView":9,"componentType":5126,"count":136,"max":[1,1,1],"min":[-1,-1,-1],"type":"VEC3"},{"bufferView":10,"componentType":5126,"count":136,"max":[0.5234375,0.57123202085495],"min":[0,0.2109375],"type":"VEC2"},{"bufferView":11,"componentType":5123,"count":186,"max":[135],"min":[0],"type":"SCALAR"},{"bufferView":12,"componentType":5126,"count":136,"max":[0.0625,0.7671874761581421,0.375],"min":[-0.0625,-0.3125,-0.5625],"type":"VEC3"},{"bufferView":13,"componentType":5126,"count":136,"max":[1,1,1],"min":[-1,-1,-1],"type":"VEC3"},{"bufferView":14,"componentType":5126,"count":136,"max":[0.5234375,0.57123202085495],"min":[0,0.2109375],"type":"VEC2"},{"bufferView":15,"componentType":5123,"count":186,"max":[135],"min":[0],"type":"SCALAR"}],"materials":[{"pbrMetallicRoughness":{"metallicFactor":0,"roughnessFactor":1,"baseColorTexture":{"index":0}},"alphaMode":"MASK","alphaCutoff":0.05,"doubleSided":true}],"textures":[{"sampler":0,"source":0,"name":"toaster.png"}],"samplers":[{"magFilter":9728,"minFilter":9728,"wrapS":33071,"wrapT":33071}],"images":[{"mimeType":"image/png","uri":"data:image/png;base64,"}],"meshes":[{"primitives":[{"mode":4,"attributes":{"POSITION":0,"NORMAL":1,"TEXCOORD_0":2},"indices":3,"material":0}]},{"primitives":[{"mode":4,"attributes":{"POSITION":4,"NORMAL":5,"TEXCOORD_0":6},"indices":7,"material":0}]},{"primitives":[{"mode":4,"attributes":{"POSITION":8,"NORMAL":9,"TEXCOORD_0":10},"indices":11,"material":0}]},{"primitives":[{"mode":4,"attributes":{"POSITION":12,"NORMAL":13,"TEXCOORD_0":14},"indices":15,"material":0}]}]}