{"asset":{"version":"2.0","generator":"Blockbench 4.12.2 glTF exporter"},"scenes":[{"nodes":[32],"name":"blockbench_export"}],"scene":0,"nodes":[{"rotation":[0,0,-0.19509032201612825,0.9807852804032304],"translation":[-0.03125000000000003,0,0],"name":"Hand","mesh":0},{"translation":[0,-0.125,0],"name":"Hand","children":[0]},{"rotation":[0,0,-0.19509032201612825,0.9807852804032304],"translation":[-0.03125000000000003,-0.125,0],"name":"Arm","mesh":1},{"translation":[-0.0025230873964992018,-0.3428037156032282,0.001588634920150156],"name":"LowerArm","children":[1,2]},{"rotation":[0,0,-0.19509032201612825,0.9807852804032304],"translation":[-0.03377308739649923,-0.1553037156032282,0.001588634920150156],"name":"Forearm","mesh":2},{"translation":[0.20564808739649926,0.2240537156032283,-0.032838634920150156],"name":"ArmL","children":[3,4]},{"rotation":[0,0,-0.19509032201612825,0.9807852804032304],"translation":[0.03125000000000003,0,0],"name":"Hand","mesh":3},{"translation":[0,-0.125,0],"name":"Hand2","children":[6]},{"rotation":[0,0,-0.19509032201612825,0.9807852804032304],"translation":[0.03125000000000003,-0.125,0],"name":"Arm","mesh":4},{"translation":[-0.0025230873964992018,-0.3428037156032282,0.001588634920150156],"name":"LowerArm2","children":[7,8]},{"rotation":[0,0,-0.19509032201612825,0.9807852804032304],"translation":[0.028726912603500826,-0.1553037156032282,0.001588634920150156],"name":"Forearm","mesh":5},{"rotation":[0,-1,0,6.123233995736766e-17],"translation":[-0.20685191260350094,0.2240537156032283,-0.032838634920150156],"name":"ArmR","children":[9,10]},{"translation":[-0.031249999999999997,0.006249999999999645,0],"name":"Head","mesh":6},{"translation":[0,0.018750000000000266,0],"name":"Head","children":[12]},{"translation":[-0.031249999999999997,0.25000000000000067,0],"name":"Neck","mesh":7},{"translation":[0.006250000000000103,0.2843749999999956,-0.031249999999999778],"name":"FullHead","children":[13,14]},{"translation":[0.2500000000000001,-0.8687499999999999,0],"name":"Chest","mesh":8},{"translation":[0.03125,0.8687499999999999,0],"name":"UpperBody","children":[5,11,15,16]},{"translation":[-0.03125000000000003,0,0],"name":"Foot","mesh":9},{"translation":[0,-0.16874999999999996,0.0062500000000000056],"name":"Foot","children":[18]},{"translation":[0.4062499999999998,-0.4375,0],"name":"Knee","mesh":10},{"translation":[0,-0.1875,0],"name":"LowerLeg","children":[19,20]},{"translation":[0.4062499999999998,-0.625,0],"name":"Upper Leg","mesh":11},{"translation":[0.125,0.5625,0],"name":"LegL","children":[21,22]},{"translation":[-0.03125000000000003,0,0],"name":"Foot","mesh":12},{"translation":[0,-0.16874999999999996,0.0062500000000000056],"name":"Foot2","children":[24]},{"translation":[0.4062499999999997,-0.4375,0],"name":"Knee","mesh":13},{"translation":[0,-0.1875,0],"name":"LowerLeg2","children":[25,26]},{"translation":[0.4062499999999997,-0.625,0],"name":"Upper Leg","mesh":14},{"translation":[-0.062499999999999944,0.5625,0],"name":"LegR","children":[27,28]},{"translation":[0.2812500000000001,0,0],"name":"Lower Body","mesh":15},{"name":"Player","children":[17,23,29,30]},{"children":[31]}],"bufferViews":[{"buffer":0,"byteOffset":0,"byteLength":384,"target":34962,"byteStride":12},{"buffer":0,"byteOffset":384,"byteLength":384,"target":34962,"byteStride":12},{"buffer":0,"byteOffset":768,"byteLength":256,"target":34962,"byteStride":8},{"buffer":0,"byteOffset":1024,"byteLength":84,"target":34963},{"buffer":0,"byteOffset":1108,"byteLength":288,"target":34962,"byteStride":12},{"buffer":0,"byteOffset":1396,"byteLength":288,"target":34962,"byteStride":12},{"buffer":0,"byteOffset":1684,"byteLength":192,"target":34962,"byteStride":8},{"buffer":0,"byteOffset":1876,"byteLength":72,"target":34963},{"buffer":0,"byteOffset":1948,"byteLength":288,"target":34962,"byteStride":12},{"buffer":0,"byteOffset":2236,"byteLength":288,"target":34962,"byteStride":12},{"buffer":0,"byteOffset":2524,"byteLength":192,"target":34962,"byteStride":8},{"buffer":0,"byteOffset":2716,"byteLength":72,"target":34963},{"buffer":0,"byteOffset":2788,"byteLength":384,"target":34962,"byteStride":12},{"buffer":0,"byteOffset":3172,"byteLength":384,"target":34962,"byteStride":12},{"buffer":0,"byteOffset":3556,"byteLength":256,"target":34962,"byteStride":8},{"buffer":0,"byteOffset":3812,"byteLength":84,"target":34963},{"buffer":0,"byteOffset":3896,"byteLength":288,"target":34962,"byteStride":12},{"buffer":0,"byteOffset":4184,"byteLength":288,"target":34962,"byteStride":12},{"buffer":0,"byteOffset":4472,"byteLength":192,"target":34962,"byteStride":8},{"buffer":0,"byteOffset":4664,"byteLength":72,"target":34963},{"buffer":0,"byteOffset":4736,"byteLength":288,"target":34962,"byteStride":12},{"buffer":0,"byteOffset":5024,"byteLength":288,"target":34962,"byteStride":12},{"buffer":0,"byteOffset":5312,"byteLength":192,"target":34962,"byteStride":8},{"buffer":0,"byteOffset":5504,"byteLength":72,"target":34963},{"buffer":0,"byteOffset":5576,"byteLength":912,"target":34962,"byteStride":12},{"buffer":0,"byteOffset":6488,"byteLength":912,"target":34962,"byteStride":12},{"buffer":0,"byteOffset":7400,"byteLength":608,"target":34962,"byteStride":8},{"buffer":0,"byteOffset":8008,"byteLength":216,"target":34963},{"buffer":0,"byteOffset":8224,"byteLength":672,"target":34962,"byteStride":12},{"buffer":0,"byteOffset":8896,"byteLength":672,"target":34962,"byteStride":12},{"buffer":0,"byteOffset":9568,"byteLength":448,"target":34962,"byteStride":8},{"buffer":0,"byteOffset":10016,"byteLength":168,"target":34963},{"buffer":0,"byteOffset":10184,"byteLength":1008,"target":34962,"byteStride":12},{"buffer":0,"byteOffset":11192,"byteLength":1008,"target":34962,"byteStride":12},{"buffer":0,"byteOffset":12200,"byteLength":672,"target":34962,"byteStride":8},{"buffer":0,"byteOffset":12872,"byteLength":240,"target":34963},{"buffer":0,"byteOffset":13112,"byteLength":456,"target":34962,"byteStride":12},{"buffer":0,"byteOffset":13568,"byteLength":456,"target":34962,"byteStride":12},{"buffer":0,"byteOffset":14024,"byteLength":304,"target":34962,"byteStride":8},{"buffer":0,"byteOffset":14328,"byteLength":96,"target":34963},{"buffer":0,"byteOffset":14424,"byteLength":288,"target":34962,"byteStride":12},{"buffer":0,"byteOffset":14712,"byteLength":288,"target":34962,"byteStride":12},{"buffer":0,"byteOffset":15000,"byteLength":192,"target":34962,"byteStride":8},{"buffer":0,"byteOffset":15192,"byteLength":72,"target":34963},{"buffer":0,"byteOffset":15264,"byteLength":324,"target":34962,"byteStride":12},{"buffer":0,"byteOffset":15588,"byteLength":324,"target":34962,"byteStride":12},{"buffer":0,"byteOffset":15912,"byteLength":216,"target":34962,"byteStride":8},{"buffer":0,"byteOffset":16128,"byteLength":80,"target":34963},{"buffer":0,"byteOffset":16208,"byteLength":456,"target":34962,"byteStride":12},{"buffer":0,"byteOffset":16664,"byteLength":456,"target":34962,"byteStride":12},{"buffer":0,"byteOffset":17120,"byteLength":304,"target":34962,"byteStride":8},{"buffer":0,"byteOffset":17424,"byteLength":96,"target":34963},{"buffer":0,"byteOffset":17520,"byteLength":288,"target":34962,"byteStride":12},{"buffer":0,"byteOffset":17808,"byteLength":288,"target":34962,"byteStride":12},{"buffer":0,"byteOffset":18096,"byteLength":192,"target":34962,"byteStride":8},{"buffer":0,"byteOffset":18288,"byteLength":72,"target":34963},{"buffer":0,"byteOffset":18360,"byteLength":324,"target":34962,"byteStride":12},{"buffer":0,"byteOffset":18684,"byteLength":324,"target":34962,"byteStride":12},{"buffer":0,"byteOffset":19008,"byteLength":216,"target":34962,"byteStride":8},{"buffer":0,"byteOffset":19224,"byteLength":80,"target":34963},{"buffer":0,"byteOffset":19304,"byteLength":1080,"target":34962,"byteStride":12},{"buffer":0,"byteOffset":20384,"byteLength":1080,"target":34962,"byteStride":12},{"buffer":0,"byteOffset":21464,"byteLength":720,"target":34962,"byteStride":8},{"buffer":0,"byteOffset":22184,"byteLength":264,"target":34963}],"buffers":[{"byteLength":22448,"uri":"data:application/octet-stream;base64,"}],"accessors":[{"bufferView":0,"componentType":5126,"count":32,"max":[0.08099588751792908,0.03129575774073601,0.044458791613578796],"min":[-0.04539826139807701,-0.12056786566972733,-0.047566045075654984],"type":"VEC3"},{"bufferView":1,"componentType":5126,"count":32,"max":[0.926855742931366,0.9212518334388733,0.9999787211418152],"min":[-0.9218510985374451,-0.9618850946426392,-0.9999827146530151],"type":"VEC3"},{"bufferView":2,"componentType":5126,"count":32,"max":[0.6324218511581421,0.623046875],"min":[0.00022112652368377894,0.20351314544677734],"type":"VEC2"},{"bufferView":3,"componentType":5123,"count":42,"max":[31],"min":[0],"type":"SCALAR"},{"bufferView":4,"componentType":5126,"count":24,"max":[0.04083675146102905,0.1602974385023117,0.04531250149011612],"min":[-0.100540891289711,-0.004324030131101608,-0.04843749850988388],"type":"VEC3"},{"bufferView":5,"componentType":5126,"count":24,"max":[0.9265720248222351,0.9357516765594482,0.9999817609786987],"min":[-0.9219992160797119,-0.9360898733139038,-0.9999785423278809],"type":"VEC3"},{"bufferView":6,"componentType":5126,"count":24,"max":[0.609375,0.615234375],"min":[0.0007157732034102082,0.09375],"type":"VEC2"},{"bufferView":7,"componentType":5123,"count":36,"max":[23],"min":[0],"type":"SCALAR"},{"bufferView":8,"componentType":5126,"count":24,"max":[0.10678305476903915,0.21696367859840393,0.05323758348822594],"min":[-0.1298549324274063,-0.16148000955581665,-0.055668748915195465],"type":"VEC3"},{"bufferView":9,"componentType":5126,"count":24,"max":[0.9288396239280701,0.9231104254722595,0.9995888471603394],"min":[-0.916339635848999,-0.9357516765594482,-0.9998679757118225],"type":"VEC3"},{"bufferView":10,"componentType":5126,"count":24,"max":[0.6052513718605042,0.4375],"min":[0.00030019538826309144,0.06342250108718872],"type":"VEC2"},{"bufferView":11,"componentType":5123,"count":36,"max":[23],"min":[0],"type":"SCALAR"},{"bufferView":12,"componentType":5126,"count":32,"max":[0.08099588751792908,0.03129575774073601,0.044458791613578796],"min":[-0.04539826139807701,-0.12056786566972733,-0.047566045075654984],"type":"VEC3"},{"bufferView":13,"componentType":5126,"count":32,"max":[0.926855742931366,0.9212518334388733,0.9999787211418152],"min":[-0.9218510985374451,-0.9618850946426392,-0.9999827146530151],"type":"VEC3"},{"bufferView":14,"componentType":5126,"count":32,"max":[0.6324218511581421,0.62109375],"min":[0.35959917306900024,0.0016273856163024902],"type":"VEC2"},{"bufferView":15,"componentType":5123,"count":42,"max":[31],"min":[0],"type":"SCALAR"},{"bufferView":16,"componentType":5126,"count":24,"max":[0.04083675146102905,0.1602974385023117,0.04531250149011612],"min":[-0.100540891289711,-0.004324030131101608,-0.04843749850988388],"type":"VEC3"},{"bufferView":17,"componentType":5126,"count":24,"max":[0.9265720248222351,0.9357516765594482,0.9999817609786987],"min":[-0.9219992160797119,-0.9360898733139038,-0.9999785423278809],"type":"VEC3"},{"bufferView":18,"componentType":5126,"count":24,"max":[0.6301435828208923,0.615234375],"min":[0.09375,0.3130844235420227],"type":"VEC2"},{"bufferView":19,"componentType":5123,"count":36,"max":[23],"min":[0],"type":"SCALAR"},{"bufferView":20,"componentType":5126,"count":24,"max":[0.10678305476903915,0.21696367859840393,0.05323758348822594],"min":[-0.1298549324274063,-0.16148000955581665,-0.055668748915195465],"type":"VEC3"},{"bufferView":21,"componentType":5126,"count":24,"max":[0.9288396239280701,0.9369394183158875,0.9995888471603394],"min":[-0.916339635848999,-0.9357516765594482,-0.9998679757118225],"type":"VEC3"},{"bufferView":22,"componentType":5126,"count":24,"max":[0.578125,0.59375],"min":[0.0625,0],"type":"VEC2"},{"bufferView":23,"componentType":5123,"count":36,"max":[23],"min":[0],"type":"SCALAR"},{"bufferView":24,"componentType":5126,"count":76,"max":[0.1015625,0.2593750059604645,0.12343750149011612],"min":[-0.1015625,0.0037455051206052303,-0.07968749850988388],"type":"VEC3"},{"bufferView":25,"componentType":5126,"count":76,"max":[1,1,1],"min":[-1,-1,-1],"type":"VEC3"},{"bufferView":26,"componentType":5126,"count":76,"max":[0.5351554751396179,0.595703125],"min":[0.0009764668648131192,0.0625],"type":"VEC2"},{"bufferView":27,"componentType":5123,"count":108,"max":[75],"min":[0],"type":"SCALAR"},{"bufferView":28,"componentType":5126,"count":56,"max":[0.08632812649011612,-0.22125449776649475,0.06588541716337204],"min":[-0.07786457985639572,-0.24943098425865173,-0.05937499925494194],"type":"VEC3"},{"bufferView":29,"componentType":5126,"count":56,"max":[0.9729657173156738,1,0.8880137801170349],"min":[-0.9780073165893555,-0.999805748462677,-0.8248994946479797],"type":"VEC3"},{"bufferView":30,"componentType":5126,"count":56,"max":[0.6534809470176697,0.658203125],"min":[0.25054365396499634,0.0954940915107727],"type":"VEC2"},{"bufferView":31,"componentType":5123,"count":84,"max":[55],"min":[0],"type":"SCALAR"},{"bufferView":32,"componentType":5126,"count":84,"max":[-0.12497959285974503,1.1648991107940674,0.054049283266067505],"min":[-0.4386959969997406,0.8468482494354248,-0.0825766921043396],"type":"VEC3"},{"bufferView":33,"componentType":5126,"count":84,"max":[0.9999887943267822,0.9986370801925659,0.996083676815033],"min":[-0.9999785423278809,-0.9998775720596313,-0.999890148639679],"type":"VEC3"},{"bufferView":34,"componentType":5126,"count":84,"max":[0.37808018922805786,0.6251614093780518],"min":[0.0008658355218358338,0],"type":"VEC2"},{"bufferView":35,"componentType":5123,"count":120,"max":[83],"min":[0],"type":"SCALAR"},{"bufferView":36,"componentType":5126,"count":38,"max":[0.0625,0.04374999925494194,0.15000000596046448],"min":[-0.0625,-0.20624999701976776,-0.06875000149011612],"type":"VEC3"},{"bufferView":37,"componentType":5126,"count":38,"max":[1,0.8944271802902222,0.9486833214759827],"min":[-1,-1,-1],"type":"VEC3"},{"bufferView":38,"componentType":5126,"count":38,"max":[0.578125,0.6314712762832642],"min":[0,0.203125],"type":"VEC2"},{"bufferView":39,"componentType":5123,"count":48,"max":[37],"min":[0],"type":"SCALAR"},{"bufferView":40,"componentType":5126,"count":24,"max":[-0.375,0.4452986419200897,0.06621527671813965],"min":[-0.5,0.25,-0.0625],"type":"VEC3"},{"bufferView":41,"componentType":5126,"count":24,"max":[1,0.999889612197876,0.9995821118354797],"min":[-0.9999997019767761,-0.8944271802902222,-1],"type":"VEC3"},{"bufferView":42,"componentType":5126,"count":24,"max":[0.578125,0.578125],"min":[0.375,0.15625],"type":"VEC2"},{"bufferView":43,"componentType":5123,"count":36,"max":[23],"min":[0],"type":"SCALAR"},{"bufferView":44,"componentType":5126,"count":27,"max":[-0.375,0.6778221130371094,0.07306443154811859],"min":[-0.5,0.43993908166885376,-0.0625],"type":"VEC3"},{"bufferView":45,"componentType":5126,"count":27,"max":[1,0.931766152381897,0.9995821118354797],"min":[-0.9999985098838806,-0.9994022250175476,-1],"type":"VEC3"},{"bufferView":46,"componentType":5126,"count":27,"max":[0.578125,0.5614937543869019],"min":[0.046875,0],"type":"VEC2"},{"bufferView":47,"componentType":5123,"count":39,"max":[26],"min":[0],"type":"SCALAR"},{"bufferView":48,"componentType":5126,"count":38,"max":[0.0625,0.04374999925494194,0.15000000596046448],"min":[-0.0625,-0.20624999701976776,-0.06875000149011612],"type":"VEC3"},{"bufferView":49,"componentType":5126,"count":38,"max":[1,0.8944271802902222,0.9486833214759827],"min":[-1,-1,-1],"type":"VEC3"},{"bufferView":50,"componentType":5126,"count":38,"max":[0.59375,0.6314712762832642],"min":[0.109375,0.046875],"type":"VEC2"},{"bufferView":51,"componentType":5123,"count":48,"max":[37],"min":[0],"type":"SCALAR"},{"bufferView":52,"componentType":5126,"count":24,"max":[-0.375,0.4452986419200897,0.06621527671813965],"min":[-0.5,0.25,-0.0625],"type":"VEC3"},{"bufferView":53,"componentType":5126,"count":24,"max":[1,0.999889612197876,0.9995821118354797],"min":[-0.9999997019767761,-0.8944271802902222,-1],"type":"VEC3"},{"bufferView":54,"componentType":5126,"count":24,"max":[0.578125,0.564453125],"min":[0,0],"type":"VEC2"},{"bufferView":55,"componentType":5123,"count":36,"max":[23],"min":[0],"type":"SCALAR"},{"bufferView":56,"componentType":5126,"count":27,"max":[-0.375,0.6778221130371094,0.07306443154811859],"min":[-0.5,0.43993908166885376,-0.0625],"type":"VEC3"},{"bufferView":57,"componentType":5126,"count":27,"max":[1,0.931766152381897,0.9995821118354797],"min":[-0.9999985098838806,-0.9994022250175476,-1],"type":"VEC3"},{"bufferView":58,"componentType":5126,"count":27,"max":[0.578125,0.5625],"min":[0.09472373127937317,0.21875],"type":"VEC2"},{"bufferView":59,"componentType":5123,"count":39,"max":[26],"min":[0],"type":"SCALAR"},{"bufferView":60,"componentType":5126,"count":90,"max":[-0.12499155849218369,0.8519755005836487,0.07326915115118027],"min":[-0.43808573484420776,0.5625,-0.0825766921043396],"type":"VEC3"},{"bufferView":61,"componentType":5126,"count":90,"max":[0.9999979138374329,0.9999645948410034,0.9965205192565918],"min":[-0.9999949336051941,-0.931766152381897,-0.9976611137390137],"type":"VEC3"},{"bufferView":62,"componentType":5126,"count":90,"max":[0.4623669683933258,0.322265625],"min":[0.07832497358322144,0],"type":"VEC2"},{"bufferView":63,"componentType":5123,"count":132,"max":[89],"min":[0],"type":"SCALAR"}],"materials":[{"pbrMetallicRoughness":{"metallicFactor":0,"roughnessFactor":1,"baseColorTexture":{"index":0}},"alphaMode":"MASK","alphaCutoff":0.05,"doubleSided":true}],"textures":[{"sampler":0,"source":0,"name":"texture"}],"samplers":[{"magFilter":9728,"minFilter":9728,"wrapS":33071,"wrapT":33071}],"images":[{"mimeType":"image/png","uri":"data:image/png;base64,"}],"meshes":[{"primitives":[{"mode":4,"attributes":{"POSITION":0,"NORMAL":1,"TEXCOORD_0":2},"indices":3,"material":0}]},{"primitives":[{"mode":4,"attributes":{"POSITION":4,"NORMAL":5,"TEXCOORD_0":6},"indices":7,"material":0}]},{"primitives":[{"mode":4,"attributes":{"POSITION":8,"NORMAL":9,"TEXCOORD_0":10},"indices":11,"material":0}]},{"primitives":[{"mode":4,"attributes":{"POSITION":12,"NORMAL":13,"TEXCOORD_0":14},"indices":15,"material":0}]},{"primitives":[{"mode":4,"attributes":{"POSITION":16,"NORMAL":17,"TEXCOORD_0":18},"indices":19,"material":0}]},{"primitives":[{"mode":4,"attributes":{"POSITION":20,"NORMAL":21,"TEXCOORD_0":22},"indices":23,"material":0}]},{"primitives":[{"mode":4,"attributes":{"POSITION":24,"NORMAL":25,"TEXCOORD_0":26},"indices":27,"material":0}]},{"primitives":[{"mode":4,"attributes":{"POSITION":28,"NORMAL":29,"TEXCOORD_0":30},"indices":31,"material":0}]},{"primitives":[{"mode":4,"attributes":{"POSITION":32,"NORMAL":33,"TEXCOORD_0":34},"indices":35,"material":0}]},{"primitives":[{"mode":4,"attributes":{"POSITION":36,"NORMAL":37,"TEXCOORD_0":38},"indices":39,"material":0}]},{"primitives":[{"mode":4,"attributes":{"POSITION":40,"NORMAL":41,"TEXCOORD_0":42},"indices":43,"material":0}]},{"primitives":[{"mode":4,"attributes":{"POSITION":44,"NORMAL":45,"TEXCOORD_0":46},"indices":47,"material":0}]},{"primitives":[{"mode":4,"attributes":{"POSITION":48,"NORMAL":49,"TEXCOORD_0":50},"indices":51,"material":0}]},{"primitives":[{"mode":4,"attributes":{"POSITION":52,"NORMAL":53,"TEXCOORD_0":54},"indices":55,"material":0}]},{"primitives":[{"mode":4,"attributes":{"POSITION":56,"NORMAL":57,"TEXCOORD_0":58},"indices":59,"material":0}]},{"primitives":[{"mode":4,"attributes":{"POSITION":60,"NORMAL":61,"TEXCOORD_0":62},"indices":63,"material":0}]}]}