# Made in Blockbench 4.12.3
mtllib IndustrialLight0.mtl

o Shell
v 0.3125 0.125 0.5
v 0.3125 0.125 -0.5
v 0.3125 0 0.5
v 0.3125 0 -0.5
v 0.25 0.375 0.4375
v 0.25 0.375 -0.4375
v 0.125 0.5 -0.3125
v 0.125 0.5 0.3125
v -0.3125 0.125 0.5
v -0.3125 0.125 -0.5
v -0.3125 0 0.5
v -0.3125 0 -0.5
v -0.25 0.375 0.4375
v -0.25 0.375 -0.4375
v -0.125 0.5 -0.3125
v -0.125 0.5 0.3125
vt 0.5625 0.796875
vt 0.3125 0.796875
vt 0.3125 0.765625
vt 0.5625 0.765625
vt 0.3125 0.75
vt 0.3125 1
vt 0.15625 1
vt 0.15625 0.75
vt 0.671875 0.859375
vt 0.671875 0.890625
vt 0.515625 0.890625
vt 0.515625 0.859375
vt 0.6875 0.859375
vt 0.53125 0.859375
vt 0.53125 0.828125
vt 0.6875 0.828125
vt 0.296875 0.75
vt 0.265625 0.70580625
vt 0.484375 0.70580625
vt 0.453125 0.75
vt 0.25 0.6413828125000001
vt 0.5 0.6413828125000001
vt 0.484375 0.70580625
vt 0.265625 0.70580625
vt 0.578125 0.51830625
vt 0.453125 0.51830625
vt 0.4375 0.45388281249999995
vt 0.59375 0.45388281249999995
vt 0.578125 0.51830625
vt 0.546875 0.5625
vt 0.484375 0.5625
vt 0.453125 0.51830625
vt 0.359375 0.50268125
vt 0.328125 0.546875
vt 0.265625 0.546875
vt 0.234375 0.50268125
vt 0.375 0.43825781249999995
vt 0.359375 0.50268125
vt 0.234375 0.50268125
vt 0.21875 0.43825781249999995
vt 0.375 0.390625
vt 0.4375 0.390625
vt 0.4375 0.546875
vt 0.375 0.546875
vt 0.71875 0.734375
vt 0.71875 0.765625
vt 0.46875 0.765625
vt 0.46875 0.734375
vt 0.328125 0.95580625
vt 0.546875 0.95580625
vt 0.515625 1
vt 0.359375 1
vt 0.328125 0.95580625
vt 0.3125 0.8913828125
vt 0.5625 0.8913828125
vt 0.546875 0.95580625
vt 0 0.75
vt 0.15625 0.75
vt 0.15625 1
vt 0 1
vn 1 0 0
vn 0 -1 0
vn 0 0 1
vn 0 0 -1
vn 0.7071067811865476 0.7071067811865476 0
vn 0.9701425001453319 0.24253562503633297 0
vn 0 0.24253562503633297 0.9701425001453319
vn 0 0.7071067811865476 0.7071067811865476
vn 0 0.7071067811865476 -0.7071067811865476
vn 0 0.24253562503633297 -0.9701425001453319
vn 0 1 0
vn -1 0 0
vn -0.7071067811865476 0.7071067811865476 0
vn -0.9701425001453319 0.24253562503633297 0
vn 0 1 0
usemtl m_c96343e0-751b-dd90-27b8-7b50ffc8bb58
f 2/1/1 1/2/1 3/3/1 4/4/1
f 4/5/2 3/6/2 11/7/2 12/8/2
f 3/9/3 1/10/3 9/11/3 11/12/3
f 10/13/4 2/14/4 4/15/4 12/16/4
f 8/17/5 5/18/5 6/19/5 7/20/5
f 1/21/6 2/22/6 6/23/6 5/24/6
f 5/25/7 13/26/7 9/27/7 1/28/7
f 5/29/8 8/30/8 16/31/8 13/32/8
f 14/33/9 15/34/9 7/35/9 6/36/9
f 10/37/10 14/38/10 6/39/10 2/40/10
f 16/41/11 8/42/11 7/43/11 15/44/11
f 11/45/12 9/46/12 10/47/12 12/48/12
f 14/49/13 13/50/13 16/51/13 15/52/13
f 14/53/14 10/54/14 9/55/14 13/56/14
f 9/57/15 1/58/15 2/59/15 10/60/15
o Light
v 0.25 0.15625 0.4375
v 0.25 0.15625 -0.4375
v 0.25 0.0625 0.4375
v 0.25 0.0625 -0.4375
v 0.2 0.34375 0.3828125
v 0.2 0.34375 -0.3828125
v 0.1 0.4375 -0.2734375
v 0.1 0.4375 0.2734375
v -0.25 0.15625 0.4375
v -0.25 0.15625 -0.4375
v -0.25 0.0625 0.4375
v -0.25 0.0625 -0.4375
v -0.2 0.34375 0.3828125
v -0.2 0.34375 -0.3828125
v -0.1 0.4375 -0.2734375
v -0.1 0.4375 0.2734375
vt 0 0.53125
vt 0.125 0.53125
vt 0.125 0.75
vt 0 0.75
vt 0.25 0.53125
vt 0.25 0.75
vt 0.125 0.75
vt 0.125 0.53125
vt 0.65625 0.796875
vt 0.65625 0.828125
vt 0.53125 0.828125
vt 0.53125 0.796875
vt 0.671875 1
vt 0.546875 1
vt 0.546875 0.96875
vt 0.671875 0.96875
vt 0.125 0.44640781249999995
vt 0.1125 0.49523593749999995
vt 0.0125 0.49523593749999995
vt 0 0.44640781249999995
vt 0.0375 0.53125
vt 0.0125 0.49523593749999995
vt 0.1125 0.49523593749999995
vt 0.0875 0.53125
vt 0.571875 0.671875
vt 0.521875 0.671875
vt 0.496875 0.6358609375
vt 0.596875 0.6358609375
vt 0.71875 0.734375
vt 0.5 0.734375
vt 0.5 0.703125
vt 0.71875 0.703125
vt 0.46875 0.55784375
vt 0.455078125 0.6063578125
vt 0.263671875 0.6063578125
vt 0.25 0.55784375
vt 0.455078125 0.6063578125
vt 0.427734375 0.640625
vt 0.291015625 0.640625
vt 0.263671875 0.6063578125
vt 0.609375 0.5870328125
vt 0.596875 0.6358609375
vt 0.496875 0.6358609375
vt 0.484375 0.5870328125
vt 0.125 0.53125
vt 0.125 0.390625
vt 0.171875 0.390625
vt 0.171875 0.53125
vt 0.71875 0.671875
vt 0.71875 0.703125
vt 0.5 0.703125
vt 0.5 0.671875
vt 0.517578125 0.8563578125
vt 0.326171875 0.8563578125
vt 0.3125 0.80784375
vt 0.53125 0.80784375
vt 0.490234375 0.890625
vt 0.353515625 0.890625
vt 0.326171875 0.8563578125
vt 0.517578125 0.8563578125
vn 0 1 0
vn 0 -1 0
vn 0 0 1
vn 0 0 -1
vn 0 0.27999999999999997 -0.9600000000000002
vn 0 0.7592566023652967 -0.6507913734559685
vn 0 0.7592566023652966 0.6507913734559685
vn 1 0 0
vn 0.9662349396012463 0.25766265056033233 0
vn 0.6839411288813299 0.7295372041400852 0
vn 0 0.27999999999999997 0.9600000000000002
vn 0 1 0
vn -1 0 0
vn -0.9662349396012463 0.2576626505603323 0
vn -0.6839411288813299 0.7295372041400852 0
usemtl m_c96343e0-751b-dd90-27b8-7b50ffc8bb58
f 25/61/16 17/62/16 18/63/16 26/64/16
f 20/65/17 19/66/17 27/67/17 28/68/17
f 19/69/18 17/70/18 25/71/18 27/72/18
f 26/73/19 18/74/19 20/75/19 28/76/19
f 26/77/20 30/78/20 22/79/20 18/80/20
f 23/81/21 22/82/21 30/83/21 31/84/21
f 24/85/22 32/86/22 29/87/22 21/88/22
f 18/89/23 17/90/23 19/91/23 20/92/23
f 18/93/24 22/94/24 21/95/24 17/96/24
f 22/97/25 23/98/25 24/99/25 21/100/25
f 17/101/26 21/102/26 29/103/26 25/104/26
f 31/105/27 32/106/27 24/107/27 23/108/27
f 27/109/28 25/110/28 26/111/28 28/112/28
f 29/113/29 30/114/29 26/115/29 25/116/29
f 32/117/30 31/118/30 30/119/30 29/120/30