{"asset":{"version":"2.0","generator":"Blockbench 4.12.4 glTF exporter"},"scenes":[{"nodes":[1],"name":"blockbench_export"}],"scene":0,"nodes":[{"name":"cuboid","mesh":0},{"children":[0]}],"bufferViews":[{"buffer":0,"byteOffset":0,"byteLength":14952,"target":34962,"byteStride":12},{"buffer":0,"byteOffset":14952,"byteLength":14952,"target":34962,"byteStride":12},{"buffer":0,"byteOffset":29904,"byteLength":9968,"target":34962,"byteStride":8},{"buffer":0,"byteOffset":39872,"byteLength":3732,"target":34963}],"buffers":[{"byteLength":43604,"uri":"data:application/octet-stream;base64,"}],"accessors":[{"bufferView":0,"componentType":5126,"count":1246,"max":[0.078125,2.375,1.4375],"min":[-1.5,0.0625,-1.4375],"type":"VEC3"},{"bufferView":1,"componentType":5126,"count":1246,"max":[1,1,1],"min":[-1,-1,-1],"type":"VEC3"},{"bufferView":2,"componentType":5126,"count":1246,"max":[0.49609375,0.5078125],"min":[0,0],"type":"VEC2"},{"bufferView":3,"componentType":5123,"count":1866,"max":[1245],"min":[0],"type":"SCALAR"}],"materials":[{"pbrMetallicRoughness":{"metallicFactor":0,"roughnessFactor":1,"baseColorTexture":{"index":0}},"alphaMode":"MASK","alphaCutoff":0.05,"doubleSided":true}],"textures":[{"sampler":0,"source":0,"name":"backupGenerator.png"}],"samplers":[{"magFilter":9728,"minFilter":9728,"wrapS":33071,"wrapT":33071}],"images":[{"mimeType":"image/png","uri":"data:image/png;base64,"}],"meshes":[{"primitives":[{"mode":4,"attributes":{"POSITION":0,"NORMAL":1,"TEXCOORD_0":2},"indices":3,"material":0}]}]}