# Made in Blockbench 4.12.2
mtllib pipeTurn90.mtl

o cylinder
v -6.938893903907228e-18 0.1875 1.3877787807814457e-17
v -6.938893903907228e-18 0.375 1.3877787807814457e-17
v 0.25888347648318444 0.1875 0.625
v 0.25888347648318444 0.375 0.625
v 0.625 0.1875 0.2588834764831845
v 0.625 0.375 0.2588834764831845
v 0.625 0.1875 -0.2588834764831844
v 0.625 0.375 -0.2588834764831844
v 0.25888347648318444 0.1875 -0.625
v 0.25888347648318444 0.375 -0.625
v -0.2588834764831843 0.1875 -0.625
v -0.2588834764831843 0.375 -0.625
v -0.6249999999999999 0.1875 -0.2588834764831848
v -0.6249999999999999 0.375 -0.2588834764831848
v -0.625 0.1875 0.2588834764831846
v -0.625 0.375 0.2588834764831846
v -0.2588834764831849 0.1875 0.6249999999999998
v -0.2588834764831849 0.375 0.6249999999999998
vt 0.4453125 0.66517265625
vt 0.39954765625 0.7109375
vt 0.3671875 0.6328125
vt 0.6015625 0.7578125
vt 0.6640625 0.7578125
vt 0.6640625 0.78125
vt 0.6015625 0.78125
vt 0.11048515625 0.4453125
vt 0.15625 0.49107734375
vt 0.078125 0.5234375
vt 0.4453125 0.60045234375
vt 0.4453125 0.66517265625
vt 0.3671875 0.6328125
vt 0.0703125 0.4140625
vt 0.1328125 0.4140625
vt 0.1328125 0.4375
vt 0.0703125 0.4375
vt 0.15625 0.49107734375
vt 0.15625 0.55579765625
vt 0.078125 0.5234375
vt 0.39954765625 0.5546875
vt 0.4453125 0.60045234375
vt 0.3671875 0.6328125
vt 0.6015625 0.7265625
vt 0.6640625 0.7265625
vt 0.6640625 0.75
vt 0.6015625 0.75
vt 0.15625 0.55579765625
vt 0.11048515625 0.6015625
vt 0.078125 0.5234375
vt 0.33482734375 0.5546875
vt 0.39954765625 0.5546875
vt 0.3671875 0.6328125
vt 0.5625 0.8203125
vt 0.625 0.8203125
vt 0.625 0.84375
vt 0.5625 0.84375
vt 0.11048515625 0.6015625
vt 0.04576484375 0.6015625
vt 0.078125 0.5234375
vt 0.2890625 0.60045234375
vt 0.33482734375 0.5546875
vt 0.3671875 0.6328125
vt 0 0.3828125
vt 0.0625 0.3828125
vt 0.0625 0.40625
vt 0 0.40625
vt 0.04576484375 0.6015625
vt 0 0.55579765625
vt 0.078125 0.5234375
vt 0.2890625 0.66517265625
vt 0.2890625 0.60045234375
vt 0.3671875 0.6328125
vt 0.5625 0.7890625
vt 0.625 0.7890625
vt 0.625 0.8125
vt 0.5625 0.8125
vt 0 0.55579765625
vt 0 0.49107734375
vt 0.078125 0.5234375
vt 0.33482734375 0.7109375
vt 0.2890625 0.66517265625
vt 0.3671875 0.6328125
vt 0.0703125 0.3828125
vt 0.1328125 0.3828125
vt 0.1328125 0.40625
vt 0.0703125 0.40625
vt 0 0.49107734375
vt 0.04576484375 0.4453125
vt 0.078125 0.5234375
vt 0.39954765625 0.7109375
vt 0.33482734375 0.7109375
vt 0.3671875 0.6328125
vt 0.2890625 0.390625
vt 0.3515625 0.390625
vt 0.3515625 0.4140625
vt 0.2890625 0.4140625
vt 0.04576484375 0.4453125
vt 0.11048515625 0.4453125
vt 0.078125 0.5234375
vn 0 -1 0
vn 0.7071067811865475 0 0.7071067811865476
vn 0 1 0
vn 0 -1 0
vn 1 0 0
vn 0 1 0
vn 0 -1 0
vn 0.7071067811865476 0 -0.7071067811865475
vn 0 1 0
vn 0 -1 0
vn 0 0 -1
vn 0 1 0
vn 0 -1 0
vn -0.7071067811865472 0 -0.707106781186548
vn 0 1 0
vn 0 -1 0
vn -1 0 -2.1442523866471426e-16
vn 0 1 0
vn 0 -1 0
vn -0.7071067811865476 0 0.7071067811865475
vn 0 1 0
vn 0 -1 0
vn -4.288504773294286e-16 0 1
vn 0 1 0
usemtl m_735e167f-27a2-f6c4-17ec-6081e5b09e9b
f 5/1/1 3/2/1 1/3/1
f 3/4/2 5/5/2 6/6/2 4/7/2
f 4/8/3 6/9/3 2/10/3
f 7/11/4 5/12/4 1/13/4
f 5/14/5 7/15/5 8/16/5 6/17/5
f 6/18/6 8/19/6 2/20/6
f 9/21/7 7/22/7 1/23/7
f 7/24/8 9/25/8 10/26/8 8/27/8
f 8/28/9 10/29/9 2/30/9
f 11/31/10 9/32/10 1/33/10
f 9/34/11 11/35/11 12/36/11 10/37/11
f 10/38/12 12/39/12 2/40/12
f 13/41/13 11/42/13 1/43/13
f 11/44/14 13/45/14 14/46/14 12/47/14
f 12/48/15 14/49/15 2/50/15
f 15/51/16 13/52/16 1/53/16
f 13/54/17 15/55/17 16/56/17 14/57/17
f 14/58/18 16/59/18 2/60/18
f 17/61/19 15/62/19 1/63/19
f 15/64/20 17/65/20 18/66/20 16/67/20
f 16/68/21 18/69/21 2/70/21
f 3/71/22 17/72/22 1/73/22
f 17/74/23 3/75/23 4/76/23 18/77/23
f 18/78/24 4/79/24 2/80/24
o cylinder
v 0 0 0
v 0.20710678118654754 0 0.5
v 0.20710678118654754 1.5 0.5
v 0.5 0 0.20710678118654757
v 0.5 1.5 0.20710678118654757
v 0.5 0 -0.20710678118654752
v 0.5 1.5 -0.20710678118654752
v 0.2071067811865476 0 -0.5
v 0.2071067811865476 1.5 -0.5
v -0.2071067811865475 0 -0.5000000000000001
v -0.2071067811865475 1.5 -0.5000000000000001
v -0.4999999999999999 0 -0.20710678118654785
v -0.49999999999999994 0 0.20710678118654766
v -0.20710678118654788 0 0.4999999999999999
v -0.20710678118654788 1.5 0.4999999999999999
v -1.70625 1.7062500000000025 0
v -0.20624999999999996 1.9133567811865495 0.5
v -1.70625 1.91335678118655 0.5
v -0.2062499999999999 2.206250000000002 0.20710678118654757
v -1.70625 2.2062500000000025 0.20710678118654757
v -0.2062499999999999 2.206250000000002 -0.20710678118654752
v -1.70625 2.2062500000000025 -0.20710678118654752
v -0.20624999999999996 1.9133567811865497 -0.5
v -1.70625 1.91335678118655 -0.5
v -1.70625 1.4991432188134548 -0.5000000000000001
v -0.5187500000000002 1.206250000000002 -0.20710678118654785
v -1.70625 1.2062500000000025 -0.20710678118654785
v -1.70625 1.2062500000000025 0.20710678118654766
v -1.70625 1.4991432188134546 0.4999999999999999
v -0.49999999999999994 1.1875 0.20710678118654766
vt 0.546875 0.54151328125
vt 0.51026328125 0.578125
vt 0.484375 0.515625
vt 0.5390625 0.2734375
vt 0.59375 0.2734375
vt 0.59375 0.4609375
vt 0.5390625 0.4609375
vt 0.546875 0.48973671875
vt 0.546875 0.54151328125
vt 0.484375 0.515625
vt 0.1640625 0.5625
vt 0.21875 0.5625
vt 0.21875 0.75
vt 0.1640625 0.75
vt 0.51026328125 0.453125
vt 0.546875 0.48973671875
vt 0.484375 0.515625
vt 0.5390625 0.5859375
vt 0.59375 0.5859375
vt 0.59375 0.7734375
vt 0.5390625 0.7734375
vt 0.45848671875 0.453125
vt 0.51026328125 0.453125
vt 0.484375 0.515625
vt 0.228071484375 0.53426796875
vt 0.279848046875 0.53426796875
vt 0.279848046875 0.72176796875
vt 0.228071484375 0.72176796875
vt 0.421875 0.48973671875
vt 0.45848671875 0.453125
vt 0.484375 0.515625
vt 0.22781640625 0.28125
vt 0.27959296875 0.28125
vt 0.28125 0.4320515625
vt 0.22781640625 0.46875
vt 0.421875 0.54151328125
vt 0.421875 0.48973671875
vt 0.484375 0.515625
vt 0.4140625 0.296875
vt 0.46875 0.296875
vt 0.46875 0.44296875
vt 0.4140625 0.4453125
vt 0.45848671875 0.578125
vt 0.421875 0.54151328125
vt 0.484375 0.515625
vt 0.4765625 0.5859375
vt 0.53125 0.5859375
vt 0.53125 0.7734375
vt 0.4765625 0.734375
vt 0.51026328125 0.578125
vt 0.45848671875 0.578125
vt 0.484375 0.515625
vt 0.188901953125 0.7578125
vt 0.240678515625 0.7578125
vt 0.240678515625 0.9453125
vt 0.188901953125 0.9453125
vt 0.43812655925257427 0.9482234155857736
vt 0.43812655925257427 0.9999999780857736
vt 0.25062655925257427 0.9999999780857736
vt 0.25062655925257427 0.9482234155857736
vt 0.40625 0.5102632812500001
vt 0.36963828125 0.546875
vt 0.34375 0.484375
vt 0.1640625 0.3671875
vt 0.21875 0.3671875
vt 0.21875 0.5546875
vt 0.1640625 0.5546875
vt 0.36963828125 0.546875
vt 0.31786171875 0.546875
vt 0.34375 0.484375
vt 0.35874844074742573 0.8984375
vt 0.35874844074742573 0.8466609375
vt 0.5462484407474257 0.8466609375
vt 0.5462484407474257 0.8984375
vt 0.31786171875 0.546875
vt 0.28125 0.5102632812500001
vt 0.34375 0.484375
vt 0.279741015625 0.7734375
vt 0.279848046875 0.72176796875
vt 0.467241015625 0.7216609375
vt 0.467241015625 0.7734375
vt 0.28125 0.5102632812500001
vt 0.28125 0.45848671875
vt 0.34375 0.484375
vt 0.3671875 0.8359375
vt 0.40614296875 0.78125
vt 0.5546875 0.78125
vt 0.5546875 0.83586171875
vt 0.28125 0.45848671875
vt 0.31786171875 0.421875
vt 0.34375 0.484375
vt 0.5570677957127131 0.9375
vt 0.5546875 0.8828125
vt 0.703125 0.8828125
vt 0.703125 0.9373976816857217
vt 0.31786171875 0.421875
vt 0.36963828125 0.421875
vt 0.34375 0.484375
vt 0.7055103795342665 0.9453125
vt 0.7421445278529015 0.9988345845585143
vt 0.5547515015440121 0.9988345845585143
vt 0.5547304721470985 0.9470845851456235
vt 0.36963828125 0.421875
vt 0.40625 0.45848671875
vt 0.34375 0.484375
vt 0.188901953125 0.9453125
vt 0.189008984375 0.99698203125
vt 0.0015089843749999943 0.99698203125
vt 0.0015089843749999943 0.94520546875
vt 0.40625 0.45848671875
vt 0.40625 0.5102632812500001
vt 0.34375 0.484375
vt 0.189008984375 0.99698203125
vt 0.188901953125 0.9453125
vt 0.240678515625 0.9453125
vt 0.43812655925257427 1
vt 0.43812655925257427 0.9482234155857736
vt 0.5014086159757052 0.9116875222065182
vt 0.5462484407474257 0.9375757924994096
vt 0.4765625 0.4453125
vt 0.4765625 0.3203125
vt 0.53125 0.3203125
vt 0.53125 0.4453125
vt 0.35874844074742573 0.8984375
vt 0.25062655925257427 0.8360132924994096
vt 0.29546638402429476 0.8101250222065182
vt 0.35874844074742573 0.8466609155857736
vt 0.279848046875 0.72176796875
vt 0.279741015625 0.7734375
vt 0.228071484375 0.72176796875
vn 0 -1 0
vn 0.7071067811865476 0 0.7071067811865476
vn 0 -1 0
vn 1 0 0
vn 0 -1 0
vn 0.7071067811865476 0 -0.7071067811865475
vn 0 -1 0
vn 2.6803154833089315e-16 0 -1
vn 0 -1 0
vn -0.7070640727616718 -0.010990633255362932 -0.7070640727616723
vn 0 -1 0
vn -1 0 -1.3401577416544645e-16
vn 0 -1 0
vn -0.7071067811865477 0 0.7071067811865475
vn 0 -1 0
vn -2.680315483308929e-16 0 1
vn 2.233596236090776e-16 0.7071067811865474 0.7071067811865477
vn -1 0 0
vn 2.9605947323337506e-16 1 0
vn -1 0 0
vn 1.1167981180453883e-16 0.7071067811865478 -0.7071067811865474
vn -1 0 0
vn -1.5350144726742474e-19 2.685874262446486e-16 -1
vn -1 0 0
vn -2.5355350226768555e-16 -0.7060733122457893 -0.7081387418679056
vn -1 0 0
vn -0.015526758395031991 -0.9988881234135925 -0.04451333145265853
vn -1 0 0
vn 0.00039093965286838845 -0.6840422487870176 0.7294422862986406
vn -1 0 0
vn -7.951775773426789e-32 -2.6858710807603966e-16 1
vn -1 0 0
vn -2.680315483308929e-16 -2.680315483308916e-16 1
vn 0.5773502691896275 0.5773502691896247 0.5773502691896251
vn 0.7071067811865486 0.7071067811865465 0
vn 0.5773502691896265 0.5773502691896247 -0.5773502691896263
vn 2.6803154833089315e-16 2.6803154833089177e-16 -1
usemtl m_735e167f-27a2-f6c4-17ec-6081e5b09e9b
f 22/81/25 20/82/25 19/83/25
f 20/84/26 22/85/26 23/86/26 21/87/26
f 24/88/27 22/89/27 19/90/27
f 22/91/28 24/92/28 25/93/28 23/94/28
f 26/95/29 24/96/29 19/97/29
f 24/98/30 26/99/30 27/100/30 25/101/30
f 28/102/31 26/103/31 19/104/31
f 26/105/32 28/106/32 29/107/32 27/108/32
f 30/109/33 28/110/33 19/111/33
f 28/112/34 30/113/34 44/114/34 29/115/34
f 31/116/35 30/117/35 19/118/35
f 30/119/36 31/120/36 48/121/36 44/122/36
f 32/123/37 31/124/37 19/125/37
f 31/126/38 32/127/38 33/128/38 48/129/38
f 20/130/39 32/131/39 19/132/39
f 32/133/40 20/134/40 21/135/40 33/136/40
f 35/137/41 37/138/41 38/139/41 36/140/41
f 36/141/42 38/142/42 34/143/42
f 37/144/43 39/145/43 40/146/43 38/147/43
f 38/148/44 40/149/44 34/150/44
f 39/151/45 41/152/45 42/153/45 40/154/45
f 40/155/46 42/156/46 34/157/46
f 41/158/47 29/159/47 43/160/47 42/161/47
f 42/162/48 43/163/48 34/164/48
f 29/165/49 44/166/49 45/167/49 43/168/49
f 43/169/50 45/170/50 34/171/50
f 44/172/51 48/173/51 46/174/51 45/175/51
f 45/176/52 46/177/52 34/178/52
f 48/179/53 33/180/53 47/181/53 46/182/53
f 46/183/54 47/184/54 34/185/54
f 33/186/55 35/187/55 36/188/55 47/189/55
f 47/190/56 36/191/56 34/192/56
f 35/193/57 33/194/57 21/195/57
f 37/196/58 35/197/58 21/198/58 23/199/58
f 37/200/59 23/201/59 25/202/59 39/203/59
f 39/204/60 25/205/60 27/206/60 41/207/60
f 29/208/61 41/209/61 27/210/61
o cylinder
v -1.4375 1.7187499999999993 1.3877787807814457e-17
v -1.25 1.7187499999999993 1.3877787807814457e-17
v -1.4375 1.459866523516815 0.625
v -1.25 1.459866523516815 0.625
v -1.4374999999999998 1.0937499999999993 0.2588834764831845
v -1.2499999999999998 1.0937499999999993 0.2588834764831845
v -1.4374999999999998 1.0937499999999993 -0.2588834764831844
v -1.2499999999999998 1.0937499999999993 -0.2588834764831844
v -1.4375 1.459866523516815 -0.625
v -1.25 1.459866523516815 -0.625
v -1.4375 1.9776334764831835 -0.625
v -1.25 1.9776334764831835 -0.625
v -1.4375000000000002 2.343749999999999 -0.2588834764831848
v -1.2500000000000002 2.343749999999999 -0.2588834764831848
v -1.4375000000000002 2.343749999999999 0.2588834764831846
v -1.2500000000000002 2.343749999999999 0.2588834764831846
v -1.4375 1.9776334764831842 0.6249999999999998
v -1.25 1.9776334764831842 0.6249999999999998
vt 0.15625 0.88392265625
vt 0.11048515625 0.9296875
vt 0.078125 0.8515625
vt 0.5546875 0.4921875
vt 0.6171875 0.4921875
vt 0.6171875 0.515625
vt 0.5546875 0.515625
vt 0.11048515625 0.609375
vt 0.15625 0.65513984375
vt 0.078125 0.6875
vt 0.15625 0.81920234375
vt 0.15625 0.88392265625
vt 0.078125 0.8515625
vt 0.25 0.9140625
vt 0.3125 0.9140625
vt 0.3125 0.9375
vt 0.25 0.9375
vt 0.15625 0.65513984375
vt 0.15625 0.71986015625
vt 0.078125 0.6875
vt 0.11048515625 0.7734375
vt 0.15625 0.81920234375
vt 0.078125 0.8515625
vt 0 0.4140625
vt 0.0625 0.4140625
vt 0.0625 0.4375
vt 0 0.4375
vt 0.15625 0.71986015625
vt 0.11048515625 0.765625
vt 0.078125 0.6875
vt 0.04576484375 0.7734375
vt 0.11048515625 0.7734375
vt 0.078125 0.8515625
vt 0.3125 0.78125
vt 0.375 0.78125
vt 0.375 0.8046875
vt 0.3125 0.8046875
vt 0.11048515625 0.765625
vt 0.04576484375 0.765625
vt 0.078125 0.6875
vt 0 0.81920234375
vt 0.04576484375 0.7734375
vt 0.078125 0.8515625
vt 0.5546875 0.5546875
vt 0.6171875 0.5546875
vt 0.6171875 0.578125
vt 0.5546875 0.578125
vt 0.04576484375 0.765625
vt 0 0.71986015625
vt 0.078125 0.6875
vt 0 0.88392265625
vt 0 0.81920234375
vt 0.078125 0.8515625
vt 0.3203125 0.9140625
vt 0.3828125 0.9140625
vt 0.3828125 0.9375
vt 0.3203125 0.9375
vt 0 0.71986015625
vt 0 0.65513984375
vt 0.078125 0.6875
vt 0.04576484375 0.9296875
vt 0 0.88392265625
vt 0.078125 0.8515625
vt 0.5546875 0.5234375
vt 0.6171875 0.5234375
vt 0.6171875 0.546875
vt 0.5546875 0.546875
vt 0 0.65513984375
vt 0.04576484375 0.609375
vt 0.078125 0.6875
vt 0.11048515625 0.9296875
vt 0.04576484375 0.9296875
vt 0.078125 0.8515625
vt 0.5546875 0.8515625
vt 0.6171875 0.8515625
vt 0.6171875 0.875
vt 0.5546875 0.875
vt 0.04576484375 0.609375
vt 0.11048515625 0.609375
vt 0.078125 0.6875
vn -1 -2.220446049250313e-16 0
vn 1.570092458683775e-16 -0.7071067811865475 0.7071067811865476
vn 1 2.220446049250313e-16 0
vn -1 -2.220446049250313e-16 0
vn 2.220446049250313e-16 -1 0
vn 1 2.220446049250313e-16 0
vn -1 -2.220446049250313e-16 0
vn 1.5700924586837752e-16 -0.7071067811865476 -0.7071067811865475
vn 1 2.220446049250313e-16 0
vn -1 -2.220446049250313e-16 0
vn 0 0 -1
vn 1 2.220446049250313e-16 0
vn -1 -2.220446049250313e-16 0
vn -1.5700924586837744e-16 0.7071067811865472 -0.707106781186548
vn 1 2.220446049250313e-16 0
vn -1 -2.220446049250313e-16 0
vn -2.220446049250313e-16 1 -2.1442523866471426e-16
vn 1 2.220446049250313e-16 0
vn -1 -2.220446049250313e-16 0
vn -1.5700924586837752e-16 0.7071067811865476 0.7071067811865475
vn 1 2.220446049250313e-16 0
vn -1 -2.220446049250313e-16 0
vn -9.522393481052407e-32 4.288504773294286e-16 1
vn 1 2.220446049250313e-16 0
usemtl m_735e167f-27a2-f6c4-17ec-6081e5b09e9b
f 53/211/62 51/212/62 49/213/62
f 51/214/63 53/215/63 54/216/63 52/217/63
f 52/218/64 54/219/64 50/220/64
f 55/221/65 53/222/65 49/223/65
f 53/224/66 55/225/66 56/226/66 54/227/66
f 54/228/67 56/229/67 50/230/67
f 57/231/68 55/232/68 49/233/68
f 55/234/69 57/235/69 58/236/69 56/237/69
f 56/238/70 58/239/70 50/240/70
f 59/241/71 57/242/71 49/243/71
f 57/244/72 59/245/72 60/246/72 58/247/72
f 58/248/73 60/249/73 50/250/73
f 61/251/74 59/252/74 49/253/74
f 59/254/75 61/255/75 62/256/75 60/257/75
f 60/258/76 62/259/76 50/260/76
f 63/261/77 61/262/77 49/263/77
f 61/264/78 63/265/78 64/266/78 62/267/78
f 62/268/79 64/269/79 50/270/79
f 65/271/80 63/272/80 49/273/80
f 63/274/81 65/275/81 66/276/81 64/277/81
f 64/278/82 66/279/82 50/280/82
f 51/281/83 65/282/83 49/283/83
f 65/284/84 51/285/84 52/286/84 66/287/84
f 66/288/85 52/289/85 50/290/85