# Made in Blockbench 4.12.2
mtllib Joystick.mtl

o stick button
v 0.11250000000000002 1.8874999999999995 0.11250000000000013
v 0.11250000000000002 1.8874999999999995 -0.1124999999999999
v 0.11250000000000002 1.6374999999999995 0.11250000000000013
v 0.11250000000000002 1.6374999999999995 -0.1124999999999999
v -0.11250000000000002 1.8874999999999995 0.11250000000000013
v -0.11250000000000002 1.8874999999999995 -0.1124999999999999
v -0.11250000000000002 1.6374999999999995 0.11250000000000013
v -0.11250000000000002 1.6374999999999995 -0.1124999999999999
vt 0.640625 0.78125
vt 0.578125 0.78125
vt 0.578125 0.71875
vt 0.640625 0.71875
vt 0.578125 0.640625
vt 0.640625 0.640625
vt 0.640625 0.703125
vt 0.578125 0.703125
vt 0.640625 0.5625
vt 0.640625 0.625
vt 0.578125 0.625
vt 0.578125 0.5625
vt 0.484375 0.359375
vt 0.484375 0.421875
vt 0.421875 0.421875
vt 0.421875 0.359375
vt 0.640625 0.546875
vt 0.578125 0.546875
vt 0.578125 0.484375
vt 0.640625 0.484375
vt 0.5625 0.359375
vt 0.5625 0.421875
vt 0.5 0.421875
vt 0.5 0.359375
vn 1 0 0
vn 0 1 0
vn 0 -1 0
vn 0 0 1
vn 0 0 -1
vn -1 0 0
usemtl m_0bdac808-4e88-216e-a25b-36dcf7baadfa
f 2/1/1 1/2/1 3/3/1 4/4/1
f 5/5/2 1/6/2 2/7/2 6/8/2
f 4/9/3 3/10/3 7/11/3 8/12/3
f 3/13/4 1/14/4 5/15/4 7/16/4
f 6/17/5 2/18/5 4/19/5 8/20/5
f 7/21/6 5/22/6 6/23/6 8/24/6
o stick
v 0.125 1.375 0.125
v 0.125 1.375 -0.125
v 0.125 0.4375 0.125
v 0.125 0.4375 -0.125
v 0.1875 1.4375 -0.1875
v 0.1875 1.4375 0.1875
v 0.1875 1.8125 0.1875
v 0.1875 1.8125 -0.1875
v -0.125 1.375 0.125
v -0.125 1.375 -0.125
v -0.125 0.4375 0.125
v -0.125 0.4375 -0.125
v -0.1875 1.4375 -0.1875
v -0.1875 1.4375 0.1875
v -0.1875 1.8125 0.1875
v -0.1875 1.8125 -0.1875
vt 0.40625 0.375
vt 0.40625 0.4375
vt 0.34375 0.4375
vt 0.34375 0.375
vt 0.0625 0.296875
vt 0.0625 0.53125
vt 0 0.53125
vt 0 0.296875
vt 0.53125 1
vt 0.46875 1
vt 0.46875 0.765625
vt 0.53125 0.765625
vt 0.75 0.875
vt 0.65625 0.875
vt 0.671875 0.859375
vt 0.734375 0.859375
vt 0.65625 0.84375
vt 0.671875 0.828125
vt 0.734375 0.828125
vt 0.75 0.84375
vt 0.5625 0.546875
vt 0.5625 0.640625
vt 0.46875 0.640625
vt 0.46875 0.546875
vt 0.46875 0.53125
vt 0.46875 0.4375
vt 0.5625 0.4375
vt 0.5625 0.53125
vt 0.640625 0.90625
vt 0.640625 1
vt 0.546875 1
vt 0.546875 0.90625
vt 0.140625 0.53125
vt 0.078125 0.53125
vt 0.078125 0.296875
vt 0.140625 0.296875
vt 0.75 0.8125
vt 0.65625 0.8125
vt 0.671875 0.796875
vt 0.734375 0.796875
vt 0.640625 0.796875
vt 0.640625 0.890625
vt 0.546875 0.890625
vt 0.546875 0.796875
vt 0.21875 0.296875
vt 0.21875 0.53125
vt 0.15625 0.53125
vt 0.15625 0.296875
vt 0.734375 0.765625
vt 0.75 0.78125
vt 0.65625 0.78125
vt 0.671875 0.765625
vt 0.328125 0.4375
vt 0.234375 0.4375
vt 0.234375 0.34375
vt 0.328125 0.34375
vn 0 -1 0
vn 0 0 1
vn 0 0 -1
vn 0 -0.7071067811865476 0.7071067811865476
vn 0 -0.7071067811865476 -0.7071067811865476
vn 0 0 1
vn 0 0 -1
vn 0 1 0
vn 1 0 0
vn 0.7071067811865476 -0.7071067811865476 0
vn 1 0 0
vn -1 0 0
vn -0.7071067811865476 -0.7071067811865476 0
vn -1 0 0
usemtl m_0bdac808-4e88-216e-a25b-36dcf7baadfa
f 12/25/7 11/26/7 19/27/7 20/28/7
f 11/29/8 9/30/8 17/31/8 19/32/8
f 18/33/9 10/34/9 12/35/9 20/36/9
f 14/37/10 22/38/10 17/39/10 9/40/10
f 13/41/11 10/42/11 18/43/11 21/44/11
f 14/45/12 15/46/12 23/47/12 22/48/12
f 16/49/13 13/50/13 21/51/13 24/52/13
f 15/53/14 16/54/14 24/55/14 23/56/14
f 10/57/15 9/58/15 11/59/15 12/60/15
f 13/61/16 14/62/16 9/63/16 10/64/16
f 13/65/17 16/66/17 15/67/17 14/68/17
f 19/69/18 17/70/18 18/71/18 20/72/18
f 17/73/19 22/74/19 21/75/19 18/76/19
f 23/77/20 24/78/20 21/79/20 22/80/20
o alt button
v -0.21875 0.5499999999999999 0.375
v -0.21875 0.5499999999999999 0.1875
v -0.21875 0.29999999999999993 0.375
v -0.21875 0.29999999999999993 0.1875
v -0.40625 0.5499999999999999 0.375
v -0.40625 0.5499999999999999 0.1875
v -0.40625 0.29999999999999993 0.375
v -0.40625 0.29999999999999993 0.1875
vt 0.625 0.46875
vt 0.578125 0.46875
vt 0.578125 0.40625
vt 0.625 0.40625
vt 0.09375 0.625
vt 0.140625 0.625
vt 0.140625 0.671875
vt 0.09375 0.671875
vt 0.6875 0.34375
vt 0.6875 0.390625
vt 0.640625 0.390625
vt 0.640625 0.34375
vt 0.625 0.328125
vt 0.625 0.390625
vt 0.578125 0.390625
vt 0.578125 0.328125
vt 0.390625 0.359375
vt 0.34375 0.359375
vt 0.34375 0.296875
vt 0.390625 0.296875
vt 0.6875 0.40625
vt 0.6875 0.46875
vt 0.640625 0.46875
vt 0.640625 0.40625
vn 1 0 0
vn 0 1 0
vn 0 -1 0
vn 0 0 1
vn 0 0 -1
vn -1 0 0
usemtl m_0bdac808-4e88-216e-a25b-36dcf7baadfa
f 26/81/21 25/82/21 27/83/21 28/84/21
f 29/85/22 25/86/22 26/87/22 30/88/22
f 28/89/23 27/90/23 31/91/23 32/92/23
f 27/93/24 25/94/24 29/95/24 31/96/24
f 30/97/25 26/98/25 28/99/25 32/100/25
f 31/101/26 29/102/26 30/103/26 32/104/26
o base
v 0.4375 0.5 0.4375
v 0.4375 0.5 -0.4375
v 0.4375 0 0.4375
v 0.4375 0 -0.4375
v 0.1875 0.5 0.1875
v 0.1875 0.5 -0.1875
v 0.1875 0.4687499999999999 0.1875
v 0.1875 0.4687499999999999 -0.1875
v -0.4375 0.5 0.4375
v -0.4375 0.5 -0.4375
v -0.4375 0 0.4375
v -0.4375 0 -0.4375
v -0.1875 0.5 0.1875
v -0.1875 0.5 -0.1875
v -0.1875 0.4687499999999999 0.1875
v -0.1875 0.4687499999999999 -0.1875
vt 0.21875 0.78125
vt 0.21875 1
vt 0 1
vt 0 0.78125
vt 0.453125 0.875
vt 0.453125 1
vt 0.234375 1
vt 0.234375 0.875
vt 0.453125 0.859375
vt 0.234375 0.859375
vt 0.234375 0.734375
vt 0.453125 0.734375
vt 0.65625 0.984375
vt 0.75 0.984375
vt 0.75 1
vt 0.65625 1
vt 0.0625 0.609375
vt 0 0.546875
vt 0.21875 0.546875
vt 0.15625 0.609375
vt 0.65625 0.96875
vt 0.65625 0.953125
vt 0.75 0.953125
vt 0.75 0.96875
vt 0.0625 0.703125
vt 0.15625 0.703125
vt 0.21875 0.765625
vt 0 0.765625
vt 0.453125 0.71875
vt 0.234375 0.71875
vt 0.234375 0.59375
vt 0.453125 0.59375
vt 0.65625 0.921875
vt 0.75 0.921875
vt 0.75 0.9375
vt 0.65625 0.9375
vt 0.15625 0.703125
vt 0.15625 0.609375
vt 0.21875 0.546875
vt 0.21875 0.765625
vt 0.46875 0.65625
vt 0.5625 0.65625
vt 0.5625 0.75
vt 0.46875 0.75
vt 0.453125 0.453125
vt 0.453125 0.578125
vt 0.234375 0.578125
vt 0.234375 0.453125
vt 0.65625 0.90625
vt 0.65625 0.890625
vt 0.75 0.890625
vt 0.75 0.90625
vt 0 0.546875
vt 0.0625 0.609375
vt 0.0625 0.703125
vt 0 0.765625
vn 0 -1 0
vn 0 0 1
vn 0 0 -1
vn 0 0 -1
vn 0 1 0
vn 0 0 1
vn 0 1 0
vn 1 0 0
vn -1 0 0
vn 0 1 0
vn 0 1 0
vn -1 0 0
vn 1 0 0
vn 0 1 0
usemtl m_0bdac808-4e88-216e-a25b-36dcf7baadfa
f 36/105/27 35/106/27 43/107/27 44/108/27
f 35/109/28 33/110/28 41/111/28 43/112/28
f 42/113/29 34/114/29 36/115/29 44/116/29
f 39/117/30 47/118/30 45/119/30 37/120/30
f 45/121/31 41/122/31 33/123/31 37/124/31
f 46/125/32 48/126/32 40/127/32 38/128/32
f 46/129/33 38/130/33 34/131/33 42/132/33
f 34/133/34 33/134/34 35/135/34 36/136/34
f 40/137/35 39/138/35 37/139/35 38/140/35
f 38/141/36 37/142/36 33/143/36 34/144/36
f 47/145/37 39/146/37 40/147/37 48/148/37
f 43/149/38 41/150/38 42/151/38 44/152/38
f 45/153/39 47/154/39 48/155/39 46/156/39
f 41/157/40 45/158/40 46/159/40 42/160/40