{"asset":{"version":"2.0","generator":"Blockbench 4.12.3 glTF exporter"},"scenes":[{"nodes":[3],"name":"blockbench_export"}],"scene":0,"nodes":[{"translation":[1.1875,0,-1.4375],"name":"cuboid","mesh":0},{"translation":[1.875,0.0625,0.125],"name":"Drawer","mesh":1},{"translation":[1.875,0.5625,0.125],"name":"Drawer","mesh":2},{"children":[0,1,2]}],"bufferViews":[{"buffer":0,"byteOffset":0,"byteLength":3792,"target":34962,"byteStride":12},{"buffer":0,"byteOffset":3792,"byteLength":3792,"target":34962,"byteStride":12},{"buffer":0,"byteOffset":7584,"byteLength":2528,"target":34962,"byteStride":8},{"buffer":0,"byteOffset":10112,"byteLength":936,"target":34963},{"buffer":0,"byteOffset":11048,"byteLength":3408,"target":34962,"byteStride":12},{"buffer":0,"byteOffset":14456,"byteLength":3408,"target":34962,"byteStride":12},{"buffer":0,"byteOffset":17864,"byteLength":2272,"target":34962,"byteStride":8},{"buffer":0,"byteOffset":20136,"byteLength":852,"target":34963},{"buffer":0,"byteOffset":20988,"byteLength":3408,"target":34962,"byteStride":12},{"buffer":0,"byteOffset":24396,"byteLength":3408,"target":34962,"byteStride":12},{"buffer":0,"byteOffset":27804,"byteLength":2272,"target":34962,"byteStride":8},{"buffer":0,"byteOffset":30076,"byteLength":852,"target":34963}],"buffers":[{"byteLength":30928,"uri":"data:application/octet-stream;base64,"}],"accessors":[{"bufferView":0,"componentType":5126,"count":316,"max":[-0.5,1.125,2.9375],"min":[-1.75,0,0.625],"type":"VEC3"},{"bufferView":1,"componentType":5126,"count":316,"max":[1,1,1],"min":[-1,-1,-1],"type":"VEC3"},{"bufferView":2,"componentType":5126,"count":316,"max":[0.78125,0.7578125],"min":[0,0],"type":"VEC2"},{"bufferView":3,"componentType":5123,"count":468,"max":[315],"min":[0],"type":"SCALAR"},{"bufferView":4,"componentType":5126,"count":284,"max":[-1.1875,0.4375,0.0625],"min":[-2.5,0,-0.8125],"type":"VEC3"},{"bufferView":5,"componentType":5126,"count":284,"max":[1,1,1],"min":[-1,-1,-1],"type":"VEC3"},{"bufferView":6,"componentType":5126,"count":284,"max":[0.78125,0.6484375],"min":[0,0],"type":"VEC2"},{"bufferView":7,"componentType":5123,"count":426,"max":[283],"min":[0],"type":"SCALAR"},{"bufferView":8,"componentType":5126,"count":284,"max":[-1.1875,0.4375,0.0625],"min":[-2.5,0,-0.8125],"type":"VEC3"},{"bufferView":9,"componentType":5126,"count":284,"max":[1,1,1],"min":[-1,-1,-1],"type":"VEC3"},{"bufferView":10,"componentType":5126,"count":284,"max":[0.78125,0.6484375],"min":[0.0234375,0.0703125],"type":"VEC2"},{"bufferView":11,"componentType":5123,"count":426,"max":[283],"min":[0],"type":"SCALAR"}],"materials":[{"pbrMetallicRoughness":{"metallicFactor":0,"roughnessFactor":1,"baseColorTexture":{"index":0}},"alphaMode":"MASK","alphaCutoff":0.05,"doubleSided":true}],"textures":[{"sampler":0,"source":0,"name":"texture"}],"samplers":[{"magFilter":9728,"minFilter":9728,"wrapS":33071,"wrapT":33071}],"images":[{"mimeType":"image/png","uri":"data:image/png;base64,"}],"meshes":[{"primitives":[{"mode":4,"attributes":{"POSITION":0,"NORMAL":1,"TEXCOORD_0":2},"indices":3,"material":0}]},{"primitives":[{"mode":4,"attributes":{"POSITION":4,"NORMAL":5,"TEXCOORD_0":6},"indices":7,"material":0}]},{"primitives":[{"mode":4,"attributes":{"POSITION":8,"NORMAL":9,"TEXCOORD_0":10},"indices":11,"material":0}]}]}