{"asset":{"version":"2.0","generator":"Blockbench 4.12.4 glTF exporter"},"scenes":[{"nodes":[14],"name":"blockbench_export"}],"scene":0,"nodes":[{"rotation":[0,-0.19509032201612825,0,0.9807852804032304],"translation":[0.25,-0.25,-0.125],"name":"Paper","mesh":0},{"rotation":[0,0.8968727415326883,0,0.44228869021900147],"translation":[-0.28125,-0.125,-0.34375],"name":"Floppi disc","mesh":1},{"rotation":[0,0.3826834323650898,0,0.9238795325112867],"translation":[-0.9375,-0.25,0.0625],"name":"PaperS","mesh":2},{"rotation":[0,-0.02181488503456112,0,0.9997620270799091],"translation":[0.25,-0.24375,-0.125],"name":"Paper","mesh":3},{"rotation":[0.22729202565684342,-0.6695807158758448,0.6695807158758449,0.22729202565684345],"name":"cone","mesh":4},{"rotation":[0.6963642403200189,-0.12278780396897282,0.12278780396897285,0.696364240320019],"translation":[0.875,0,0.4375],"name":"cylinder","mesh":5},{"rotation":[0.6963642403200189,-0.12278780396897282,0.12278780396897285,0.696364240320019],"translation":[0.875,0,0.4375],"name":"cone","mesh":6},{"rotation":[0.22729202565684342,-0.6695807158758448,0.6695807158758449,0.22729202565684345],"name":"cylinder","mesh":7},{"translation":[-0.390625,0.015625,0],"name":"A lot of pencils","children":[4,5,6,7]},{"rotation":[-0.6045139810697172,-0.3668280887435441,-0.36682808874354417,0.6045139810697173],"translation":[-0.046875,0.203125,0.75],"name":"cuboid","mesh":8},{"rotation":[-0.6045139810697172,-0.3668280887435441,-0.36682808874354417,0.6045139810697173],"translation":[-0.046875,0.234375,0.75],"name":"cuboid","mesh":9},{"rotation":[-0.6045139810697172,-0.3668280887435441,-0.36682808874354417,0.6045139810697173],"translation":[-0.046875,0.015625,0.75],"name":"cuboid","mesh":10},{"rotation":[0,-0.5187732581605214,0,0.8549118706729466],"translation":[-0.0625,0,0.75],"name":"cuboid","mesh":11},{"translation":[-0.6875,0,0.3125],"name":"Folder","children":[9,10,11,12]},{"children":[0,1,2,3,8,13]}],"bufferViews":[{"buffer":0,"byteOffset":0,"byteLength":288,"target":34962,"byteStride":12},{"buffer":0,"byteOffset":288,"byteLength":288,"target":34962,"byteStride":12},{"buffer":0,"byteOffset":576,"byteLength":192,"target":34962,"byteStride":8},{"buffer":0,"byteOffset":768,"byteLength":72,"target":34963},{"buffer":0,"byteOffset":840,"byteLength":288,"target":34962,"byteStride":12},{"buffer":0,"byteOffset":1128,"byteLength":288,"target":34962,"byteStride":12},{"buffer":0,"byteOffset":1416,"byteLength":192,"target":34962,"byteStride":8},{"buffer":0,"byteOffset":1608,"byteLength":72,"target":34963},{"buffer":0,"byteOffset":1680,"byteLength":288,"target":34962,"byteStride":12},{"buffer":0,"byteOffset":1968,"byteLength":288,"target":34962,"byteStride":12},{"buffer":0,"byteOffset":2256,"byteLength":192,"target":34962,"byteStride":8},{"buffer":0,"byteOffset":2448,"byteLength":72,"target":34963},{"buffer":0,"byteOffset":2520,"byteLength":288,"target":34962,"byteStride":12},{"buffer":0,"byteOffset":2808,"byteLength":288,"target":34962,"byteStride":12},{"buffer":0,"byteOffset":3096,"byteLength":192,"target":34962,"byteStride":8},{"buffer":0,"byteOffset":3288,"byteLength":72,"target":34963},{"buffer":0,"byteOffset":3360,"byteLength":432,"target":34962,"byteStride":12},{"buffer":0,"byteOffset":3792,"byteLength":432,"target":34962,"byteStride":12},{"buffer":0,"byteOffset":4224,"byteLength":288,"target":34962,"byteStride":8},{"buffer":0,"byteOffset":4512,"byteLength":72,"target":34963},{"buffer":0,"byteOffset":4584,"byteLength":720,"target":34962,"byteStride":12},{"buffer":0,"byteOffset":5304,"byteLength":720,"target":34962,"byteStride":12},{"buffer":0,"byteOffset":6024,"byteLength":480,"target":34962,"byteStride":8},{"buffer":0,"byteOffset":6504,"byteLength":144,"target":34963},{"buffer":0,"byteOffset":6648,"byteLength":432,"target":34962,"byteStride":12},{"buffer":0,"byteOffset":7080,"byteLength":432,"target":34962,"byteStride":12},{"buffer":0,"byteOffset":7512,"byteLength":288,"target":34962,"byteStride":8},{"buffer":0,"byteOffset":7800,"byteLength":72,"target":34963},{"buffer":0,"byteOffset":7872,"byteLength":720,"target":34962,"byteStride":12},{"buffer":0,"byteOffset":8592,"byteLength":720,"target":34962,"byteStride":12},{"buffer":0,"byteOffset":9312,"byteLength":480,"target":34962,"byteStride":8},{"buffer":0,"byteOffset":9792,"byteLength":144,"target":34963},{"buffer":0,"byteOffset":9936,"byteLength":288,"target":34962,"byteStride":12},{"buffer":0,"byteOffset":10224,"byteLength":288,"target":34962,"byteStride":12},{"buffer":0,"byteOffset":10512,"byteLength":192,"target":34962,"byteStride":8},{"buffer":0,"byteOffset":10704,"byteLength":72,"target":34963},{"buffer":0,"byteOffset":10776,"byteLength":288,"target":34962,"byteStride":12},{"buffer":0,"byteOffset":11064,"byteLength":288,"target":34962,"byteStride":12},{"buffer":0,"byteOffset":11352,"byteLength":192,"target":34962,"byteStride":8},{"buffer":0,"byteOffset":11544,"byteLength":72,"target":34963},{"buffer":0,"byteOffset":11616,"byteLength":288,"target":34962,"byteStride":12},{"buffer":0,"byteOffset":11904,"byteLength":288,"target":34962,"byteStride":12},{"buffer":0,"byteOffset":12192,"byteLength":192,"target":34962,"byteStride":8},{"buffer":0,"byteOffset":12384,"byteLength":72,"target":34963},{"buffer":0,"byteOffset":12456,"byteLength":288,"target":34962,"byteStride":12},{"buffer":0,"byteOffset":12744,"byteLength":288,"target":34962,"byteStride":12},{"buffer":0,"byteOffset":13032,"byteLength":192,"target":34962,"byteStride":8},{"buffer":0,"byteOffset":13224,"byteLength":72,"target":34963}],"buffers":[{"byteLength":13296,"uri":"data:application/octet-stream;base64,"}],"accessors":[{"bufferView":0,"componentType":5126,"count":24,"max":[0.265625,0.25312501192092896,0.34375],"min":[-0.265625,0.24687500298023224,-0.34375],"type":"VEC3"},{"bufferView":1,"componentType":5126,"count":24,"max":[1,1,1],"min":[-1,-1,-1],"type":"VEC3"},{"bufferView":2,"componentType":5126,"count":24,"max":[0.71875,0.46875],"min":[0,0],"type":"VEC2"},{"bufferView":3,"componentType":5123,"count":36,"max":[23],"min":[0],"type":"SCALAR"},{"bufferView":4,"componentType":5126,"count":24,"max":[0.125,0.12656250596046448,0.125],"min":[-0.125,0.12343750149011612,-0.125],"type":"VEC3"},{"bufferView":5,"componentType":5126,"count":24,"max":[1,1,1],"min":[-1,-1,-1],"type":"VEC3"},{"bufferView":6,"componentType":5126,"count":24,"max":[0.5625,0.5625],"min":[0,0],"type":"VEC2"},{"bufferView":7,"componentType":5123,"count":36,"max":[23],"min":[0],"type":"SCALAR"},{"bufferView":8,"componentType":5126,"count":24,"max":[0.265625,0.37812501192092896,0.34375],"min":[-0.265625,0.24687500298023224,-0.34375],"type":"VEC3"},{"bufferView":9,"componentType":5126,"count":24,"max":[1,1,1],"min":[-1,-1,-1],"type":"VEC3"},{"bufferView":10,"componentType":5126,"count":24,"max":[0.71875,0.53125],"min":[0,0],"type":"VEC2"},{"bufferView":11,"componentType":5123,"count":36,"max":[23],"min":[0],"type":"SCALAR"},{"bufferView":12,"componentType":5126,"count":24,"max":[0.265625,0.25312501192092896,0.34375],"min":[-0.265625,0.24687500298023224,-0.34375],"type":"VEC3"},{"bufferView":13,"componentType":5126,"count":24,"max":[1,1,1],"min":[-1,-1,-1],"type":"VEC3"},{"bufferView":14,"componentType":5126,"count":24,"max":[0.71875,0.46875],"min":[0,0],"type":"VEC2"},{"bufferView":15,"componentType":5123,"count":36,"max":[23],"min":[0],"type":"SCALAR"},{"bufferView":16,"componentType":5126,"count":36,"max":[0.01484999991953373,0.3125,0.015625],"min":[-0.01484999991953373,0.25,-0.015625],"type":"VEC3"},{"bufferView":17,"componentType":5126,"count":36,"max":[0.8831011652946472,0.24253562092781067,0.9701424837112427],"min":[-0.8831011652946472,-1,-0.9701424837112427],"type":"VEC3"},{"bufferView":18,"componentType":5126,"count":36,"max":[0.32400059700012207,0.359375],"min":[0.07694908231496811,0],"type":"VEC2"},{"bufferView":19,"componentType":5123,"count":36,"max":[35],"min":[0],"type":"SCALAR"},{"bufferView":20,"componentType":5126,"count":60,"max":[0.01484999991953373,0.25,0.015625],"min":[-0.01484999991953373,-0.25,-0.015625],"type":"VEC3"},{"bufferView":21,"componentType":5126,"count":60,"max":[0.9032074809074402,1,1],"min":[-0.9032074809074402,-1,-1],"type":"VEC3"},{"bufferView":22,"componentType":5126,"count":60,"max":[0.3277375102043152,0.53125],"min":[0,0],"type":"VEC2"},{"bufferView":23,"componentType":5123,"count":72,"max":[59],"min":[0],"type":"SCALAR"},{"bufferView":24,"componentType":5126,"count":36,"max":[0.01484999991953373,0.3125,0.015625],"min":[-0.01484999991953373,0.25,-0.015625],"type":"VEC3"},{"bufferView":25,"componentType":5126,"count":36,"max":[0.8831011652946472,0.24253562092781067,0.9701424837112427],"min":[-0.8831011652946472,-1,-0.9701424837112427],"type":"VEC3"},{"bufferView":26,"componentType":5126,"count":36,"max":[0.32400059700012207,0.359375],"min":[0.07694908231496811,0],"type":"VEC2"},{"bufferView":27,"componentType":5123,"count":36,"max":[35],"min":[0],"type":"SCALAR"},{"bufferView":28,"componentType":5126,"count":60,"max":[0.01484999991953373,0.25,0.015625],"min":[-0.01484999991953373,-0.25,-0.015625],"type":"VEC3"},{"bufferView":29,"componentType":5126,"count":60,"max":[0.9032074809074402,1,1],"min":[-0.9032074809074402,-1,-1],"type":"VEC3"},{"bufferView":30,"componentType":5126,"count":60,"max":[0.3277375102043152,0.53125],"min":[0,0],"type":"VEC2"},{"bufferView":31,"componentType":5123,"count":72,"max":[59],"min":[0],"type":"SCALAR"},{"bufferView":32,"componentType":5126,"count":24,"max":[0.40625,1,0.015625],"min":[-0.40625,0,-0.171875],"type":"VEC3"},{"bufferView":33,"componentType":5126,"count":24,"max":[1,0.18428853154182434,0.9828721880912781],"min":[-1,-1,-1],"type":"VEC3"},{"bufferView":34,"componentType":5126,"count":24,"max":[0.0625,0.0625],"min":[0,0],"type":"VEC2"},{"bufferView":35,"componentType":5123,"count":36,"max":[23],"min":[0],"type":"SCALAR"},{"bufferView":36,"componentType":5126,"count":24,"max":[0.5,1,0.015625],"min":[-0.5,0,-0.203125],"type":"VEC3"},{"bufferView":37,"componentType":5126,"count":24,"max":[1,1,0.9828721880912781],"min":[-1,-1,-0.9828721880912781],"type":"VEC3"},{"bufferView":38,"componentType":5126,"count":24,"max":[0.7880544066429138,0.546875],"min":[0,0],"type":"VEC2"},{"bufferView":39,"componentType":5123,"count":36,"max":[23],"min":[0],"type":"SCALAR"},{"bufferView":40,"componentType":5126,"count":24,"max":[0.5,1,0.015625],"min":[-0.5,0,-0.015625],"type":"VEC3"},{"bufferView":41,"componentType":5126,"count":24,"max":[1,1,1],"min":[-1,-1,-1],"type":"VEC3"},{"bufferView":42,"componentType":5126,"count":24,"max":[0.8125,0.671875],"min":[0.265625,0],"type":"VEC2"},{"bufferView":43,"componentType":5123,"count":36,"max":[23],"min":[0],"type":"SCALAR"},{"bufferView":44,"componentType":5126,"count":24,"max":[0.5,0.25,0.015625],"min":[-0.5,0,-0.015625],"type":"VEC3"},{"bufferView":45,"componentType":5126,"count":24,"max":[1,1,1],"min":[-1,-1,-1],"type":"VEC3"},{"bufferView":46,"componentType":5126,"count":24,"max":[0.8125,0.59375],"min":[0,0],"type":"VEC2"},{"bufferView":47,"componentType":5123,"count":36,"max":[23],"min":[0],"type":"SCALAR"}],"materials":[{"pbrMetallicRoughness":{"metallicFactor":0,"roughnessFactor":1,"baseColorTexture":{"index":0}},"alphaMode":"MASK","alphaCutoff":0.05,"doubleSided":true},{"pbrMetallicRoughness":{"metallicFactor":0,"roughnessFactor":1,"baseColorTexture":{"index":1}},"alphaMode":"MASK","alphaCutoff":0.05,"doubleSided":true},{"pbrMetallicRoughness":{"metallicFactor":0,"roughnessFactor":1,"baseColorTexture":{"index":2}},"alphaMode":"MASK","alphaCutoff":0.05,"doubleSided":true},{"pbrMetallicRoughness":{"metallicFactor":0,"roughnessFactor":1,"baseColorTexture":{"index":3}},"alphaMode":"MASK","alphaCutoff":0.05,"doubleSided":true},{"pbrMetallicRoughness":{"metallicFactor":0,"roughnessFactor":1,"baseColorTexture":{"index":4}},"alphaMode":"MASK","alphaCutoff":0.05,"doubleSided":true},{"pbrMetallicRoughness":{"metallicFactor":0,"roughnessFactor":1,"baseColorTexture":{"index":5}},"alphaMode":"MASK","alphaCutoff":0.05,"doubleSided":true},{"pbrMetallicRoughness":{"metallicFactor":0,"roughnessFactor":1},"alphaMode":"MASK","alphaCutoff":0.05,"doubleSided":true},{"pbrMetallicRoughness":{"metallicFactor":0,"roughnessFactor":1,"baseColorTexture":{"index":6}},"alphaMode":"MASK","alphaCutoff":0.05,"doubleSided":true}],"textures":[{"sampler":0,"source":0,"name":"texture"},{"sampler":1,"source":1,"name":"texture"},{"sampler":2,"source":2,"name":"texture"},{"sampler":3,"source":3,"name":"texture"},{"sampler":4,"source":4,"name":"texture"},{"sampler":5,"source":5,"name":"texture"},{"sampler":6,"source":6,"name":"texture"}],"samplers":[{"magFilter":9728,"minFilter":9728,"wrapS":33071,"wrapT":33071},{"magFilter":9728,"minFilter":9728,"wrapS":33071,"wrapT":33071},{"magFilter":9728,"minFilter":9728,"wrapS":33071,"wrapT":33071},{"magFilter":9728,"minFilter":9728,"wrapS":33071,"wrapT":33071},{"magFilter":9728,"minFilter":9728,"wrapS":33071,"wrapT":33071},{"magFilter":9728,"minFilter":9728,"wrapS":33071,"wrapT":33071},{"magFilter":9728,"minFilter":9728,"wrapS":33071,"wrapT":33071}],"images":[{"mimeType":"image/png","uri":"data:image/png;base64,"},{"mimeType":"image/png","uri":"data:image/png;base64,"},{"mimeType":"image/png","uri":"data:image/png;base64,"},{"mimeType":"image/png","uri":"data:image/png;base64,"},{"mimeType":"image/png","uri":"data:image/png;base64,"},{"mimeType":"image/png","uri":"data:image/png;base64,"},{"mimeType":"image/png","uri":"data:image/png;base64,"}],"meshes":[{"primitives":[{"mode":4,"attributes":{"POSITION":0,"NORMAL":1,"TEXCOORD_0":2},"indices":3,"material":0}]},{"primitives":[{"mode":4,"attributes":{"POSITION":4,"NORMAL":5,"TEXCOORD_0":6},"indices":7,"material":1}]},{"primitives":[{"mode":4,"attributes":{"POSITION":8,"NORMAL":9,"TEXCOORD_0":10},"indices":11,"material":2}]},{"primitives":[{"mode":4,"attributes":{"POSITION":12,"NORMAL":13,"TEXCOORD_0":14},"indices":15,"material":3}]},{"primitives":[{"mode":4,"attributes":{"POSITION":16,"NORMAL":17,"TEXCOORD_0":18},"indices":19,"material":4}]},{"primitives":[{"mode":4,"attributes":{"POSITION":20,"NORMAL":21,"TEXCOORD_0":22},"indices":23,"material":5}]},{"primitives":[{"mode":4,"attributes":{"POSITION":24,"NORMAL":25,"TEXCOORD_0":26},"indices":27,"material":5}]},{"primitives":[{"mode":4,"attributes":{"POSITION":28,"NORMAL":29,"TEXCOORD_0":30},"indices":31,"material":4}]},{"primitives":[{"mode":4,"attributes":{"POSITION":32,"NORMAL":33,"TEXCOORD_0":34},"indices":35,"material":6}]},{"primitives":[{"mode":4,"attributes":{"POSITION":36,"NORMAL":37,"TEXCOORD_0":38},"indices":39,"material":7}]},{"primitives":[{"mode":4,"attributes":{"POSITION":40,"NORMAL":41,"TEXCOORD_0":42},"indices":43,"material":7}]},{"primitives":[{"mode":4,"attributes":{"POSITION":44,"NORMAL":45,"TEXCOORD_0":46},"indices":47,"material":7}]}]}