{"asset":{"version":"2.0","generator":"Blockbench 4.12.3 glTF exporter"},"scenes":[{"nodes":[4],"name":"blockbench_export"}],"scene":0,"nodes":[{"translation":[0,-0.6875,0],"name":"cylinder","mesh":0},{"rotation":[0,0,-0.7071067811865475,0.7071067811865476],"translation":[-1.375,1.7187499999999993,0],"name":"cylinder","mesh":1},{"rotation":[0,-1,0,6.123233995736766e-17],"name":"cylinder","mesh":2},{"rotation":[0,0,-0.7071067811865475,0.7071067811865476],"translation":[1.3125,1.7187499999999993,0],"name":"cylinder","mesh":3},{"children":[0,1,2,3]}],"bufferViews":[{"buffer":0,"byteOffset":0,"byteLength":960,"target":34962,"byteStride":12},{"buffer":0,"byteOffset":960,"byteLength":960,"target":34962,"byteStride":12},{"buffer":0,"byteOffset":1920,"byteLength":640,"target":34962,"byteStride":8},{"buffer":0,"byteOffset":2560,"byteLength":192,"target":34963},{"buffer":0,"byteOffset":2752,"byteLength":960,"target":34962,"byteStride":12},{"buffer":0,"byteOffset":3712,"byteLength":960,"target":34962,"byteStride":12},{"buffer":0,"byteOffset":4672,"byteLength":640,"target":34962,"byteStride":8},{"buffer":0,"byteOffset":5312,"byteLength":192,"target":34963},{"buffer":0,"byteOffset":5504,"byteLength":2256,"target":34962,"byteStride":12},{"buffer":0,"byteOffset":7760,"byteLength":2256,"target":34962,"byteStride":12},{"buffer":0,"byteOffset":10016,"byteLength":1504,"target":34962,"byteStride":8},{"buffer":0,"byteOffset":11520,"byteLength":492,"target":34963},{"buffer":0,"byteOffset":12012,"byteLength":960,"target":34962,"byteStride":12},{"buffer":0,"byteOffset":12972,"byteLength":960,"target":34962,"byteStride":12},{"buffer":0,"byteOffset":13932,"byteLength":640,"target":34962,"byteStride":8},{"buffer":0,"byteOffset":14572,"byteLength":192,"target":34963}],"buffers":[{"byteLength":14764,"uri":"data:application/octet-stream;base64,"}],"accessors":[{"bufferView":0,"componentType":5126,"count":80,"max":[0.625,1.0625,0.625],"min":[-0.625,0.875,-0.625],"type":"VEC3"},{"bufferView":1,"componentType":5126,"count":80,"max":[1,1,1],"min":[-1,-1,-1],"type":"VEC3"},{"bufferView":2,"componentType":5126,"count":80,"max":[0.59375,0.6875],"min":[0,0],"type":"VEC2"},{"bufferView":3,"componentType":5123,"count":96,"max":[79],"min":[0],"type":"SCALAR"},{"bufferView":4,"componentType":5126,"count":80,"max":[0.625,0.125,0.625],"min":[-0.625,-0.0625,-0.625],"type":"VEC3"},{"bufferView":5,"componentType":5126,"count":80,"max":[1,1,1],"min":[-1,-1,-1],"type":"VEC3"},{"bufferView":6,"componentType":5126,"count":80,"max":[0.765625,0.71875],"min":[0,0.3203125],"type":"VEC2"},{"bufferView":7,"componentType":5123,"count":96,"max":[79],"min":[0],"type":"SCALAR"},{"bufferView":8,"componentType":5126,"count":188,"max":[1.7062499523162842,2.206249952316284,0.5],"min":[-1.7062499523162842,0,-0.5],"type":"VEC3"},{"bufferView":9,"componentType":5126,"count":188,"max":[1,1,1],"min":[-1,-1,-1],"type":"VEC3"},{"bufferView":10,"componentType":5126,"count":188,"max":[0.8656250238418579,0.8125],"min":[0,0],"type":"VEC2"},{"bufferView":11,"componentType":5123,"count":246,"max":[187],"min":[0],"type":"SCALAR"},{"bufferView":12,"componentType":5126,"count":80,"max":[0.625,0.125,0.625],"min":[-0.625,-0.0625,-0.625],"type":"VEC3"},{"bufferView":13,"componentType":5126,"count":80,"max":[1,1,1],"min":[-1,-1,-1],"type":"VEC3"},{"bufferView":14,"componentType":5126,"count":80,"max":[0.7734375,0.75],"min":[0.375,0],"type":"VEC2"},{"bufferView":15,"componentType":5123,"count":96,"max":[79],"min":[0],"type":"SCALAR"}],"materials":[{"pbrMetallicRoughness":{"metallicFactor":0,"roughnessFactor":1,"baseColorTexture":{"index":0}},"alphaMode":"MASK","alphaCutoff":0.05,"doubleSided":true}],"textures":[{"sampler":0,"source":0,"name":"pipeJunctionT.png"}],"samplers":[{"magFilter":9728,"minFilter":9728,"wrapS":33071,"wrapT":33071}],"images":[{"mimeType":"image/png","uri":"data:image/png;base64,"}],"meshes":[{"primitives":[{"mode":4,"attributes":{"POSITION":0,"NORMAL":1,"TEXCOORD_0":2},"indices":3,"material":0}]},{"primitives":[{"mode":4,"attributes":{"POSITION":4,"NORMAL":5,"TEXCOORD_0":6},"indices":7,"material":0}]},{"primitives":[{"mode":4,"attributes":{"POSITION":8,"NORMAL":9,"TEXCOORD_0":10},"indices":11,"material":0}]},{"primitives":[{"mode":4,"attributes":{"POSITION":12,"NORMAL":13,"TEXCOORD_0":14},"indices":15,"material":0}]}]}