{"asset":{"version":"2.0","generator":"Blockbench 4.12.3 glTF exporter"},"scenes":[{"nodes":[3],"name":"blockbench_export"}],"scene":0,"nodes":[{"translation":[0,-0.6875,0],"name":"cylinder","mesh":0},{"name":"cylinder","mesh":1},{"rotation":[0,0,-0.7071067811865475,0.7071067811865476],"translation":[-1.375,1.7187499999999993,0],"name":"cylinder","mesh":2},{"children":[0,1,2]}],"bufferViews":[{"buffer":0,"byteOffset":0,"byteLength":960,"target":34962,"byteStride":12},{"buffer":0,"byteOffset":960,"byteLength":960,"target":34962,"byteStride":12},{"buffer":0,"byteOffset":1920,"byteLength":640,"target":34962,"byteStride":8},{"buffer":0,"byteOffset":2560,"byteLength":192,"target":34963},{"buffer":0,"byteOffset":2752,"byteLength":1560,"target":34962,"byteStride":12},{"buffer":0,"byteOffset":4312,"byteLength":1560,"target":34962,"byteStride":12},{"buffer":0,"byteOffset":5872,"byteLength":1040,"target":34962,"byteStride":8},{"buffer":0,"byteOffset":6912,"byteLength":336,"target":34963},{"buffer":0,"byteOffset":7248,"byteLength":960,"target":34962,"byteStride":12},{"buffer":0,"byteOffset":8208,"byteLength":960,"target":34962,"byteStride":12},{"buffer":0,"byteOffset":9168,"byteLength":640,"target":34962,"byteStride":8},{"buffer":0,"byteOffset":9808,"byteLength":192,"target":34963}],"buffers":[{"byteLength":10000,"uri":"data:application/octet-stream;base64,"}],"accessors":[{"bufferView":0,"componentType":5126,"count":80,"max":[0.625,1.0625,0.625],"min":[-0.625,0.875,-0.625],"type":"VEC3"},{"bufferView":1,"componentType":5126,"count":80,"max":[1,1,1],"min":[-1,-1,-1],"type":"VEC3"},{"bufferView":2,"componentType":5126,"count":80,"max":[0.6640625,0.6171875],"min":[0,0.15625],"type":"VEC2"},{"bufferView":3,"componentType":5123,"count":96,"max":[79],"min":[0],"type":"SCALAR"},{"bufferView":4,"componentType":5126,"count":130,"max":[0.5,2.206249952316284,0.5],"min":[-1.7062499523162842,0,-0.5],"type":"VEC3"},{"bufferView":5,"componentType":5126,"count":130,"max":[1,1,1],"min":[-1,-1,-1],"type":"VEC3"},{"bufferView":6,"componentType":5126,"count":130,"max":[0.7421445250511169,0.7265625],"min":[0.0015089843655005097,0],"type":"VEC2"},{"bufferView":7,"componentType":5123,"count":168,"max":[129],"min":[0],"type":"SCALAR"},{"bufferView":8,"componentType":5126,"count":80,"max":[0.625,0.125,0.625],"min":[-0.625,-0.0625,-0.625],"type":"VEC3"},{"bufferView":9,"componentType":5126,"count":80,"max":[1,1,1],"min":[-1,-1,-1],"type":"VEC3"},{"bufferView":10,"componentType":5126,"count":80,"max":[0.6171875,0.5859375],"min":[0,0.0625],"type":"VEC2"},{"bufferView":11,"componentType":5123,"count":96,"max":[79],"min":[0],"type":"SCALAR"}],"materials":[{"pbrMetallicRoughness":{"metallicFactor":0,"roughnessFactor":1,"baseColorTexture":{"index":0}},"alphaMode":"MASK","alphaCutoff":0.05,"doubleSided":true}],"textures":[{"sampler":0,"source":0,"name":"pipeTurn90.png"}],"samplers":[{"magFilter":9728,"minFilter":9728,"wrapS":33071,"wrapT":33071}],"images":[{"mimeType":"image/png","uri":"data:image/png;base64,"}],"meshes":[{"primitives":[{"mode":4,"attributes":{"POSITION":0,"NORMAL":1,"TEXCOORD_0":2},"indices":3,"material":0}]},{"primitives":[{"mode":4,"attributes":{"POSITION":4,"NORMAL":5,"TEXCOORD_0":6},"indices":7,"material":0}]},{"primitives":[{"mode":4,"attributes":{"POSITION":8,"NORMAL":9,"TEXCOORD_0":10},"indices":11,"material":0}]}]}