{"asset":{"version":"2.0","generator":"Blockbench 4.12.3 glTF exporter"},"scenes":[{"nodes":[5],"name":"blockbench_export"}],"scene":0,"nodes":[{"translation":[0,-0.6875,0],"name":"cylinder","mesh":0},{"rotation":[0,0,-0.7071067811865475,0.7071067811865476],"translation":[-1.375,1.71875,0],"name":"cylinder","mesh":1},{"rotation":[0,0,-1,6.123233995736766e-17],"translation":[0,3.40625,0],"name":"cylinder","mesh":2},{"rotation":[0,0,-0.7071067811865475,0.7071067811865476],"translation":[1.3125,1.71875,0],"name":"cylinder","mesh":3},{"translation":[0,2.125,0],"name":"cylinder","mesh":4},{"children":[0,1,2,3,4]}],"bufferViews":[{"buffer":0,"byteOffset":0,"byteLength":960,"target":34962,"byteStride":12},{"buffer":0,"byteOffset":960,"byteLength":960,"target":34962,"byteStride":12},{"buffer":0,"byteOffset":1920,"byteLength":640,"target":34962,"byteStride":8},{"buffer":0,"byteOffset":2560,"byteLength":192,"target":34963},{"buffer":0,"byteOffset":2752,"byteLength":960,"target":34962,"byteStride":12},{"buffer":0,"byteOffset":3712,"byteLength":960,"target":34962,"byteStride":12},{"buffer":0,"byteOffset":4672,"byteLength":640,"target":34962,"byteStride":8},{"buffer":0,"byteOffset":5312,"byteLength":192,"target":34963},{"buffer":0,"byteOffset":5504,"byteLength":2784,"target":34962,"byteStride":12},{"buffer":0,"byteOffset":8288,"byteLength":2784,"target":34962,"byteStride":12},{"buffer":0,"byteOffset":11072,"byteLength":1856,"target":34962,"byteStride":8},{"buffer":0,"byteOffset":12928,"byteLength":600,"target":34963},{"buffer":0,"byteOffset":13528,"byteLength":960,"target":34962,"byteStride":12},{"buffer":0,"byteOffset":14488,"byteLength":960,"target":34962,"byteStride":12},{"buffer":0,"byteOffset":15448,"byteLength":640,"target":34962,"byteStride":8},{"buffer":0,"byteOffset":16088,"byteLength":192,"target":34963},{"buffer":0,"byteOffset":16280,"byteLength":960,"target":34962,"byteStride":12},{"buffer":0,"byteOffset":17240,"byteLength":960,"target":34962,"byteStride":12},{"buffer":0,"byteOffset":18200,"byteLength":640,"target":34962,"byteStride":8},{"buffer":0,"byteOffset":18840,"byteLength":192,"target":34963}],"buffers":[{"byteLength":19032,"uri":"data:application/octet-stream;base64,"}],"accessors":[{"bufferView":0,"componentType":5126,"count":80,"max":[0.625,1.0625,0.625],"min":[-0.625,0.875,-0.625],"type":"VEC3"},{"bufferView":1,"componentType":5126,"count":80,"max":[1,1,1],"min":[-1,-1,-1],"type":"VEC3"},{"bufferView":2,"componentType":5126,"count":80,"max":[0.796875,0.59375],"min":[0,0],"type":"VEC2"},{"bufferView":3,"componentType":5123,"count":96,"max":[79],"min":[0],"type":"SCALAR"},{"bufferView":4,"componentType":5126,"count":80,"max":[0.625,0.125,0.625],"min":[-0.625,-0.0625,-0.625],"type":"VEC3"},{"bufferView":5,"componentType":5126,"count":80,"max":[1,1,1],"min":[-1,-1,-1],"type":"VEC3"},{"bufferView":6,"componentType":5126,"count":80,"max":[0.875,0.8125],"min":[0,0.0625],"type":"VEC2"},{"bufferView":7,"componentType":5123,"count":96,"max":[79],"min":[0],"type":"SCALAR"},{"bufferView":8,"componentType":5126,"count":232,"max":[1.7062499523162842,3.40625,0.5],"min":[-1.7062499523162842,0,-0.5],"type":"VEC3"},{"bufferView":9,"componentType":5126,"count":232,"max":[1,1,1],"min":[-1,-1,-1],"type":"VEC3"},{"bufferView":10,"componentType":5126,"count":232,"max":[0.9503999948501587,0.90625],"min":[0,0.0012767910957336426],"type":"VEC2"},{"bufferView":11,"componentType":5123,"count":300,"max":[231],"min":[0],"type":"SCALAR"},{"bufferView":12,"componentType":5126,"count":80,"max":[0.625,0.125,0.625],"min":[-0.625,-0.0625,-0.625],"type":"VEC3"},{"bufferView":13,"componentType":5126,"count":80,"max":[1,1,1],"min":[-1,-1,-1],"type":"VEC3"},{"bufferView":14,"componentType":5126,"count":80,"max":[0.90625,0.8671875],"min":[0,0.09375],"type":"VEC2"},{"bufferView":15,"componentType":5123,"count":96,"max":[79],"min":[0],"type":"SCALAR"},{"bufferView":16,"componentType":5126,"count":80,"max":[0.625,1.0625,0.625],"min":[-0.625,0.875,-0.625],"type":"VEC3"},{"bufferView":17,"componentType":5126,"count":80,"max":[1,1,1],"min":[-1,-1,-1],"type":"VEC3"},{"bufferView":18,"componentType":5126,"count":80,"max":[0.921875,0.8828125],"min":[0.2265625,0],"type":"VEC2"},{"bufferView":19,"componentType":5123,"count":96,"max":[79],"min":[0],"type":"SCALAR"}],"materials":[{"pbrMetallicRoughness":{"metallicFactor":0,"roughnessFactor":1,"baseColorTexture":{"index":0}},"alphaMode":"MASK","alphaCutoff":0.05,"doubleSided":true}],"textures":[{"sampler":0,"source":0,"name":"pipeJunctionCross.png"}],"samplers":[{"magFilter":9728,"minFilter":9728,"wrapS":33071,"wrapT":33071}],"images":[{"mimeType":"image/png","uri":"data:image/png;base64,"}],"meshes":[{"primitives":[{"mode":4,"attributes":{"POSITION":0,"NORMAL":1,"TEXCOORD_0":2},"indices":3,"material":0}]},{"primitives":[{"mode":4,"attributes":{"POSITION":4,"NORMAL":5,"TEXCOORD_0":6},"indices":7,"material":0}]},{"primitives":[{"mode":4,"attributes":{"POSITION":8,"NORMAL":9,"TEXCOORD_0":10},"indices":11,"material":0}]},{"primitives":[{"mode":4,"attributes":{"POSITION":12,"NORMAL":13,"TEXCOORD_0":14},"indices":15,"material":0}]},{"primitives":[{"mode":4,"attributes":{"POSITION":16,"NORMAL":17,"TEXCOORD_0":18},"indices":19,"material":0}]}]}