{"asset":{"version":"2.0","generator":"Blockbench 4.12.3 glTF exporter"},"scenes":[{"nodes":[5],"name":"blockbench_export"}],"scene":0,"nodes":[{"name":"cylinder","mesh":0},{"translation":[0,-0.6875,0],"name":"cylinder","mesh":1},{"translation":[0,1.8125,0],"name":"cylinder","mesh":2},{"rotation":[0.7071067811865475,0,0,0.7071067811865476],"translation":[0,1.4375,-0.6875],"name":"cylinder","mesh":3},{"translation":[0,1.34375,-0.4375],"name":"cuboid","mesh":4},{"children":[0,1,2,3,4]}],"bufferViews":[{"buffer":0,"byteOffset":0,"byteLength":960,"target":34962,"byteStride":12},{"buffer":0,"byteOffset":960,"byteLength":960,"target":34962,"byteStride":12},{"buffer":0,"byteOffset":1920,"byteLength":640,"target":34962,"byteStride":8},{"buffer":0,"byteOffset":2560,"byteLength":192,"target":34963},{"buffer":0,"byteOffset":2752,"byteLength":960,"target":34962,"byteStride":12},{"buffer":0,"byteOffset":3712,"byteLength":960,"target":34962,"byteStride":12},{"buffer":0,"byteOffset":4672,"byteLength":640,"target":34962,"byteStride":8},{"buffer":0,"byteOffset":5312,"byteLength":192,"target":34963},{"buffer":0,"byteOffset":5504,"byteLength":960,"target":34962,"byteStride":12},{"buffer":0,"byteOffset":6464,"byteLength":960,"target":34962,"byteStride":12},{"buffer":0,"byteOffset":7424,"byteLength":640,"target":34962,"byteStride":8},{"buffer":0,"byteOffset":8064,"byteLength":192,"target":34963},{"buffer":0,"byteOffset":8256,"byteLength":960,"target":34962,"byteStride":12},{"buffer":0,"byteOffset":9216,"byteLength":960,"target":34962,"byteStride":12},{"buffer":0,"byteOffset":10176,"byteLength":640,"target":34962,"byteStride":8},{"buffer":0,"byteOffset":10816,"byteLength":192,"target":34963},{"buffer":0,"byteOffset":11008,"byteLength":288,"target":34962,"byteStride":12},{"buffer":0,"byteOffset":11296,"byteLength":288,"target":34962,"byteStride":12},{"buffer":0,"byteOffset":11584,"byteLength":192,"target":34962,"byteStride":8},{"buffer":0,"byteOffset":11776,"byteLength":72,"target":34963}],"buffers":[{"byteLength":11848,"uri":"data:application/octet-stream;base64,"}],"accessors":[{"bufferView":0,"componentType":5126,"count":80,"max":[0.5,3,0.5],"min":[-0.5,0,-0.5],"type":"VEC3"},{"bufferView":1,"componentType":5126,"count":80,"max":[1,1,1],"min":[-1,-1,-1],"type":"VEC3"},{"bufferView":2,"componentType":5126,"count":80,"max":[0.609375,0.796875],"min":[0,0],"type":"VEC2"},{"bufferView":3,"componentType":5123,"count":96,"max":[79],"min":[0],"type":"SCALAR"},{"bufferView":4,"componentType":5126,"count":80,"max":[0.625,1.0625,0.625],"min":[-0.625,0.875,-0.625],"type":"VEC3"},{"bufferView":5,"componentType":5126,"count":80,"max":[1,1,1],"min":[-1,-1,-1],"type":"VEC3"},{"bufferView":6,"componentType":5126,"count":80,"max":[0.546875,0.2890625],"min":[0,0],"type":"VEC2"},{"bufferView":7,"componentType":5123,"count":96,"max":[79],"min":[0],"type":"SCALAR"},{"bufferView":8,"componentType":5126,"count":80,"max":[0.625,1.0625,0.625],"min":[-0.625,0.875,-0.625],"type":"VEC3"},{"bufferView":9,"componentType":5126,"count":80,"max":[1,1,1],"min":[-1,-1,-1],"type":"VEC3"},{"bufferView":10,"componentType":5126,"count":80,"max":[0.640625,0.6015625],"min":[0,0],"type":"VEC2"},{"bufferView":11,"componentType":5123,"count":96,"max":[79],"min":[0],"type":"SCALAR"},{"bufferView":12,"componentType":5126,"count":80,"max":[0.5,0.125,0.5],"min":[-0.5,0,-0.5],"type":"VEC3"},{"bufferView":13,"componentType":5126,"count":80,"max":[1,1,1],"min":[-1,-1,-1],"type":"VEC3"},{"bufferView":14,"componentType":5126,"count":80,"max":[0.6484375,0.6328125],"min":[0.4609375,0.1328125],"type":"VEC2"},{"bufferView":15,"componentType":5123,"count":96,"max":[79],"min":[0],"type":"SCALAR"},{"bufferView":16,"componentType":5126,"count":24,"max":[0.09375,0.1875,0.03125],"min":[-0.09375,0,-0.28125],"type":"VEC3"},{"bufferView":17,"componentType":5126,"count":24,"max":[1,1,1],"min":[-1,-1,-1],"type":"VEC3"},{"bufferView":18,"componentType":5126,"count":24,"max":[0.4140625,0.6015625],"min":[0.0703125,0],"type":"VEC2"},{"bufferView":19,"componentType":5123,"count":36,"max":[23],"min":[0],"type":"SCALAR"}],"materials":[{"pbrMetallicRoughness":{"metallicFactor":0,"roughnessFactor":1,"baseColorTexture":{"index":0}},"alphaMode":"MASK","alphaCutoff":0.05,"doubleSided":true}],"textures":[{"sampler":0,"source":0,"name":"pipeValve.png"}],"samplers":[{"magFilter":9728,"minFilter":9728,"wrapS":33071,"wrapT":33071}],"images":[{"mimeType":"image/png","uri":"data:image/png;base64,"}],"meshes":[{"primitives":[{"mode":4,"attributes":{"POSITION":0,"NORMAL":1,"TEXCOORD_0":2},"indices":3,"material":0}]},{"primitives":[{"mode":4,"attributes":{"POSITION":4,"NORMAL":5,"TEXCOORD_0":6},"indices":7,"material":0}]},{"primitives":[{"mode":4,"attributes":{"POSITION":8,"NORMAL":9,"TEXCOORD_0":10},"indices":11,"material":0}]},{"primitives":[{"mode":4,"attributes":{"POSITION":12,"NORMAL":13,"TEXCOORD_0":14},"indices":15,"material":0}]},{"primitives":[{"mode":4,"attributes":{"POSITION":16,"NORMAL":17,"TEXCOORD_0":18},"indices":19,"material":0}]}]}