{"asset":{"version":"2.0","generator":"Blockbench 4.12.3 glTF exporter"},"scenes":[{"nodes":[17],"name":"blockbench_export"}],"scene":0,"nodes":[{"name":"cuboid","mesh":0},{"translation":[0,0.0625,0.375],"name":"Chair","mesh":1},{"name":"Seat","children":[1]},{"translation":[0,-0.3125,0.21875],"name":"Chair Base","mesh":2},{"translation":[0,0.4375,-0.09375],"name":"Chair","children":[2,3]},{"translation":[0,-0.3125,0.125],"name":"Antenna Base","mesh":3},{"translation":[0.03125,0.3125,0.25],"name":"Tall Antenna","mesh":4},{"translation":[0.025000000000000022,0.5625,0.0625],"name":"Antenna","mesh":5},{"translation":[-0.375,1.375,0.1875],"name":"Antennas","children":[5,6,7]},{"name":"Dish","mesh":6},{"name":"Dish","children":[9]},{"translation":[0.03125,-0.25,0.03125],"name":"cuboid","mesh":7},{"translation":[0.34375,1.4375,0.09375],"name":"DishAndStand","children":[10,11]},{"translation":[0,0.375,1.6875],"name":"Back part","mesh":8},{"rotation":[0,-1,0,6.123233995736766e-17],"translation":[0,0.75,-0.5],"name":"Cockpit","mesh":9},{"name":"Basic Shell","mesh":10},{"translation":[0,0.5,-0.1875],"name":"Boat","children":[4,8,12,13,14,15]},{"children":[0,16]}],"bufferViews":[{"buffer":0,"byteOffset":0,"byteLength":6336,"target":34962,"byteStride":12},{"buffer":0,"byteOffset":6336,"byteLength":6336,"target":34962,"byteStride":12},{"buffer":0,"byteOffset":12672,"byteLength":4224,"target":34962,"byteStride":8},{"buffer":0,"byteOffset":16896,"byteLength":1584,"target":34963},{"buffer":0,"byteOffset":18480,"byteLength":2232,"target":34962,"byteStride":12},{"buffer":0,"byteOffset":20712,"byteLength":2232,"target":34962,"byteStride":12},{"buffer":0,"byteOffset":22944,"byteLength":1488,"target":34962,"byteStride":8},{"buffer":0,"byteOffset":24432,"byteLength":540,"target":34963},{"buffer":0,"byteOffset":24972,"byteLength":288,"target":34962,"byteStride":12},{"buffer":0,"byteOffset":25260,"byteLength":288,"target":34962,"byteStride":12},{"buffer":0,"byteOffset":25548,"byteLength":192,"target":34962,"byteStride":8},{"buffer":0,"byteOffset":25740,"byteLength":72,"target":34963},{"buffer":0,"byteOffset":25812,"byteLength":288,"target":34962,"byteStride":12},{"buffer":0,"byteOffset":26100,"byteLength":288,"target":34962,"byteStride":12},{"buffer":0,"byteOffset":26388,"byteLength":192,"target":34962,"byteStride":8},{"buffer":0,"byteOffset":26580,"byteLength":72,"target":34963},{"buffer":0,"byteOffset":26652,"byteLength":1152,"target":34962,"byteStride":12},{"buffer":0,"byteOffset":27804,"byteLength":1152,"target":34962,"byteStride":12},{"buffer":0,"byteOffset":28956,"byteLength":768,"target":34962,"byteStride":8},{"buffer":0,"byteOffset":29724,"byteLength":288,"target":34963},{"buffer":0,"byteOffset":30012,"byteLength":576,"target":34962,"byteStride":12},{"buffer":0,"byteOffset":30588,"byteLength":576,"target":34962,"byteStride":12},{"buffer":0,"byteOffset":31164,"byteLength":384,"target":34962,"byteStride":8},{"buffer":0,"byteOffset":31548,"byteLength":144,"target":34963},{"buffer":0,"byteOffset":31692,"byteLength":1344,"target":34962,"byteStride":12},{"buffer":0,"byteOffset":33036,"byteLength":1344,"target":34962,"byteStride":12},{"buffer":0,"byteOffset":34380,"byteLength":896,"target":34962,"byteStride":8},{"buffer":0,"byteOffset":35276,"byteLength":336,"target":34963},{"buffer":0,"byteOffset":35612,"byteLength":288,"target":34962,"byteStride":12},{"buffer":0,"byteOffset":35900,"byteLength":288,"target":34962,"byteStride":12},{"buffer":0,"byteOffset":36188,"byteLength":192,"target":34962,"byteStride":8},{"buffer":0,"byteOffset":36380,"byteLength":72,"target":34963},{"buffer":0,"byteOffset":36452,"byteLength":696,"target":34962,"byteStride":12},{"buffer":0,"byteOffset":37148,"byteLength":696,"target":34962,"byteStride":12},{"buffer":0,"byteOffset":37844,"byteLength":464,"target":34962,"byteStride":8},{"buffer":0,"byteOffset":38308,"byteLength":168,"target":34963},{"buffer":0,"byteOffset":38476,"byteLength":3696,"target":34962,"byteStride":12},{"buffer":0,"byteOffset":42172,"byteLength":3696,"target":34962,"byteStride":12},{"buffer":0,"byteOffset":45868,"byteLength":2464,"target":34962,"byteStride":8},{"buffer":0,"byteOffset":48332,"byteLength":864,"target":34963},{"buffer":0,"byteOffset":49196,"byteLength":5640,"target":34962,"byteStride":12},{"buffer":0,"byteOffset":54836,"byteLength":5640,"target":34962,"byteStride":12},{"buffer":0,"byteOffset":60476,"byteLength":3760,"target":34962,"byteStride":8},{"buffer":0,"byteOffset":64236,"byteLength":1164,"target":34963}],"buffers":[{"byteLength":65400,"uri":"data:application/octet-stream;base64,"}],"accessors":[{"bufferView":0,"componentType":5126,"count":528,"max":[0.940625011920929,1.453125,0.1875],"min":[-0.940625011920929,0.640625,-2.770731210708618],"type":"VEC3"},{"bufferView":1,"componentType":5126,"count":528,"max":[1,1,1],"min":[-1,-1,-1],"type":"VEC3"},{"bufferView":2,"componentType":5126,"count":528,"max":[0.3435458838939667,0.7724609375],"min":[0.02490234375,0.5654296875],"type":"VEC2"},{"bufferView":3,"componentType":5123,"count":792,"max":[527],"min":[0],"type":"SCALAR"},{"bufferView":4,"componentType":5126,"count":186,"max":[0.15625,0.5,0.03125],"min":[-0.15625,-0.1875,-0.28125],"type":"VEC3"},{"bufferView":5,"componentType":5126,"count":186,"max":[1,1,1],"min":[-1,-1,-1],"type":"VEC3"},{"bufferView":6,"componentType":5126,"count":186,"max":[0.3984375,0.34375],"min":[0,0],"type":"VEC2"},{"bufferView":7,"componentType":5123,"count":270,"max":[185],"min":[0],"type":"SCALAR"},{"bufferView":8,"componentType":5126,"count":24,"max":[0.15625,0.3125,0.1875],"min":[-0.15625,0.0625,-0.125],"type":"VEC3"},{"bufferView":9,"componentType":5126,"count":24,"max":[1,1,1],"min":[-1,-1,-1],"type":"VEC3"},{"bufferView":10,"componentType":5126,"count":24,"max":[0.39453125,0.40625],"min":[0.140625,0],"type":"VEC2"},{"bufferView":11,"componentType":5123,"count":36,"max":[23],"min":[0],"type":"SCALAR"},{"bufferView":12,"componentType":5126,"count":24,"max":[0.125,0.3125,0],"min":[-0.125,0.1875,-0.25],"type":"VEC3"},{"bufferView":13,"componentType":5126,"count":24,"max":[1,1,1],"min":[-1,-1,-1],"type":"VEC3"},{"bufferView":14,"componentType":5126,"count":24,"max":[0.3359375,0.28515625],"min":[0.09375,0.078125],"type":"VEC2"},{"bufferView":15,"componentType":5123,"count":36,"max":[23],"min":[0],"type":"SCALAR"},{"bufferView":16,"componentType":5126,"count":96,"max":[-0.03750000149011612,0.8125,-0.16249999403953552],"min":[-0.15000000596046448,-0.3125,-0.2750000059604645],"type":"VEC3"},{"bufferView":17,"componentType":5126,"count":96,"max":[1,1,1],"min":[-1,-1,-1],"type":"VEC3"},{"bufferView":18,"componentType":5126,"count":96,"max":[0.4375,0.546875],"min":[0,0],"type":"VEC2"},{"bufferView":19,"componentType":5123,"count":144,"max":[95],"min":[0],"type":"SCALAR"},{"bufferView":20,"componentType":5126,"count":48,"max":[0.08749999850988388,0.3062500059604645,-0.03750000149011612],"min":[-0.02500000037252903,-0.625,-0.15000000596046448],"type":"VEC3"},{"bufferView":21,"componentType":5126,"count":48,"max":[1,1,1],"min":[-1,-1,-1],"type":"VEC3"},{"bufferView":22,"componentType":5126,"count":48,"max":[0.28515625,0.46484375],"min":[0,0],"type":"VEC2"},{"bufferView":23,"componentType":5123,"count":72,"max":[47],"min":[0],"type":"SCALAR"},{"bufferView":24,"componentType":5126,"count":112,"max":[0.22499999403953552,0.2176818698644638,0.1036318764090538],"min":[-0.22499999403953552,-0.09375,-0.13000625371932983],"type":"VEC3"},{"bufferView":25,"componentType":5126,"count":112,"max":[1,0.9537171125411987,0.9995542764663696],"min":[-1,-1,-0.9984968304634094],"type":"VEC3"},{"bufferView":26,"componentType":5126,"count":112,"max":[0.30859375,0.3740234375],"min":[0,0],"type":"VEC2"},{"bufferView":27,"componentType":5123,"count":168,"max":[111],"min":[0],"type":"SCALAR"},{"bufferView":28,"componentType":5126,"count":24,"max":[0.0625,0.1875,0.0625],"min":[-0.125,0,-0.125],"type":"VEC3"},{"bufferView":29,"componentType":5126,"count":24,"max":[1,1,1],"min":[-1,-1,-1],"type":"VEC3"},{"bufferView":30,"componentType":5126,"count":24,"max":[0.26171875,0.2578125],"min":[0.01953125,0],"type":"VEC2"},{"bufferView":31,"componentType":5123,"count":36,"max":[23],"min":[0],"type":"SCALAR"},{"bufferView":32,"componentType":5126,"count":58,"max":[0.46875,0.1875,1.09375],"min":[-0.46875,-0.3125,-0.5938125252723694],"type":"VEC3"},{"bufferView":33,"componentType":5126,"count":58,"max":[0.9984603524208069,1,0.9999999403953552],"min":[-0.9984603524208069,-1,-1],"type":"VEC3"},{"bufferView":34,"componentType":5126,"count":58,"max":[0.51953125,0.51171875],"min":[0,0.0703125],"type":"VEC2"},{"bufferView":35,"componentType":5123,"count":84,"max":[57],"min":[0],"type":"SCALAR"},{"bufferView":36,"componentType":5126,"count":308,"max":[0.5625,0.5625,1.1875],"min":[-0.5625,-0.4375,-0.987674355506897],"type":"VEC3"},{"bufferView":37,"componentType":5126,"count":308,"max":[1,1,0.9578262567520142],"min":[-1,-1,-1],"type":"VEC3"},{"bufferView":38,"componentType":5126,"count":308,"max":[0.5383443236351013,0.5392175912857056],"min":[0.00004882812572759576,0],"type":"VEC2"},{"bufferView":39,"componentType":5123,"count":432,"max":[307],"min":[0],"type":"SCALAR"},{"bufferView":40,"componentType":5126,"count":470,"max":[0.9453049898147583,0.5,3.456249952316284],"min":[-0.9437500238418579,-1,-2.59375],"type":"VEC3"},{"bufferView":41,"componentType":5126,"count":470,"max":[1,1,0.8746891021728516],"min":[-0.9987915754318237,-0.9089611768722534,-0.7858176231384277],"type":"VEC3"},{"bufferView":42,"componentType":5126,"count":470,"max":[0.5012792348861694,0.5397610664367676],"min":[0.000049023437895812094,0],"type":"VEC2"},{"bufferView":43,"componentType":5123,"count":582,"max":[469],"min":[0],"type":"SCALAR"}],"materials":[{"pbrMetallicRoughness":{"metallicFactor":0,"roughnessFactor":1,"baseColorTexture":{"index":0}},"alphaMode":"MASK","alphaCutoff":0.05,"doubleSided":true}],"textures":[{"sampler":0,"source":0,"name":"boatTexture.png"}],"samplers":[{"magFilter":9728,"minFilter":9728,"wrapS":33071,"wrapT":33071}],"images":[{"mimeType":"image/png","uri":"data:image/png;base64,"}],"meshes":[{"primitives":[{"mode":4,"attributes":{"POSITION":0,"NORMAL":1,"TEXCOORD_0":2},"indices":3,"material":0}]},{"primitives":[{"mode":4,"attributes":{"POSITION":4,"NORMAL":5,"TEXCOORD_0":6},"indices":7,"material":0}]},{"primitives":[{"mode":4,"attributes":{"POSITION":8,"NORMAL":9,"TEXCOORD_0":10},"indices":11,"material":0}]},{"primitives":[{"mode":4,"attributes":{"POSITION":12,"NORMAL":13,"TEXCOORD_0":14},"indices":15,"material":0}]},{"primitives":[{"mode":4,"attributes":{"POSITION":16,"NORMAL":17,"TEXCOORD_0":18},"indices":19,"material":0}]},{"primitives":[{"mode":4,"attributes":{"POSITION":20,"NORMAL":21,"TEXCOORD_0":22},"indices":23,"material":0}]},{"primitives":[{"mode":4,"attributes":{"POSITION":24,"NORMAL":25,"TEXCOORD_0":26},"indices":27,"material":0}]},{"primitives":[{"mode":4,"attributes":{"POSITION":28,"NORMAL":29,"TEXCOORD_0":30},"indices":31,"material":0}]},{"primitives":[{"mode":4,"attributes":{"POSITION":32,"NORMAL":33,"TEXCOORD_0":34},"indices":35,"material":0}]},{"primitives":[{"mode":4,"attributes":{"POSITION":36,"NORMAL":37,"TEXCOORD_0":38},"indices":39,"material":0}]},{"primitives":[{"mode":4,"attributes":{"POSITION":40,"NORMAL":41,"TEXCOORD_0":42},"indices":43,"material":0}]}]}