{"asset":{"version":"2.0","generator":"Blockbench 4.12.4 glTF exporter"},"scenes":[{"nodes":[2],"name":"blockbench_export"}],"scene":0,"nodes":[{"rotation":[-0.7010573846499778,0.09229595564125725,-0.09229595564125724,0.7010573846499779],"translation":[0,2.3125,0.140625],"name":"Floor Dial","mesh":0},{"rotation":[-0.7071067811865475,0,0,0.7071067811865476],"translation":[0,1.1875,0.25],"name":"Door","mesh":1},{"children":[0,1]}],"bufferViews":[{"buffer":0,"byteOffset":0,"byteLength":816,"target":34962,"byteStride":12},{"buffer":0,"byteOffset":816,"byteLength":816,"target":34962,"byteStride":12},{"buffer":0,"byteOffset":1632,"byteLength":544,"target":34962,"byteStride":8},{"buffer":0,"byteOffset":2176,"byteLength":168,"target":34963},{"buffer":0,"byteOffset":2344,"byteLength":2688,"target":34962,"byteStride":12},{"buffer":0,"byteOffset":5032,"byteLength":2688,"target":34962,"byteStride":12},{"buffer":0,"byteOffset":7720,"byteLength":1792,"target":34962,"byteStride":8},{"buffer":0,"byteOffset":9512,"byteLength":672,"target":34963}],"buffers":[{"byteLength":10184,"uri":"data:application/octet-stream;base64,"}],"accessors":[{"bufferView":0,"componentType":5126,"count":68,"max":[0.5,0.296875,0.5],"min":[-0.5,0.203125,-0.1339743733406067],"type":"VEC3"},{"bufferView":1,"componentType":5126,"count":68,"max":[0.8660261631011963,1,1],"min":[-1,-1,-0.965925931930542],"type":"VEC3"},{"bufferView":2,"componentType":5126,"count":68,"max":[0.234375,0.24609375],"min":[0.078125,0.03125],"type":"VEC2"},{"bufferView":3,"componentType":5123,"count":84,"max":[67],"min":[0],"type":"SCALAR"},{"bufferView":4,"componentType":5126,"count":224,"max":[1.2696068286895752,0.453125,1.7071068286895752],"min":[-1.2696068286895752,0.125,-1.2071068286895752],"type":"VEC3"},{"bufferView":5,"componentType":5126,"count":224,"max":[1,1,1],"min":[-1,-1,-1],"type":"VEC3"},{"bufferView":6,"componentType":5126,"count":224,"max":[0.8359375,0.6640625],"min":[0,0],"type":"VEC2"},{"bufferView":7,"componentType":5123,"count":336,"max":[223],"min":[0],"type":"SCALAR"}],"materials":[{"pbrMetallicRoughness":{"metallicFactor":0,"roughnessFactor":1,"baseColorTexture":{"index":0}},"alphaMode":"MASK","alphaCutoff":0.05,"doubleSided":true}],"textures":[{"sampler":0,"source":0,"name":"elevator"}],"samplers":[{"magFilter":9728,"minFilter":9728,"wrapS":33071,"wrapT":33071}],"images":[{"mimeType":"image/png","uri":"data:image/png;base64,"}],"meshes":[{"primitives":[{"mode":4,"attributes":{"POSITION":0,"NORMAL":1,"TEXCOORD_0":2},"indices":3,"material":0}]},{"primitives":[{"mode":4,"attributes":{"POSITION":4,"NORMAL":5,"TEXCOORD_0":6},"indices":7,"material":0}]}]}