{"asset":{"version":"2.0","generator":"Blockbench 4.12.3 glTF exporter"},"scenes":[{"nodes":[7],"name":"blockbench_export"}],"scene":0,"nodes":[{"translation":[0,2.05625,0],"name":"doorFrame","mesh":0},{"rotation":[0,-0.625923472184059,0,0.7798844830928818],"translation":[0.625,0,0.9375],"name":"doorStop","mesh":1},{"translation":[-0.475,-0.8374999999999999,-0.09375],"name":"door","mesh":2},{"translation":[-0.725,-0.06249999999999989,0.0062500000000000056],"name":"pushHandle","mesh":3},{"translation":[-0.22499999999999998,0.9375,-0.09375],"name":"block","mesh":4},{"translation":[-0.875,0,0.0625],"name":"turnHandle","mesh":5},{"rotation":[0,0.7933533402912352,0,0.6087614290087207],"translation":[0.475,1.025,0.09375],"name":"bone","children":[2,3,4,5]},{"children":[0,1,6]}],"bufferViews":[{"buffer":0,"byteOffset":0,"byteLength":672,"target":34962,"byteStride":12},{"buffer":0,"byteOffset":672,"byteLength":672,"target":34962,"byteStride":12},{"buffer":0,"byteOffset":1344,"byteLength":448,"target":34962,"byteStride":8},{"buffer":0,"byteOffset":1792,"byteLength":168,"target":34963},{"buffer":0,"byteOffset":1960,"byteLength":480,"target":34962,"byteStride":12},{"buffer":0,"byteOffset":2440,"byteLength":480,"target":34962,"byteStride":12},{"buffer":0,"byteOffset":2920,"byteLength":320,"target":34962,"byteStride":8},{"buffer":0,"byteOffset":3240,"byteLength":120,"target":34963},{"buffer":0,"byteOffset":3360,"byteLength":288,"target":34962,"byteStride":12},{"buffer":0,"byteOffset":3648,"byteLength":288,"target":34962,"byteStride":12},{"buffer":0,"byteOffset":3936,"byteLength":192,"target":34962,"byteStride":8},{"buffer":0,"byteOffset":4128,"byteLength":72,"target":34963},{"buffer":0,"byteOffset":4200,"byteLength":864,"target":34962,"byteStride":12},{"buffer":0,"byteOffset":5064,"byteLength":864,"target":34962,"byteStride":12},{"buffer":0,"byteOffset":5928,"byteLength":576,"target":34962,"byteStride":8},{"buffer":0,"byteOffset":6504,"byteLength":216,"target":34963},{"buffer":0,"byteOffset":6720,"byteLength":288,"target":34962,"byteStride":12},{"buffer":0,"byteOffset":7008,"byteLength":288,"target":34962,"byteStride":12},{"buffer":0,"byteOffset":7296,"byteLength":192,"target":34962,"byteStride":8},{"buffer":0,"byteOffset":7488,"byteLength":72,"target":34963},{"buffer":0,"byteOffset":7560,"byteLength":1176,"target":34962,"byteStride":12},{"buffer":0,"byteOffset":8736,"byteLength":1176,"target":34962,"byteStride":12},{"buffer":0,"byteOffset":9912,"byteLength":784,"target":34962,"byteStride":8},{"buffer":0,"byteOffset":10696,"byteLength":288,"target":34963}],"buffers":[{"byteLength":10984,"uri":"data:application/octet-stream;base64,"}],"accessors":[{"bufferView":0,"componentType":5126,"count":56,"max":[0.65625,0.171875,0.140625],"min":[-0.65625,-2.0562500953674316,-0.07500000298023224],"type":"VEC3"},{"bufferView":1,"componentType":5126,"count":56,"max":[1,1,1],"min":[-1,-1,-1],"type":"VEC3"},{"bufferView":2,"componentType":5126,"count":56,"max":[0.53125,0.578125],"min":[0,0],"type":"VEC2"},{"bufferView":3,"componentType":5123,"count":84,"max":[55],"min":[0],"type":"SCALAR"},{"bufferView":4,"componentType":5126,"count":40,"max":[0.03750000149011612,0.04374999925494194,0.125],"min":[-0.03750000149011612,0,-0.0625],"type":"VEC3"},{"bufferView":5,"componentType":5126,"count":40,"max":[1,1,1],"min":[-1,-1,-1],"type":"VEC3"},{"bufferView":6,"componentType":5126,"count":40,"max":[0.2265625,0.2192312479019165],"min":[0.05585937574505806,0.03125],"type":"VEC2"},{"bufferView":7,"componentType":5123,"count":60,"max":[39],"min":[0],"type":"SCALAR"},{"bufferView":8,"componentType":5126,"count":24,"max":[0.5,1.875,0.125],"min":[-0.5,-0.16249999403953552,0],"type":"VEC3"},{"bufferView":9,"componentType":5126,"count":24,"max":[1,1,1],"min":[-1,-1,-1],"type":"VEC3"},{"bufferView":10,"componentType":5126,"count":24,"max":[0.4921875,0.546875],"min":[0,0],"type":"VEC2"},{"bufferView":11,"componentType":5123,"count":36,"max":[23],"min":[0],"type":"SCALAR"},{"bufferView":12,"componentType":5126,"count":72,"max":[0.731249988079071,0.14374999701976776,0],"min":[-0.23125000298023224,0.01875000074505806,-0.15000000596046448],"type":"VEC3"},{"bufferView":13,"componentType":5126,"count":72,"max":[1,1,1],"min":[-1,-1,-1],"type":"VEC3"},{"bufferView":14,"componentType":5126,"count":72,"max":[0.4878906309604645,0.21875],"min":[0.03125,0.0625],"type":"VEC2"},{"bufferView":15,"componentType":5123,"count":108,"max":[71],"min":[0],"type":"SCALAR"},{"bufferView":16,"componentType":5126,"count":24,"max":[0.1875,0.09375,0.0625],"min":[-0.1875,-0.0625,-0.0625],"type":"VEC3"},{"bufferView":17,"componentType":5126,"count":24,"max":[1,1,1],"min":[-1,-1,-1],"type":"VEC3"},{"bufferView":18,"componentType":5126,"count":24,"max":[0.1328125,0.1640625],"min":[0.03125,0.03125],"type":"VEC2"},{"bufferView":19,"componentType":5123,"count":36,"max":[23],"min":[0],"type":"SCALAR"},{"bufferView":20,"componentType":5126,"count":98,"max":[0.0625,0.09375,0.08749999850988388],"min":[-0.0625,-0.16249999403953552,-0.0625],"type":"VEC3"},{"bufferView":21,"componentType":5126,"count":98,"max":[1,1,1],"min":[-1,-1,-1],"type":"VEC3"},{"bufferView":22,"componentType":5126,"count":98,"max":[0.21875,0.22668439149856567],"min":[0.03125,0.078125],"type":"VEC2"},{"bufferView":23,"componentType":5123,"count":144,"max":[97],"min":[0],"type":"SCALAR"}],"materials":[{"pbrMetallicRoughness":{"metallicFactor":0,"roughnessFactor":1,"baseColorTexture":{"index":0}},"alphaMode":"MASK","alphaCutoff":0.05,"doubleSided":true}],"textures":[{"sampler":0,"source":0,"name":"doorFacility.png"}],"samplers":[{"magFilter":9728,"minFilter":9728,"wrapS":33071,"wrapT":33071}],"images":[{"mimeType":"image/png","uri":"data:image/png;base64,"}],"meshes":[{"primitives":[{"mode":4,"attributes":{"POSITION":0,"NORMAL":1,"TEXCOORD_0":2},"indices":3,"material":0}]},{"primitives":[{"mode":4,"attributes":{"POSITION":4,"NORMAL":5,"TEXCOORD_0":6},"indices":7,"material":0}]},{"primitives":[{"mode":4,"attributes":{"POSITION":8,"NORMAL":9,"TEXCOORD_0":10},"indices":11,"material":0}]},{"primitives":[{"mode":4,"attributes":{"POSITION":12,"NORMAL":13,"TEXCOORD_0":14},"indices":15,"material":0}]},{"primitives":[{"mode":4,"attributes":{"POSITION":16,"NORMAL":17,"TEXCOORD_0":18},"indices":19,"material":0}]},{"primitives":[{"mode":4,"attributes":{"POSITION":20,"NORMAL":21,"TEXCOORD_0":22},"indices":23,"material":0}]}]}