{"asset":{"version":"2.0","generator":"Blockbench 4.12.2 glTF exporter"},"scenes":[{"nodes":[7],"name":"blockbench_export"}],"scene":0,"nodes":[{"translation":[0,0.6875,0],"name":"cylinder","mesh":0},{"name":"cuboid","mesh":1},{"rotation":[0,0.49999999999999994,0,0.8660254037844387],"name":"cuboid","mesh":2},{"rotation":[-8.36449319149292e-17,-0.8660254037844383,-8.36449319149292e-17,-0.5000000000000007],"name":"cuboid","mesh":3},{"rotation":[-6.123233995736769e-17,-1,-6.123233995736769e-17,-3.7123082385903667e-16],"name":"cuboid","mesh":4},{"rotation":[-2.4231962941054473e-17,-0.8767267557075079,-2.4231962941054473e-17,0.4809887689193873],"name":"cuboid","mesh":5},{"rotation":[-3.766756949548085e-18,-0.5187732581605214,5.752541617830149e-19,0.8549118706729466],"name":"cuboid","mesh":6},{"children":[0,1,2,3,4,5,6]}],"bufferViews":[{"buffer":0,"byteOffset":0,"byteLength":1440,"target":34962,"byteStride":12},{"buffer":0,"byteOffset":1440,"byteLength":1440,"target":34962,"byteStride":12},{"buffer":0,"byteOffset":2880,"byteLength":960,"target":34962,"byteStride":8},{"buffer":0,"byteOffset":3840,"byteLength":288,"target":34963},{"buffer":0,"byteOffset":4128,"byteLength":2760,"target":34962,"byteStride":12},{"buffer":0,"byteOffset":6888,"byteLength":2760,"target":34962,"byteStride":12},{"buffer":0,"byteOffset":9648,"byteLength":1840,"target":34962,"byteStride":8},{"buffer":0,"byteOffset":11488,"byteLength":612,"target":34963},{"buffer":0,"byteOffset":12100,"byteLength":2760,"target":34962,"byteStride":12},{"buffer":0,"byteOffset":14860,"byteLength":2760,"target":34962,"byteStride":12},{"buffer":0,"byteOffset":17620,"byteLength":1840,"target":34962,"byteStride":8},{"buffer":0,"byteOffset":19460,"byteLength":612,"target":34963},{"buffer":0,"byteOffset":20072,"byteLength":2760,"target":34962,"byteStride":12},{"buffer":0,"byteOffset":22832,"byteLength":2760,"target":34962,"byteStride":12},{"buffer":0,"byteOffset":25592,"byteLength":1840,"target":34962,"byteStride":8},{"buffer":0,"byteOffset":27432,"byteLength":612,"target":34963},{"buffer":0,"byteOffset":28044,"byteLength":2760,"target":34962,"byteStride":12},{"buffer":0,"byteOffset":30804,"byteLength":2760,"target":34962,"byteStride":12},{"buffer":0,"byteOffset":33564,"byteLength":1840,"target":34962,"byteStride":8},{"buffer":0,"byteOffset":35404,"byteLength":612,"target":34963},{"buffer":0,"byteOffset":36016,"byteLength":2760,"target":34962,"byteStride":12},{"buffer":0,"byteOffset":38776,"byteLength":2760,"target":34962,"byteStride":12},{"buffer":0,"byteOffset":41536,"byteLength":1840,"target":34962,"byteStride":8},{"buffer":0,"byteOffset":43376,"byteLength":612,"target":34963},{"buffer":0,"byteOffset":43988,"byteLength":2760,"target":34962,"byteStride":12},{"buffer":0,"byteOffset":46748,"byteLength":2760,"target":34962,"byteStride":12},{"buffer":0,"byteOffset":49508,"byteLength":1840,"target":34962,"byteStride":8},{"buffer":0,"byteOffset":51348,"byteLength":612,"target":34963}],"buffers":[{"byteLength":51960,"uri":"data:application/octet-stream;base64,"}],"accessors":[{"bufferView":0,"componentType":5126,"count":120,"max":[0.9375,0.3125,0.9375],"min":[-0.9375,0.125,-0.9375],"type":"VEC3"},{"bufferView":1,"componentType":5126,"count":120,"max":[1,1,1],"min":[-1,-1,-1],"type":"VEC3"},{"bufferView":2,"componentType":5126,"count":120,"max":[0.6117781400680542,0.421875],"min":[0,0],"type":"VEC2"},{"bufferView":3,"componentType":5123,"count":144,"max":[119],"min":[0],"type":"SCALAR"},{"bufferView":4,"componentType":5126,"count":230,"max":[0.21875,0.875,-0.4375],"min":[-0.21875,0,-1.34375],"type":"VEC3"},{"bufferView":5,"componentType":5126,"count":230,"max":[1,1,1],"min":[-1,-1,-1],"type":"VEC3"},{"bufferView":6,"componentType":5126,"count":230,"max":[0.6157296895980835,0.5703125],"min":[0,0],"type":"VEC2"},{"bufferView":7,"componentType":5123,"count":306,"max":[229],"min":[0],"type":"SCALAR"},{"bufferView":8,"componentType":5126,"count":230,"max":[0.21875,0.875,-0.4375],"min":[-0.21875,0,-1.34375],"type":"VEC3"},{"bufferView":9,"componentType":5126,"count":230,"max":[1,1,1],"min":[-1,-1,-1],"type":"VEC3"},{"bufferView":10,"componentType":5126,"count":230,"max":[0.6157296895980835,0.625],"min":[0,0],"type":"VEC2"},{"bufferView":11,"componentType":5123,"count":306,"max":[229],"min":[0],"type":"SCALAR"},{"bufferView":12,"componentType":5126,"count":230,"max":[0.21875,0.875,-0.4375],"min":[-0.21875,0,-1.34375],"type":"VEC3"},{"bufferView":13,"componentType":5126,"count":230,"max":[1,1,1],"min":[-1,-1,-1],"type":"VEC3"},{"bufferView":14,"componentType":5126,"count":230,"max":[0.6235421895980835,0.6015625],"min":[0.03125,0.0234375],"type":"VEC2"},{"bufferView":15,"componentType":5123,"count":306,"max":[229],"min":[0],"type":"SCALAR"},{"bufferView":16,"componentType":5126,"count":230,"max":[0.21875,0.875,-0.4375],"min":[-0.21875,0,-1.34375],"type":"VEC3"},{"bufferView":17,"componentType":5126,"count":230,"max":[1,1,1],"min":[-1,-1,-1],"type":"VEC3"},{"bufferView":18,"componentType":5126,"count":230,"max":[0.6157296895980835,0.5984812378883362],"min":[0,0],"type":"VEC2"},{"bufferView":19,"componentType":5123,"count":306,"max":[229],"min":[0],"type":"SCALAR"},{"bufferView":20,"componentType":5126,"count":230,"max":[0.21875,0.875,-0.4375],"min":[-0.21875,0,-1.34375],"type":"VEC3"},{"bufferView":21,"componentType":5126,"count":230,"max":[1,1,1],"min":[-1,-1,-1],"type":"VEC3"},{"bufferView":22,"componentType":5126,"count":230,"max":[0.6235421895980835,0.5984812378883362],"min":[0,0],"type":"VEC2"},{"bufferView":23,"componentType":5123,"count":306,"max":[229],"min":[0],"type":"SCALAR"},{"bufferView":24,"componentType":5126,"count":230,"max":[0.21875,0.875,-0.4375],"min":[-0.21875,0,-1.34375],"type":"VEC3"},{"bufferView":25,"componentType":5126,"count":230,"max":[1,1,1],"min":[-1,-1,-1],"type":"VEC3"},{"bufferView":26,"componentType":5126,"count":230,"max":[0.6001046895980835,0.59375],"min":[0.0014578124973922968,0.06373673677444458],"type":"VEC2"},{"bufferView":27,"componentType":5123,"count":306,"max":[229],"min":[0],"type":"SCALAR"}],"materials":[{"pbrMetallicRoughness":{"metallicFactor":0,"roughnessFactor":1,"baseColorTexture":{"index":0}},"alphaMode":"MASK","alphaCutoff":0.05,"doubleSided":true}],"textures":[{"sampler":0,"source":0,"name":"circularTable.png"}],"samplers":[{"magFilter":9728,"minFilter":9728,"wrapS":33071,"wrapT":33071}],"images":[{"mimeType":"image/png","uri":"data:image/png;base64,"}],"meshes":[{"primitives":[{"mode":4,"attributes":{"POSITION":0,"NORMAL":1,"TEXCOORD_0":2},"indices":3,"material":0}]},{"primitives":[{"mode":4,"attributes":{"POSITION":4,"NORMAL":5,"TEXCOORD_0":6},"indices":7,"material":0}]},{"primitives":[{"mode":4,"attributes":{"POSITION":8,"NORMAL":9,"TEXCOORD_0":10},"indices":11,"material":0}]},{"primitives":[{"mode":4,"attributes":{"POSITION":12,"NORMAL":13,"TEXCOORD_0":14},"indices":15,"material":0}]},{"primitives":[{"mode":4,"attributes":{"POSITION":16,"NORMAL":17,"TEXCOORD_0":18},"indices":19,"material":0}]},{"primitives":[{"mode":4,"attributes":{"POSITION":20,"NORMAL":21,"TEXCOORD_0":22},"indices":23,"material":0}]},{"primitives":[{"mode":4,"attributes":{"POSITION":24,"NORMAL":25,"TEXCOORD_0":26},"indices":27,"material":0}]}]}