# Made in Blockbench 4.12.2
mtllib pipeJunctionT.mtl

o cylinder
v -6.938893903907228e-18 0.1875 1.3877787807814457e-17
v -6.938893903907228e-18 0.375 1.3877787807814457e-17
v 0.25888347648318444 0.1875 0.625
v 0.25888347648318444 0.375 0.625
v 0.625 0.1875 0.2588834764831845
v 0.625 0.375 0.2588834764831845
v 0.625 0.1875 -0.2588834764831844
v 0.625 0.375 -0.2588834764831844
v 0.25888347648318444 0.1875 -0.625
v 0.25888347648318444 0.375 -0.625
v -0.2588834764831843 0.1875 -0.625
v -0.2588834764831843 0.375 -0.625
v -0.6249999999999999 0.1875 -0.2588834764831848
v -0.6249999999999999 0.375 -0.2588834764831848
v -0.625 0.1875 0.2588834764831846
v -0.625 0.375 0.2588834764831846
v -0.2588834764831849 0.1875 0.6249999999999998
v -0.2588834764831849 0.375 0.6249999999999998
vt 0.15625 0.88392265625
vt 0.11048515625 0.9296875
vt 0.078125 0.8515625
vt 0.5078125 0.9765625
vt 0.5703125 0.9765625
vt 0.5703125 1
vt 0.5078125 1
vt 0.36048515625 0.7734375
vt 0.40625 0.81920234375
vt 0.328125 0.8515625
vt 0.15625 0.81920234375
vt 0.15625 0.88392265625
vt 0.078125 0.8515625
vt 0.4375 0.9765625
vt 0.5 0.9765625
vt 0.5 1
vt 0.4375 1
vt 0.40625 0.81920234375
vt 0.40625 0.88392265625
vt 0.328125 0.8515625
vt 0.11048515625 0.7734375
vt 0.15625 0.81920234375
vt 0.078125 0.8515625
vt 0.53125 0.3125
vt 0.59375 0.3125
vt 0.59375 0.3359375
vt 0.53125 0.3359375
vt 0.40625 0.88392265625
vt 0.36048515625 0.9296875
vt 0.328125 0.8515625
vt 0.04576484375 0.7734375
vt 0.11048515625 0.7734375
vt 0.078125 0.8515625
vt 0 0.4921875
vt 0.0625 0.4921875
vt 0.0625 0.515625
vt 0 0.515625
vt 0.36048515625 0.9296875
vt 0.29576484375 0.9296875
vt 0.328125 0.8515625
vt 0 0.81920234375
vt 0.04576484375 0.7734375
vt 0.078125 0.8515625
vt 0.3203125 0.4921875
vt 0.3828125 0.4921875
vt 0.3828125 0.515625
vt 0.3203125 0.515625
vt 0.29576484375 0.9296875
vt 0.25 0.88392265625
vt 0.328125 0.8515625
vt 0 0.88392265625
vt 0 0.81920234375
vt 0.078125 0.8515625
vt 0.0703125 0.4921875
vt 0.1328125 0.4921875
vt 0.1328125 0.515625
vt 0.0703125 0.515625
vt 0.25 0.88392265625
vt 0.25 0.81920234375
vt 0.328125 0.8515625
vt 0.04576484375 0.9296875
vt 0 0.88392265625
vt 0.078125 0.8515625
vt 0.140625 0.4765625
vt 0.203125 0.4765625
vt 0.203125 0.5
vt 0.140625 0.5
vt 0.25 0.81920234375
vt 0.29576484375 0.7734375
vt 0.328125 0.8515625
vt 0.11048515625 0.9296875
vt 0.04576484375 0.9296875
vt 0.078125 0.8515625
vt 0.25 0.4921875
vt 0.3125 0.4921875
vt 0.3125 0.515625
vt 0.25 0.515625
vt 0.29576484375 0.7734375
vt 0.36048515625 0.7734375
vt 0.328125 0.8515625
vn 0 -1 0
vn 0.7071067811865475 0 0.7071067811865476
vn 0 1 0
vn 0 -1 0
vn 1 0 0
vn 0 1 0
vn 0 -1 0
vn 0.7071067811865476 0 -0.7071067811865475
vn 0 1 0
vn 0 -1 0
vn 0 0 -1
vn 0 1 0
vn 0 -1 0
vn -0.7071067811865472 0 -0.707106781186548
vn 0 1 0
vn 0 -1 0
vn -1 0 -2.1442523866471426e-16
vn 0 1 0
vn 0 -1 0
vn -0.7071067811865476 0 0.7071067811865475
vn 0 1 0
vn 0 -1 0
vn -4.288504773294286e-16 0 1
vn 0 1 0
usemtl m_d5627767-fe88-7288-d53f-1387d90619f8
f 5/1/1 3/2/1 1/3/1
f 3/4/2 5/5/2 6/6/2 4/7/2
f 4/8/3 6/9/3 2/10/3
f 7/11/4 5/12/4 1/13/4
f 5/14/5 7/15/5 8/16/5 6/17/5
f 6/18/6 8/19/6 2/20/6
f 9/21/7 7/22/7 1/23/7
f 7/24/8 9/25/8 10/26/8 8/27/8
f 8/28/9 10/29/9 2/30/9
f 11/31/10 9/32/10 1/33/10
f 9/34/11 11/35/11 12/36/11 10/37/11
f 10/38/12 12/39/12 2/40/12
f 13/41/13 11/42/13 1/43/13
f 11/44/14 13/45/14 14/46/14 12/47/14
f 12/48/15 14/49/15 2/50/15
f 15/51/16 13/52/16 1/53/16
f 13/54/17 15/55/17 16/56/17 14/57/17
f 14/58/18 16/59/18 2/60/18
f 17/61/19 15/62/19 1/63/19
f 15/64/20 17/65/20 18/66/20 16/67/20
f 16/68/21 18/69/21 2/70/21
f 3/71/22 17/72/22 1/73/22
f 17/74/23 3/75/23 4/76/23 18/77/23
f 18/78/24 4/79/24 2/80/24
o cylinder
v -1.4375 1.7187499999999993 1.3877787807814457e-17
v -1.25 1.7187499999999993 1.3877787807814457e-17
v -1.4375 1.459866523516815 0.625
v -1.25 1.459866523516815 0.625
v -1.4374999999999998 1.0937499999999993 0.2588834764831845
v -1.2499999999999998 1.0937499999999993 0.2588834764831845
v -1.4374999999999998 1.0937499999999993 -0.2588834764831844
v -1.2499999999999998 1.0937499999999993 -0.2588834764831844
v -1.4375 1.459866523516815 -0.625
v -1.25 1.459866523516815 -0.625
v -1.4375 1.9776334764831835 -0.625
v -1.25 1.9776334764831835 -0.625
v -1.4375000000000002 2.343749999999999 -0.2588834764831848
v -1.2500000000000002 2.343749999999999 -0.2588834764831848
v -1.4375000000000002 2.343749999999999 0.2588834764831846
v -1.2500000000000002 2.343749999999999 0.2588834764831846
v -1.4375 1.9776334764831842 0.6249999999999998
v -1.25 1.9776334764831842 0.6249999999999998
vt 0.15625 0.63392265625
vt 0.11048515625 0.6796875
vt 0.078125 0.6015625
vt 0.703125 0.4140625
vt 0.765625 0.4140625
vt 0.765625 0.4375
vt 0.703125 0.4375
vt 0.36048515625 0.5234375
vt 0.40625 0.56920234375
vt 0.328125 0.6015625
vt 0.15625 0.56920234375
vt 0.15625 0.63392265625
vt 0.078125 0.6015625
vt 0.6015625 0.3125
vt 0.6640625 0.3125
vt 0.6640625 0.3359375
vt 0.6015625 0.3359375
vt 0.40625 0.56920234375
vt 0.40625 0.63392265625
vt 0.328125 0.6015625
vt 0.11048515625 0.5234375
vt 0.15625 0.56920234375
vt 0.078125 0.6015625
vt 0.703125 0.3828125
vt 0.765625 0.3828125
vt 0.765625 0.40625
vt 0.703125 0.40625
vt 0.40625 0.63392265625
vt 0.36048515625 0.6796875
vt 0.328125 0.6015625
vt 0.04576484375 0.5234375
vt 0.11048515625 0.5234375
vt 0.078125 0.6015625
vt 0.671875 0.3125
vt 0.734375 0.3125
vt 0.734375 0.3359375
vt 0.671875 0.3359375
vt 0.36048515625 0.6796875
vt 0.29576484375 0.6796875
vt 0.328125 0.6015625
vt 0 0.56920234375
vt 0.04576484375 0.5234375
vt 0.078125 0.6015625
vt 0.671875 0.28125
vt 0.734375 0.28125
vt 0.734375 0.3046875
vt 0.671875 0.3046875
vt 0.29576484375 0.6796875
vt 0.25 0.63392265625
vt 0.328125 0.6015625
vt 0 0.63392265625
vt 0 0.56920234375
vt 0.078125 0.6015625
vt 0.53125 0.28125
vt 0.59375 0.28125
vt 0.59375 0.3046875
vt 0.53125 0.3046875
vt 0.25 0.63392265625
vt 0.25 0.56920234375
vt 0.328125 0.6015625
vt 0.04576484375 0.6796875
vt 0 0.63392265625
vt 0.078125 0.6015625
vt 0.703125 0.4453125
vt 0.765625 0.4453125
vt 0.765625 0.46875
vt 0.703125 0.46875
vt 0.25 0.56920234375
vt 0.29576484375 0.5234375
vt 0.328125 0.6015625
vt 0.11048515625 0.6796875
vt 0.04576484375 0.6796875
vt 0.078125 0.6015625
vt 0.6015625 0.28125
vt 0.6640625 0.28125
vt 0.6640625 0.3046875
vt 0.6015625 0.3046875
vt 0.29576484375 0.5234375
vt 0.36048515625 0.5234375
vt 0.328125 0.6015625
vn -1 -2.220446049250313e-16 0
vn 1.570092458683775e-16 -0.7071067811865475 0.7071067811865476
vn 1 2.220446049250313e-16 0
vn -1 -2.220446049250313e-16 0
vn 2.220446049250313e-16 -1 0
vn 1 2.220446049250313e-16 0
vn -1 -2.220446049250313e-16 0
vn 1.5700924586837752e-16 -0.7071067811865476 -0.7071067811865475
vn 1 2.220446049250313e-16 0
vn -1 -2.220446049250313e-16 0
vn 0 0 -1
vn 1 2.220446049250313e-16 0
vn -1 -2.220446049250313e-16 0
vn -1.5700924586837744e-16 0.7071067811865472 -0.707106781186548
vn 1 2.220446049250313e-16 0
vn -1 -2.220446049250313e-16 0
vn -2.220446049250313e-16 1 -2.1442523866471426e-16
vn 1 2.220446049250313e-16 0
vn -1 -2.220446049250313e-16 0
vn -1.5700924586837752e-16 0.7071067811865476 0.7071067811865475
vn 1 2.220446049250313e-16 0
vn -1 -2.220446049250313e-16 0
vn -9.522393481052407e-32 4.288504773294286e-16 1
vn 1 2.220446049250313e-16 0
usemtl m_d5627767-fe88-7288-d53f-1387d90619f8
f 23/81/25 21/82/25 19/83/25
f 21/84/26 23/85/26 24/86/26 22/87/26
f 22/88/27 24/89/27 20/90/27
f 25/91/28 23/92/28 19/93/28
f 23/94/29 25/95/29 26/96/29 24/97/29
f 24/98/30 26/99/30 20/100/30
f 27/101/31 25/102/31 19/103/31
f 25/104/32 27/105/32 28/106/32 26/107/32
f 26/108/33 28/109/33 20/110/33
f 29/111/34 27/112/34 19/113/34
f 27/114/35 29/115/35 30/116/35 28/117/35
f 28/118/36 30/119/36 20/120/36
f 31/121/37 29/122/37 19/123/37
f 29/124/38 31/125/38 32/126/38 30/127/38
f 30/128/39 32/129/39 20/130/39
f 33/131/40 31/132/40 19/133/40
f 31/134/41 33/135/41 34/136/41 32/137/41
f 32/138/42 34/139/42 20/140/42
f 35/141/43 33/142/43 19/143/43
f 33/144/44 35/145/44 36/146/44 34/147/44
f 34/148/45 36/149/45 20/150/45
f 21/151/46 35/152/46 19/153/46
f 35/154/47 21/155/47 22/156/47 36/157/47
f 36/158/48 22/159/48 20/160/48
o cylinder
v 0.20710678118654754 1.5 0.5000000000000001
v 0.20710678118654782 1.5 -0.4999999999999999
v 1.70625 1.7062500000000025 -2.0895536010451714e-16
v 0.2062499999999999 1.9133567811865495 -0.5
v 1.70625 1.91335678118655 -0.5000000000000002
v 0.20624999999999988 2.206250000000002 -0.2071067811865476
v 1.70625 2.2062500000000025 -0.2071067811865478
v 0.20624999999999993 2.206250000000002 0.2071067811865475
v 1.70625 2.2062500000000025 0.2071067811865473
v 0.20625000000000002 1.9133567811865497 0.5
v 1.70625 1.91335678118655 0.4999999999999998
v 1.70625 1.4991432188134548 0.4999999999999999
v 0.48750000000000027 1.206250000000002 0.2071067811865478
v 1.70625 1.2062500000000025 0.20710678118654763
v 1.70625 1.2062500000000025 -0.20710678118654788
v 1.70625 1.4991432188134546 -0.5000000000000001
v 0.49999999999999994 1.1875 -0.2071067811865477
v -0.2071067811865475 1.5 -0.5000000000000001
v -0.20710678118654788 1.5 0.4999999999999999
v -1.70625 1.7062500000000025 0
v -0.20624999999999996 1.9133567811865495 0.5
v -1.70625 1.91335678118655 0.5
v -0.2062499999999999 2.206250000000002 0.20710678118654757
v -1.70625 2.2062500000000025 0.20710678118654757
v -0.2062499999999999 2.206250000000002 -0.20710678118654752
v -1.70625 2.2062500000000025 -0.20710678118654752
v -0.20624999999999996 1.9133567811865497 -0.5
v -1.70625 1.91335678118655 -0.5
v -1.70625 1.4991432188134548 -0.5000000000000001
v -0.5187500000000002 1.206250000000002 -0.20710678118654785
v -1.70625 1.2062500000000025 -0.20710678118654785
v -1.70625 1.2062500000000025 0.20710678118654766
v -1.70625 1.4991432188134546 0.4999999999999999
v -0.49999999999999994 1.1875 0.20710678118654766
v 0 0 0
v 0.20710678118654754 0 0.5
v 0.5 0 0.20710678118654757
v 0.5 0 -0.20710678118654752
v 0.2071067811865476 0 -0.5
v -0.2071067811865475 0 -0.5000000000000001
v -0.4999999999999999 0 -0.20710678118654785
v -0.49999999999999994 0 0.20710678118654766
v -0.20710678118654788 0 0.4999999999999999
vt 0.1890625 0.41697343750000004
vt 0.1890625 0.46875
vt 0.0015624999999999944 0.46875
vt 0.0015624999999999944 0.41697343750000004
vt 0.6953125 0.4321382812500001
vt 0.65870078125 0.46875
vt 0.6328125 0.40625
vt 0.6265624999999999 0.7294734375
vt 0.6265624999999999 0.78125
vt 0.43906249999999997 0.78125
vt 0.43906249999999997 0.7294734375
vt 0.65870078125 0.46875
vt 0.60692421875 0.46875
vt 0.6328125 0.40625
vt 0.63125 0.53125
vt 0.63125 0.47947343750000004
vt 0.81875 0.47947343750000004
vt 0.81875 0.53125
vt 0.60692421875 0.46875
vt 0.5703125 0.4321382812500001
vt 0.6328125 0.40625
vt 0.240625 0.74698203125
vt 0.24073203125 0.6953125
vt 0.428125 0.69520546875
vt 0.428125 0.74698203125
vt 0.5703125 0.4321382812500001
vt 0.5703125 0.38036171875
vt 0.6328125 0.40625
vt 0.5546875 0.71875
vt 0.58973671875 0.6640625
vt 0.7421875 0.6640625
vt 0.7421875 0.71867421875
vt 0.5703125 0.38036171875
vt 0.60692421875 0.34375
vt 0.6328125 0.40625
vt 0.25199695407556694 0.40004090320360997
vt 0.25199695407556694 0.3481876034078686
vt 0.40273148376523354 0.34375
vt 0.40425304592443306 0.3954503883151802
vt 0.60692421875 0.34375
vt 0.65870078125 0.34375
vt 0.6328125 0.40625
vt 0.7289478795342665 0.5390625
vt 0.7655820278529015 0.5925845845585143
vt 0.5781890015440121 0.5925845845585143
vt 0.5781679721470985 0.5408345851456235
vt 0.65870078125 0.34375
vt 0.6953125 0.38036171875
vt 0.6328125 0.40625
vt 0.18895546875 0.9453125
vt 0.1890625 0.99698203125
vt 0.0015624999999999944 0.99698203125
vt 0.0015624999999999944 0.94520546875
vt 0.6953125 0.38036171875
vt 0.6953125 0.4321382812500001
vt 0.6328125 0.40625
vt 0.5796875 0.47947343750000004
vt 0.5796875 0.53125
vt 0.3921875 0.53125
vt 0.3921875 0.47947343750000004
vt 0.703125 0.9633882812500001
vt 0.66651328125 1
vt 0.640625 0.9375
vt 0.678125 0.78125
vt 0.678125 0.7294734375
vt 0.8656250000000001 0.7294734375
vt 0.8656250000000001 0.78125
vt 0.66651328125 1
vt 0.61473671875 1
vt 0.640625 0.9375
vt 0.240625 0.46875
vt 0.240625 0.41697343750000004
vt 0.428125 0.41697343750000004
vt 0.428125 0.46875
vt 0.61473671875 1
vt 0.578125 0.9633882812500001
vt 0.640625 0.9375
vt 0.240625 0.99698203125
vt 0.24073203125 0.9453125
vt 0.428125 0.94520546875
vt 0.428125 0.99698203125
vt 0.578125 0.9633882812500001
vt 0.578125 0.91161171875
vt 0.640625 0.9375
vt 0.578125 0.8671875
vt 0.61708046875 0.8125
vt 0.765625 0.8125
vt 0.765625 0.86711171875
vt 0.578125 0.91161171875
vt 0.61473671875 0.875
vt 0.640625 0.9375
vt 0.37738029571271314 0.3359375
vt 0.375 0.28125
vt 0.5234375 0.28125
vt 0.5234375 0.3358351816857218
vt 0.61473671875 0.875
vt 0.66651328125 0.875
vt 0.640625 0.9375
vt 0.7289478795342665 0.6015625
vt 0.7655820278529015 0.6550845845585143
vt 0.5781890015440121 0.6550845845585143
vt 0.5781679721470985 0.6033345851456235
vt 0.66651328125 0.875
vt 0.703125 0.91161171875
vt 0.640625 0.9375
vt 0.18895546875 0.6953125
vt 0.1890625 0.74698203125
vt 0.0015624999999999944 0.74698203125
vt 0.0015624999999999944 0.69520546875
vt 0.703125 0.91161171875
vt 0.703125 0.9633882812500001
vt 0.640625 0.9375
vt 0.4375 0.38036171875
vt 0.47411171875 0.34375
vt 0.5 0.40625
vt 0.1904109375 0.21875
vt 0.2421875 0.21875
vt 0.2410828125 0.36954062499999996
vt 0.1904109375 0.40625
vt 0.4375 0.43213828125
vt 0.4375 0.38036171875
vt 0.5 0.40625
vt 0.25 0.1875
vt 0.3046875 0.1875
vt 0.3046875 0.33359375
vt 0.25 0.3359375
vt 0.47411171875 0.46875
vt 0.4375 0.43213828125
vt 0.5 0.40625
vt 0.0625 0.21875
vt 0.1171875 0.21875
vt 0.1171875 0.40625
vt 0.0625 0.3671875
vt 0.52588828125 0.46875
vt 0.47411171875 0.46875
vt 0.5 0.40625
vt 0.18895546875 0.7578125
vt 0.24073203125 0.7578125
vt 0.24073203125 0.9453125
vt 0.18895546875 0.9453125
vt 0.5625 0.43213828125
vt 0.52588828125 0.46875
vt 0.5 0.40625
vt 0.12625390625 0.21875
vt 0.17803046875 0.21875
vt 0.1796875 0.3695515625
vt 0.12625390625 0.40625
vt 0.5625 0.38036171875
vt 0.5625 0.43213828125
vt 0.5 0.40625
vt 0.3125 0.1875
vt 0.3671875 0.1875
vt 0.3671875 0.33359375
vt 0.3125 0.3359375
vt 0.52588828125 0.34375
vt 0.5625 0.38036171875
vt 0.5 0.40625
vt 0 0.21875
vt 0.0546875 0.21875
vt 0.0546875 0.40625
vt 0 0.3671875
vt 0.47411171875 0.34375
vt 0.52588828125 0.34375
vt 0.5 0.40625
vt 0.18895546875 0.5078125
vt 0.24073203125 0.5078125
vt 0.24073203125 0.6953125
vt 0.18895546875 0.6953125
vt 0.240625 0.99698203125
vt 0.1890625 0.99698203125
vt 0.18895546875 0.9453125
vt 0.24073203125 0.9453125
vt 0.240625 0.46875
vt 0.1890625 0.46875
vt 0.1890625 0.41697343750000004
vt 0.240625 0.41697343750000004
vt 0.678125 0.7294734375
vt 0.678125 0.78125
vt 0.6265624999999999 0.78125
vt 0.6265624999999999 0.7294734375
vt 0.63125 0.53125
vt 0.5796875 0.53125
vt 0.5796875 0.47947343750000004
vt 0.63125 0.47947343750000004
vt 0.240625 0.74698203125
vt 0.1890625 0.74698203125
vt 0.18895546875 0.6953125
vt 0.24073203125 0.6953125
vn -3.0995522923262696e-16 0.7071067811865474 -0.7071067811865477
vn 1 0 -1.2246467991473532e-16
vn -2.9605947323337506e-16 1 3.6256828625250426e-32
vn 1 0 -1.2246467991473532e-16
vn -2.5084206180989523e-17 0.7071067811865478 0.7071067811865474
vn 1 0 -1.2246467991473532e-16
vn 1.2261818136200273e-16 2.685874262446486e-16 1
vn 1 0 -1.2246467991473532e-16
vn 3.3377411477274445e-16 -0.7060733122457894 0.7081387418679056
vn 1 0 -1.2246467991473532e-16
vn 0.015525938194369631 -0.9988353571709803 0.0456823216168467
vn 1 0 -1.2246467991473532e-16
vn -0.0003909396528684778 -0.6840422487870176 -0.7294422862986406
vn 1 0 -1.2246467991473532e-16
vn -1.2246467991473525e-16 -2.6858710807603966e-16 -1
vn 1 0 -1.2246467991473532e-16
vn 1.9827541742808816e-16 0.7071067811865474 0.7071067811865477
vn -1 0 1.2246467991473532e-16
vn 2.960594732333751e-16 1 3.419810879134635e-33
vn -1 0 1.2246467991473532e-16
vn 1.1442805562462063e-16 0.7071067811865477 -0.7071067811865475
vn -1 0 1.2246467991473532e-16
vn 2.5496331763087745e-17 2.6828042335011286e-16 -1
vn -1 0 1.2246467991473532e-16
vn -2.557576525365335e-16 -0.7060733122457894 -0.7081387418679056
vn -1 0 1.2246467991473532e-16
vn -0.015526758395031993 -0.9988881234135925 -0.04451333145265853
vn -1 0 1.2246467991473532e-16
vn 0.0003909396528683696 -0.6840422487870177 0.7294422862986404
vn -1 0 1.2246467991473532e-16
vn -2.5565056701952308e-17 -2.6828028090117452e-16 1
vn -1 0 1.2246467991473532e-16
vn 0 -1 0
vn 0.7070877987089615 0.007327334701646956 0.7070877987089618
vn 0 -1 0
vn 1 4.674623261579606e-17 -1.2246467991473532e-16
vn 0 -1 0
vn 0.7071067811865477 -6.70078870827233e-17 -0.7071067811865474
vn 0 -1 0
vn 1.4556686841615783e-16 0 -1
vn 0 -1 0
vn -0.7070640727616719 -0.010990633255362906 -0.7070640727616723
vn 0 -1 0
vn -1 0 -1.1551094250711129e-17
vn 0 -1 0
vn -0.7071067811865479 0 0.7071067811865472
vn 0 -1 0
vn -1.4556686841615758e-16 -7.401486830834377e-17 1
vn -1.2246467991473547e-16 -2.6858710807603966e-16 -1
vn -1.3417416497760319e-16 0.7071067811865474 -0.7071067811865477
vn 0 1 0
vn 1.3417416497760316e-16 0.7071067811865475 0.7071067811865476
vn 1.2246467991473547e-16 -2.6858710807603966e-16 1
usemtl m_d5627767-fe88-7288-d53f-1387d90619f8
f 40/161/49 42/162/49 43/163/49 41/164/49
f 41/165/50 43/166/50 39/167/50
f 42/168/51 44/169/51 45/170/51 43/171/51
f 43/172/52 45/173/52 39/174/52
f 44/175/53 46/176/53 47/177/53 45/178/53
f 45/179/54 47/180/54 39/181/54
f 46/182/55 37/183/55 48/184/55 47/185/55
f 47/186/56 48/187/56 39/188/56
f 37/189/57 49/190/57 50/191/57 48/192/57
f 48/193/58 50/194/58 39/195/58
f 49/196/59 53/197/59 51/198/59 50/199/59
f 50/200/60 51/201/60 39/202/60
f 53/203/61 38/204/61 52/205/61 51/206/61
f 51/207/62 52/208/62 39/209/62
f 38/210/63 40/211/63 41/212/63 52/213/63
f 52/214/64 41/215/64 39/216/64
f 57/217/65 59/218/65 60/219/65 58/220/65
f 58/221/66 60/222/66 56/223/66
f 59/224/67 61/225/67 62/226/67 60/227/67
f 60/228/68 62/229/68 56/230/68
f 61/231/69 63/232/69 64/233/69 62/234/69
f 62/235/70 64/236/70 56/237/70
f 63/238/71 54/239/71 65/240/71 64/241/71
f 64/242/72 65/243/72 56/244/72
f 54/245/73 66/246/73 67/247/73 65/248/73
f 65/249/74 67/250/74 56/251/74
f 66/252/75 70/253/75 68/254/75 67/255/75
f 67/256/76 68/257/76 56/258/76
f 70/259/77 55/260/77 69/261/77 68/262/77
f 68/263/78 69/264/78 56/265/78
f 55/266/79 57/267/79 58/268/79 69/269/79
f 69/270/80 58/271/80 56/272/80
f 73/273/81 72/274/81 71/275/81
f 72/276/82 73/277/82 49/278/82 37/279/82
f 74/280/83 73/281/83 71/282/83
f 73/283/84 74/284/84 53/285/84 49/286/84
f 75/287/85 74/288/85 71/289/85
f 74/290/86 75/291/86 38/292/86 53/293/86
f 76/294/87 75/295/87 71/296/87
f 75/297/88 76/298/88 54/299/88 38/300/88
f 77/301/89 76/302/89 71/303/89
f 76/304/90 77/305/90 66/306/90 54/307/90
f 78/308/91 77/309/91 71/310/91
f 77/311/92 78/312/92 70/313/92 66/314/92
f 79/315/93 78/316/93 71/317/93
f 78/318/94 79/319/94 55/320/94 70/321/94
f 72/322/95 79/323/95 71/324/95
f 79/325/96 72/326/96 37/327/96 55/328/96
f 63/329/97 40/330/97 38/331/97 54/332/97
f 61/333/98 42/334/98 40/335/98 63/336/98
f 61/337/99 59/338/99 44/339/99 42/340/99
f 44/341/100 59/342/100 57/343/100 46/344/100
f 46/345/101 57/346/101 55/347/101 37/348/101
o cylinder
v 1.25 1.7187499999999993 1.3877787807814457e-17
v 1.4375 1.7187499999999993 1.3877787807814457e-17
v 1.25 1.459866523516815 0.625
v 1.4375 1.459866523516815 0.625
v 1.2500000000000002 1.0937499999999993 0.2588834764831845
v 1.4375000000000002 1.0937499999999993 0.2588834764831845
v 1.2500000000000002 1.0937499999999993 -0.2588834764831844
v 1.4375000000000002 1.0937499999999993 -0.2588834764831844
v 1.25 1.459866523516815 -0.625
v 1.4375 1.459866523516815 -0.625
v 1.25 1.9776334764831835 -0.625
v 1.4375 1.9776334764831835 -0.625
v 1.2499999999999998 2.343749999999999 -0.2588834764831848
v 1.4374999999999998 2.343749999999999 -0.2588834764831848
v 1.2499999999999998 2.343749999999999 0.2588834764831846
v 1.4374999999999998 2.343749999999999 0.2588834764831846
v 1.25 1.9776334764831842 0.6249999999999998
v 1.4375 1.9776334764831842 0.6249999999999998
vt 0.5703125 0.89954765625
vt 0.52454765625 0.9453125
vt 0.4921875 0.8671875
vt 0.4453125 0.25
vt 0.5078125 0.25
vt 0.5078125 0.2734375
vt 0.4453125 0.2734375
vt 0.52454765625 0.5390625
vt 0.5703125 0.58482734375
vt 0.4921875 0.6171875
vt 0.5703125 0.83482734375
vt 0.5703125 0.89954765625
vt 0.4921875 0.8671875
vt 0.703125 0.3515625
vt 0.765625 0.3515625
vt 0.765625 0.375
vt 0.703125 0.375
vt 0.5703125 0.58482734375
vt 0.5703125 0.64954765625
vt 0.4921875 0.6171875
vt 0.52454765625 0.7890625
vt 0.5703125 0.83482734375
vt 0.4921875 0.8671875
vt 0.515625 0.25
vt 0.578125 0.25
vt 0.578125 0.2734375
vt 0.515625 0.2734375
vt 0.5703125 0.64954765625
vt 0.52454765625 0.6953125
vt 0.4921875 0.6171875
vt 0.45982734375 0.7890625
vt 0.52454765625 0.7890625
vt 0.4921875 0.8671875
vt 0.7109375 0.9765625
vt 0.7734375 0.9765625
vt 0.7734375 1
vt 0.7109375 1
vt 0.52454765625 0.6953125
vt 0.45982734375 0.6953125
vt 0.4921875 0.6171875
vt 0.4140625 0.83482734375
vt 0.45982734375 0.7890625
vt 0.4921875 0.8671875
vt 0.7109375 0.8828125
vt 0.7734375 0.8828125
vt 0.7734375 0.90625
vt 0.7109375 0.90625
vt 0.45982734375 0.6953125
vt 0.4140625 0.64954765625
vt 0.4921875 0.6171875
vt 0.4140625 0.89954765625
vt 0.4140625 0.83482734375
vt 0.4921875 0.8671875
vt 0.7109375 0.9453125
vt 0.7734375 0.9453125
vt 0.7734375 0.96875
vt 0.7109375 0.96875
vt 0.4140625 0.64954765625
vt 0.4140625 0.58482734375
vt 0.4921875 0.6171875
vt 0.45982734375 0.9453125
vt 0.4140625 0.89954765625
vt 0.4921875 0.8671875
vt 0.375 0.25
vt 0.4375 0.25
vt 0.4375 0.2734375
vt 0.375 0.2734375
vt 0.4140625 0.58482734375
vt 0.45982734375 0.5390625
vt 0.4921875 0.6171875
vt 0.52454765625 0.9453125
vt 0.45982734375 0.9453125
vt 0.4921875 0.8671875
vt 0.7109375 0.9140625
vt 0.7734375 0.9140625
vt 0.7734375 0.9375
vt 0.7109375 0.9375
vt 0.45982734375 0.5390625
vt 0.52454765625 0.5390625
vt 0.4921875 0.6171875
vn -1 -2.220446049250313e-16 0
vn 1.570092458683775e-16 -0.7071067811865475 0.7071067811865476
vn 1 2.220446049250313e-16 0
vn -1 -2.220446049250313e-16 0
vn 2.220446049250313e-16 -1 0
vn 1 2.220446049250313e-16 0
vn -1 -2.220446049250313e-16 0
vn 1.5700924586837752e-16 -0.7071067811865476 -0.7071067811865475
vn 1 2.220446049250313e-16 0
vn -1 -2.220446049250313e-16 0
vn 0 0 -1
vn 1 2.220446049250313e-16 0
vn -1 -2.220446049250313e-16 0
vn -1.5700924586837744e-16 0.7071067811865472 -0.707106781186548
vn 1 2.220446049250313e-16 0
vn -1 -2.220446049250313e-16 0
vn -2.220446049250313e-16 1 -2.1442523866471426e-16
vn 1 2.220446049250313e-16 0
vn -1 -2.220446049250313e-16 0
vn -1.5700924586837752e-16 0.7071067811865476 0.7071067811865475
vn 1 2.220446049250313e-16 0
vn -1 -2.220446049250313e-16 0
vn -9.522393481052407e-32 4.288504773294286e-16 1
vn 1 2.220446049250313e-16 0
usemtl m_d5627767-fe88-7288-d53f-1387d90619f8
f 84/349/102 82/350/102 80/351/102
f 82/352/103 84/353/103 85/354/103 83/355/103
f 83/356/104 85/357/104 81/358/104
f 86/359/105 84/360/105 80/361/105
f 84/362/106 86/363/106 87/364/106 85/365/106
f 85/366/107 87/367/107 81/368/107
f 88/369/108 86/370/108 80/371/108
f 86/372/109 88/373/109 89/374/109 87/375/109
f 87/376/110 89/377/110 81/378/110
f 90/379/111 88/380/111 80/381/111
f 88/382/112 90/383/112 91/384/112 89/385/112
f 89/386/113 91/387/113 81/388/113
f 92/389/114 90/390/114 80/391/114
f 90/392/115 92/393/115 93/394/115 91/395/115
f 91/396/116 93/397/116 81/398/116
f 94/399/117 92/400/117 80/401/117
f 92/402/118 94/403/118 95/404/118 93/405/118
f 93/406/119 95/407/119 81/408/119
f 96/409/120 94/410/120 80/411/120
f 94/412/121 96/413/121 97/414/121 95/415/121
f 95/416/122 97/417/122 81/418/122
f 82/419/123 96/420/123 80/421/123
f 96/422/124 82/423/124 83/424/124 97/425/124
f 97/426/125 83/427/125 81/428/125