{"asset":{"version":"2.0","generator":"Blockbench 4.12.3 glTF exporter"},"scenes":[{"nodes":[5],"name":"blockbench_export"}],"scene":0,"nodes":[{"name":"Dish","mesh":0},{"name":"Dish","children":[0]},{"translation":[0.03125,-0.25,0.03125],"name":"cuboid","mesh":1},{"translation":[0.4375,-0.1234375,0.540625],"name":"cuboid","mesh":2},{"translation":[0,0.125,0],"name":"DishAndStand","children":[1,2,3]},{"children":[4]}],"bufferViews":[{"buffer":0,"byteOffset":0,"byteLength":1344,"target":34962,"byteStride":12},{"buffer":0,"byteOffset":1344,"byteLength":1344,"target":34962,"byteStride":12},{"buffer":0,"byteOffset":2688,"byteLength":896,"target":34962,"byteStride":8},{"buffer":0,"byteOffset":3584,"byteLength":336,"target":34963},{"buffer":0,"byteOffset":3920,"byteLength":288,"target":34962,"byteStride":12},{"buffer":0,"byteOffset":4208,"byteLength":288,"target":34962,"byteStride":12},{"buffer":0,"byteOffset":4496,"byteLength":192,"target":34962,"byteStride":8},{"buffer":0,"byteOffset":4688,"byteLength":72,"target":34963},{"buffer":0,"byteOffset":4760,"byteLength":1296,"target":34962,"byteStride":12},{"buffer":0,"byteOffset":6056,"byteLength":1296,"target":34962,"byteStride":12},{"buffer":0,"byteOffset":7352,"byteLength":864,"target":34962,"byteStride":8},{"buffer":0,"byteOffset":8216,"byteLength":324,"target":34963}],"buffers":[{"byteLength":8540,"uri":"data:application/octet-stream;base64,"}],"accessors":[{"bufferView":0,"componentType":5126,"count":112,"max":[0.22499999403953552,0.2176818698644638,0.1036318764090538],"min":[-0.22499999403953552,-0.09375,-0.13000625371932983],"type":"VEC3"},{"bufferView":1,"componentType":5126,"count":112,"max":[1,0.9537171125411987,0.9995542764663696],"min":[-1,-1,-0.9984968304634094],"type":"VEC3"},{"bufferView":2,"componentType":5126,"count":112,"max":[0.53125,0.5625],"min":[0,0],"type":"VEC2"},{"bufferView":3,"componentType":5123,"count":168,"max":[111],"min":[0],"type":"SCALAR"},{"bufferView":4,"componentType":5126,"count":24,"max":[0.0625,0.1875,0.0625],"min":[-0.125,0.125,-0.125],"type":"VEC3"},{"bufferView":5,"componentType":5126,"count":24,"max":[1,1,1],"min":[-1,-1,-1],"type":"VEC3"},{"bufferView":6,"componentType":5126,"count":24,"max":[0.53125,0.5],"min":[0,0],"type":"VEC2"},{"bufferView":7,"componentType":5123,"count":36,"max":[23],"min":[0],"type":"SCALAR"},{"bufferView":8,"componentType":5126,"count":108,"max":[-0.3865012526512146,0.0234375,-0.3368131220340729],"min":[-0.5,-0.004687500186264515,-0.5],"type":"VEC3"},{"bufferView":9,"componentType":5126,"count":108,"max":[1,1,1],"min":[-1,-1,-1],"type":"VEC3"},{"bufferView":10,"componentType":5126,"count":108,"max":[0.5813765525817871,0.578125],"min":[0.0625,0],"type":"VEC2"},{"bufferView":11,"componentType":5123,"count":162,"max":[107],"min":[0],"type":"SCALAR"}],"materials":[{"pbrMetallicRoughness":{"metallicFactor":0,"roughnessFactor":1,"baseColorTexture":{"index":0}},"alphaMode":"MASK","alphaCutoff":0.05,"doubleSided":true}],"textures":[{"sampler":0,"source":0,"name":"texture"}],"samplers":[{"magFilter":9728,"minFilter":9728,"wrapS":33071,"wrapT":33071}],"images":[{"mimeType":"image/png","uri":"data:image/png;base64,"}],"meshes":[{"primitives":[{"mode":4,"attributes":{"POSITION":0,"NORMAL":1,"TEXCOORD_0":2},"indices":3,"material":0}]},{"primitives":[{"mode":4,"attributes":{"POSITION":4,"NORMAL":5,"TEXCOORD_0":6},"indices":7,"material":0}]},{"primitives":[{"mode":4,"attributes":{"POSITION":8,"NORMAL":9,"TEXCOORD_0":10},"indices":11,"material":0}]}]}