# Made in Blockbench 4.12.2
mtllib FuelCan.mtl

o Can
v -0.1874999999999999 1.125 0.5
v 0.1875000000000001 1.125 0.49999999999999994
v -0.1874999999999999 0 0.5
v 0.1875000000000001 0 0.49999999999999994
v -0.18750000000000008 1.25 -0.37499999999999994
v 0.18749999999999992 1.25 -0.37500000000000006
v -0.1875000000000001 0 -0.49999999999999994
v 0.1874999999999999 0 -0.5
v 0.1874999999999999 0.0625 -0.5625
v -0.1875000000000001 0.0625 -0.5625
v 0.1875000000000001 0.0625 0.5625
v -0.1874999999999999 0.0625 0.5625
v 0.1875000000000001 1.125 0.5625
v -0.1874999999999999 1.125 0.5625
v -0.1875000000000001 1.125 -0.5625
v 0.1874999999999999 1.125 -0.5625
v 0.06250000000000012 1.4375 0.5625
v -0.062499999999999875 1.4375 0.5625
v 0.06250000000000001 1.4375 -0.12500000000000003
v -0.062499999999999986 1.4375 -0.12499999999999999
v 0.06250000000000004 1.3874999999999997 -1.3877787807814466e-17
v -0.06249999999999996 1.3874999999999997 1.3877787807814448e-17
v 0.06250000000000011 1.3874999999999997 0.5
v -0.06249999999999989 1.3874999999999997 0.5
v 0.0625 1.3125 -0.18750000000000003
v -0.0625 1.3125 -0.1875
v 0.06250000000000011 1.35 0.5
v -0.06249999999999989 1.35 0.5
v 0.06250000000000006 1.2875 0.25
v -0.062499999999999944 1.2875 0.25
v 0.06250000000000004 1.2875 -1.3877787807814466e-17
v -0.06249999999999996 1.2875 1.3877787807814448e-17
v -0.06249999999999989 1.4375 0.5
v 0.06250000000000011 1.4375 0.5
v 0.18750000000000006 1.125 0.24999999999999994
v 0.18750000000000003 1.125 0.18734560755524615
v -0.18749999999999994 1.125 0.25000000000000006
v -0.18749999999999997 1.125 0.18740525289979948
vt 0.625 0.65625
vt 0.71875 0.65625
vt 0.71875 0.671875
vt 0.625 0.671875
vt 0.375 0.265625
vt 0.375 0.53125
vt 0.28125 0.53125
vt 0.28125 0.265625
vt 0.484375 0.34375
vt 0.484375 0.609375
vt 0.390625 0.609375
vt 0.390625 0.34375
vt 0.3323850764892664 0.9086738149269346
vt 0.3167600764892664 0.9086738149269346
vt 0.3167600764892664 0.6430488149269346
vt 0.3323850764892664 0.6274238149269346
vt 0.5511350764892664 0.9399238149269346
vt 0.5823850764892664 0.6274238149269346
vt 0.5980100764892664 0.6430488149269346
vt 0.5980100764892664 0.9086738149269346
vt 0.04947797078845417 0.9336986009948154
vt 0.002602970788454173 0.9024486009948154
vt 0.002602970788454173 0.6368236009948154
vt 0.018227970788454173 0.6211986009948154
vt 0.2838529707884542 0.9024486009948154
vt 0.2682279707884542 0.9024486009948154
vt 0.2682279707884542 0.6211986009948154
vt 0.2838529707884542 0.6368236009948154
vt 0.375 0.53125
vt 0.34375 0.609375
vt 0.3125 0.609375
vt 0.28125 0.53125
vt 0.625 0.6875
vt 0.75 0.6875
vt 0.75 0.71875
vt 0.625 0.71875
vt 0.53125 1
vt 0.53125 0.96875
vt 0.5625 0.96875
vt 0.5625 1
vt 0.578125 1
vt 0.578125 0.984375
vt 0.609375 0.984375
vt 0.609375 1
vt 0.75486796875 0.78125
vt 0.69044453125 0.78125
vt 0.69044453125 0.75
vt 0.75486796875 0.75
vt 0.69044453125 0.78125
vt 0.62794453125 0.78125
vt 0.62794453125 0.75
vt 0.69044453125 0.75
vt 0.046875 1
vt 0.046875 0.96875
vt 0.078125 0.96875
vt 0.078125 1
vt 0.2682279707884542 0.9667970384948154
vt 0.2682279707884542 0.9024486009948154
vt 0.2838529707884542 0.9024486009948154
vt 0.2682279707884542 0.9667970384948154
vt 0.2838526234970259 0.9024500312451045
vt 0.2864595292115458 0.9865519070260926
vt 0.27010312227055777 0.9754477012214837
vt 0.78125 0.828125
vt 0.78125 0.796875
vt 0.796875 0.796875
vt 0.796875 0.828125
vt 0.26990438793070015 0.9753127824084349
vt 0.2864595292115458 0.9865519070260926
vt 0.27088243105607523 0.9877744609328114
vt 0.3160524235107336 0.9943740836524482
vt 0.33207820832485446 0.9823922287838774
vt 0.33166905077230524 0.9948855305931348
vt 0.3323850764892664 0.9730222524269345
vt 0.33207820832485446 0.9823922287838774
vt 0.3160524235107336 0.9943740836524482
vt 0.3186096582141664 0.91629094734459
vt 0.3323850764892664 0.9086738149269346
vt 0.3323850764892664 0.9730222524269345
vt 0.3167600764892664 0.9086738149269346
vt 0.33207820832485446 0.9823922287838774
vt 0.45701122641742753 0.9864838043093697
vt 0.4878353233880216 1
vt 0.33166905077230524 0.9948855305931348
vt 0.11511144950136895 1
vt 0.14528760268693514 0.9850932136621857
vt 0.26990438793070015 0.9753127824084349
vt 0.27088243105607523 0.9877744609328114
vt 0.78125 0.796875
vt 0.78125 0.828125
vt 0.625 0.828125
vt 0.625 0.796875
vt 0.1452876026869351 0.9850932136621857
vt 0.11511144950136895 1
vt 0.0970892435324606 0.9700683575957776
vt 0.14333151643618494 0.9601698566134328
vt 0.5044748445309662 0.9692781924175433
vt 0.4878353233880216 1
vt 0.45701122641742753 0.9864838043093697
vt 0.457829541522526 0.9614972006908551
vt 0.3948850764892664 0.9086738149269346
vt 0.3323850764892664 0.9086738149269346
vt 0.3323850764892664 0.6274238149269346
vt 0.5823850764892664 0.6274238149269346
vt 0.5511350764892664 0.9399238149269346
vt 0.41054913898926637 0.9086738149269346
vt 0.3323850764892664 0.6274238149269346
vt 0.41054913898926637 0.9086738149269346
vt 0.3948850764892664 0.9086738149269346
vt 0.3323850764892664 0.6274238149269346
vt 0.2682279707884542 0.6211986009948154
vt 0.2682279707884542 0.9024486009948154
vt 0.20572797078845417 0.9024486009948154
vt 0.018227970788454173 0.6211986009948154
vt 0.25 0.5
vt 0.25 0.59375
vt 0 0.59375
vt 0 0.5
vt 0.20572797078845417 0.9024486009948154
vt 0.19007953328845417 0.9024486009948154
vt 0.018227970788454173 0.6211986009948154
vt 0.19007953328845417 0.9024486009948154
vt 0.04947797078845417 0.9336986009948154
vt 0.018227970788454173 0.6211986009948154
vt 0.20530176582923398 0.95298871130285
vt 0.14281766480320707 0.9515790592290168
vt 0.19081329421798943 0.9013956826184706
vt 0.20645775101238095 0.9017486242564566
vt 0.2682279707884542 0.9667970384948154
vt 0.20530176582923398 0.95298871130285
vt 0.2064577572334714 0.9017483485010047
vt 0.2682279707884542 0.9031416279509825
vt 0.3323850764892664 0.9086738149269346
vt 0.3948850764892664 0.9086738149269346
vt 0.3948850764892664 0.9599269399269346
vt 0.3323850764892664 0.9723113149269346
vt 0.41054913898926637 0.9086738149269346
vt 0.4573850764892664 0.9599269399269346
vt 0.3948850764892664 0.9599269399269346
vt 0.3948850764892664 0.9086738149269346
vt 0.11328125 0.484375
vt 0.08203125 0.43496406249999997
vt 0.17578125 0.43496406249999997
vt 0.14453125 0.484375
vt 0.08203125 0.37862656250000004
vt 0.17578125 0.37862656250000004
vt 0.17578125 0.43496406249999997
vt 0.08203125 0.43496406249999997
vt 0.706158362928365 0.5625
vt 0.6636833430994982 0.6070494618373683
vt 0.6164508733263916 0.609375
vt 0.5625 0.5625
vt 0.671875 0.9102922536194566
vt 0.6695497472136428 0.9575247374424869
vt 0.6293759851898668 1
vt 0.6293759851898668 0.8563272577089119
vt 0.625 0.640625
vt 0.625 0.625
vt 0.71875 0.625
vt 0.71875 0.640625
vn 1.5700924586837752e-16 -0.7071067811865476 0.7071067811865476
vn 2.220446049250313e-16 0 1
vn -2.220446049250313e-16 0 -1
vn 1 0 -2.220446049250313e-16
vn 1 0 -2.220446049250313e-16
vn -1 0 2.220446049250313e-16
vn -1 0 2.220446049250313e-16
vn 2.220446049250313e-16 0 1
vn 0 -1 0
vn -1.9860273225978188e-16 0.44721359549995804 -0.8944271909999161
vn -2.220446049250313e-16 0 -1
vn -5.3853727041438185e-17 0.9701425001453319 -0.2425356250363334
vn 0 1 0
vn 2.220446049250313e-16 0 1
vn -0.8741572761215379 0.485642931178632 1.941019070187484e-16
vn -0.8237780078986712 0.3295112031594684 -0.46131568442325516
vn 0 1 0
vn -1 0 2.220446049250313e-16
vn 1 0 -2.220446049250313e-16
vn 1 0 -2.220446049250313e-16
vn 0.8741572761215379 0.485642931178632 -1.941019070187484e-16
vn 1 2.0816681711721574e-16 -1.3877787807814457e-16
vn -1 -2.0816681711721574e-16 1.3877787807814457e-16
vn 0 1 0
vn -1 0 2.220446049250313e-16
vn 1 0 -2.220446049250313e-16
vn 1 0 -2.220446049250313e-16
vn 1 0 -2.220446049250313e-16
vn 1 0 -2.220446049250313e-16
vn -1 0 2.220446049250313e-16
vn 0 -1 0
vn -1 0 2.220446049250313e-16
vn -1 0 2.220446049250313e-16
vn -0.7926239891046002 0.6097107608496926 4.399947012870831e-17
vn -0.7835734070825858 0.6027487746789123 -0.15068719366972816
vn 0.7926239891046002 0.6097107608496926 -1.7599788051483327e-16
vn 0.7926239891046002 0.6097107608496924 -4.061489550342302e-17
vn -7.021666937153403e-17 0.948683298050514 -0.316227766016838
vn -1.2316818592266835e-16 0.8320502943378438 -0.5547001962252291
vn 0.5700715542877984 0.8143879346968546 0.10858505795958058
vn -0.5700715542877982 0.8143879346968547 0.10858505795958084
vn -1.5700924586837752e-16 -0.7071067811865476 -0.7071067811865476
usemtl m_da4f7814-ce8e-3d9a-81cf-dd20584df1c3
f 3/1/1 4/2/1 11/3/1 12/4/1
f 11/5/2 13/6/2 14/7/2 12/8/2
f 10/9/3 15/10/3 16/11/3 9/12/3
f 2/13/4 13/14/4 11/15/4 4/16/4
f 6/17/5 8/18/5 9/19/5 16/20/5
f 5/21/6 15/22/6 10/23/6 7/24/6
f 14/25/7 1/26/7 3/27/7 12/28/7
f 13/29/8 17/30/8 18/31/8 14/32/8
f 21/33/9 23/34/9 24/35/9 22/36/9
f 19/37/10 25/38/10 26/39/10 20/40/10
f 23/41/11 27/42/11 28/43/11 24/44/11
f 27/45/12 29/46/12 30/47/12 28/48/12
f 29/49/13 31/50/13 32/51/13 30/52/13
f 22/53/14 32/54/14 31/55/14 21/56/14
f 28/57/15 1/58/15 14/59/15
f 28/60/16 14/61/16 18/62/16 24/63/16
f 34/64/17 33/65/17 18/66/17 17/67/17
f 24/68/18 18/69/18 33/70/18
f 17/71/19 23/72/19 34/73/19
f 27/74/20 23/75/20 17/76/20 13/77/20
f 2/78/21 27/79/21 13/80/21
f 23/81/22 21/82/22 19/83/22 34/84/22
f 20/85/23 22/86/23 24/87/23 33/88/23
f 33/89/24 34/90/24 19/91/24 20/92/24
f 22/93/25 20/94/25 26/95/25 32/96/25
f 25/97/26 19/98/26 21/99/26 31/100/26
f 35/101/27 2/102/27 4/103/27
f 8/104/28 6/105/28 36/106/28 4/107/28
f 36/108/29 35/109/29 4/110/29
f 3/111/30 1/112/30 37/113/30 7/114/30
f 4/115/31 3/116/31 7/117/31 8/118/31
f 37/119/32 38/120/32 7/121/32
f 38/122/33 5/123/33 7/124/33
f 30/125/34 32/126/34 38/127/34 37/128/34
f 28/129/35 30/130/35 37/131/35 1/132/35
f 2/133/36 35/134/36 29/135/36 27/136/36
f 36/137/37 31/138/37 29/139/37 35/140/37
f 25/141/38 6/142/38 5/143/38 26/144/38
f 16/145/39 15/146/39 5/147/39 6/148/39
f 6/149/40 25/150/40 31/151/40 36/152/40
f 32/153/41 26/154/41 5/155/41 38/156/41
f 9/157/42 8/158/42 7/159/42 10/160/42
o Spout
v -0.0625 1.225547589313045 -0.3879154162317978
v -0.0625 1.149452410686955 -0.4870845837682022
v -0.0625 1.2751321730812473 -0.42596300554484284
v -0.0625 1.199036994455157 -0.5251321730812473
v -0.03749999999999999 1.2638406139485774 -0.5433459288870114
v -0.03749999999999999 1.3094977211242314 -0.4838444283651688
v -0.03749999999999999 1.5117635327895884 -0.7335838754522366
v -0.03749999999999999 1.5574206399652424 -0.6740823749303939
v -0.03749999999999999 1.7331758567727116 -1.0610385788669112
v -0.03749999999999999 1.7788329639483655 -1.0015370783450686
v 0.0625 1.225547589313045 -0.3879154162317978
v 0.0625 1.149452410686955 -0.4870845837682022
v 0.0625 1.2751321730812473 -0.42596300554484284
v 0.0625 1.199036994455157 -0.5251321730812473
v 0.03749999999999999 1.2638406139485774 -0.5433459288870114
v 0.03749999999999999 1.3094977211242314 -0.4838444283651688
v 0.03749999999999999 1.5117635327895884 -0.7335838754522366
v 0.03749999999999999 1.5574206399652424 -0.6740823749303939
v 0.03749999999999999 1.7331758567727116 -1.0610385788669112
v 0.03749999999999999 1.7788329639483655 -1.0015370783450686
vt 0.609375 0.35309999999999997
vt 0.578125 0.35309999999999997
vt 0.578125 0.33747499999999997
vt 0.609375 0.33747499999999997
vt 0.234375 0.29059999999999997
vt 0.203125 0.29059999999999997
vt 0.203125 0.27497499999999997
vt 0.234375 0.27497499999999997
vt 0 0.96875
vt 0.03125 0.96875
vt 0.03125 1
vt 0 1
vt 0.603125 0.44805312500000005
vt 0.584375 0.44805312500000005
vt 0.584375 0.36992812500000005
vt 0.603125 0.36992812500000005
vt 0.228125 0.38555312499999994
vt 0.209375 0.38555312499999994
vt 0.209375 0.30742812499999994
vt 0.228125 0.30742812499999994
vt 0.609375 0.35309999999999997
vt 0.603125 0.36992812500000005
vt 0.584375 0.36992812500000005
vt 0.578125 0.35309999999999997
vt 0.234375 0.29059999999999997
vt 0.228125 0.30742812499999994
vt 0.209375 0.30742812499999994
vt 0.203125 0.29059999999999997
vt 0.015625 0.953125
vt 0 0.953125
vt 0 0.9375
vt 0.015625 0.9375
vt 0.603125 0.546875
vt 0.584375 0.546875
vt 0.584375 0.44805312500000005
vt 0.603125 0.44805312500000005
vt 0.228125 0.484375
vt 0.209375 0.484375
vt 0.209375 0.38555312499999994
vt 0.228125 0.38555312499999994
vt 0.559375 0.40504687500000003
vt 0.559375 0.42067187500000003
vt 0.528125 0.42067187500000003
vt 0.528125 0.40504687500000003
vt 0.553125 0.4375
vt 0.553125 0.515625
vt 0.534375 0.515625
vt 0.534375 0.4375
vt 0.528125 0.42067187500000003
vt 0.559375 0.42067187500000003
vt 0.553125 0.4375
vt 0.534375 0.4375
vt 0.553125 0.515625
vt 0.521875 0.609375
vt 0.503125 0.609375
vt 0.534375 0.515625
vt 0.034375 0.29567187500000003
vt 0.0031250000000000028 0.29567187500000003
vt 0.0031250000000000028 0.28004687500000003
vt 0.034375 0.28004687500000003
vt 0.028125 0.390625
vt 0.009375000000000001 0.390625
vt 0.009375000000000001 0.3125
vt 0.028125 0.3125
vt 0.009375000000000001 0.3125
vt 0.0031250000000000028 0.29567187500000003
vt 0.034375 0.29567187500000003
vt 0.028125000000000004 0.3125
vt 0.059375 0.484375
vt 0.040625 0.484375
vt 0.009375000000000001 0.390625
vt 0.028125 0.390625
vn 0 -0.6087614290087207 -0.7933533402912352
vn 0 0.6087614290087207 0.7933533402912352
vn 0 -0.7933533402912352 0.6087614290087207
vn 0 -0.6087614290087207 -0.7933533402912352
vn 0 0.6087614290087207 0.7933533402912352
vn 0 -0.27057676350604914 -0.9626984029542128
vn 0 0.8598648307831479 0.5105217652385338
vn 0 0.7933533402912352 -0.6087614290087207
vn 0 -0.8284021546602304 -0.560133796654235
vn 0 0.8284021546602303 0.5601337966542349
vn -1 0 0
vn -1 0 0
vn -0.9284766908852594 0.29464403363854935 -0.22608831885783956
vn -1 0 0
vn 1 0 0
vn 1 0 0
vn 0.9284766908852594 0.29464403363854935 -0.22608831885783956
vn 1 0 0
usemtl m_da4f7814-ce8e-3d9a-81cf-dd20584df1c3
f 42/161/43 52/162/43 50/163/43 40/164/43
f 51/165/44 41/166/44 39/167/44 49/168/44
f 40/169/45 50/170/45 49/171/45 39/172/45
f 45/173/46 55/174/46 53/175/46 43/176/46
f 56/177/47 46/178/47 44/179/47 54/180/47
f 42/181/48 43/182/48 53/183/48 52/184/48
f 51/185/49 54/186/49 44/187/49 41/188/49
f 57/189/50 47/190/50 48/191/50 58/192/50
f 47/193/51 57/194/51 55/195/51 45/196/51
f 58/197/52 48/198/52 46/199/52 56/200/52
f 39/201/53 41/202/53 42/203/53 40/204/53
f 44/205/54 46/206/54 45/207/54 43/208/54
f 42/209/55 41/210/55 44/211/55 43/212/55
f 46/213/56 48/214/56 47/215/56 45/216/56
f 52/217/57 51/218/57 49/219/57 50/220/57
f 55/221/58 56/222/58 54/223/58 53/224/58
f 54/225/59 51/226/59 52/227/59 53/228/59
f 57/229/60 58/230/60 56/231/60 55/232/60