{"asset":{"version":"2.0","generator":"Blockbench 4.12.3 glTF exporter"},"scenes":[{"nodes":[17],"name":"blockbench_export"}],"scene":0,"nodes":[{"name":"Chair","mesh":0},{"name":"Seat","children":[0]},{"translation":[0,-0.375,-0.15625000000000044],"name":"Chair Base","mesh":1},{"translation":[0,0.5,0.28125000000000044],"name":"Chair","children":[1,2]},{"translation":[0,-0.3125,0],"name":"Antenna Base","mesh":2},{"translation":[0.03125,0.3125,0.125],"name":"Tall Antenna","mesh":3},{"translation":[0.025000000000000022,0.5625,-0.0625],"name":"Antenna","mesh":4},{"translation":[-0.375,1.375,0.3125],"name":"Antennas","children":[4,5,6]},{"name":"Dish","mesh":5},{"name":"Dish","children":[8]},{"translation":[0.03124999999999989,-0.25,0.03125],"name":"cuboid","mesh":6},{"translation":[0.3437500000000001,1.4375,0.09375],"name":"DishAndStand","children":[9,10]},{"name":"Railings","mesh":7},{"translation":[0,0.375,1.6875],"name":"Back part","mesh":8},{"rotation":[0,-1,0,6.123233995736766e-17],"translation":[0,0.75,-0.5],"name":"Cockpit","mesh":9},{"name":"Basic Shell","mesh":10},{"translation":[0,0.5,-0.1875],"name":"Boat","children":[3,7,11,12,13,14,15]},{"children":[16]}],"bufferViews":[{"buffer":0,"byteOffset":0,"byteLength":2232,"target":34962,"byteStride":12},{"buffer":0,"byteOffset":2232,"byteLength":2232,"target":34962,"byteStride":12},{"buffer":0,"byteOffset":4464,"byteLength":1488,"target":34962,"byteStride":8},{"buffer":0,"byteOffset":5952,"byteLength":540,"target":34963},{"buffer":0,"byteOffset":6492,"byteLength":288,"target":34962,"byteStride":12},{"buffer":0,"byteOffset":6780,"byteLength":288,"target":34962,"byteStride":12},{"buffer":0,"byteOffset":7068,"byteLength":192,"target":34962,"byteStride":8},{"buffer":0,"byteOffset":7260,"byteLength":72,"target":34963},{"buffer":0,"byteOffset":7332,"byteLength":288,"target":34962,"byteStride":12},{"buffer":0,"byteOffset":7620,"byteLength":288,"target":34962,"byteStride":12},{"buffer":0,"byteOffset":7908,"byteLength":192,"target":34962,"byteStride":8},{"buffer":0,"byteOffset":8100,"byteLength":72,"target":34963},{"buffer":0,"byteOffset":8172,"byteLength":1152,"target":34962,"byteStride":12},{"buffer":0,"byteOffset":9324,"byteLength":1152,"target":34962,"byteStride":12},{"buffer":0,"byteOffset":10476,"byteLength":768,"target":34962,"byteStride":8},{"buffer":0,"byteOffset":11244,"byteLength":288,"target":34963},{"buffer":0,"byteOffset":11532,"byteLength":576,"target":34962,"byteStride":12},{"buffer":0,"byteOffset":12108,"byteLength":576,"target":34962,"byteStride":12},{"buffer":0,"byteOffset":12684,"byteLength":384,"target":34962,"byteStride":8},{"buffer":0,"byteOffset":13068,"byteLength":144,"target":34963},{"buffer":0,"byteOffset":13212,"byteLength":1344,"target":34962,"byteStride":12},{"buffer":0,"byteOffset":14556,"byteLength":1344,"target":34962,"byteStride":12},{"buffer":0,"byteOffset":15900,"byteLength":896,"target":34962,"byteStride":8},{"buffer":0,"byteOffset":16796,"byteLength":336,"target":34963},{"buffer":0,"byteOffset":17132,"byteLength":288,"target":34962,"byteStride":12},{"buffer":0,"byteOffset":17420,"byteLength":288,"target":34962,"byteStride":12},{"buffer":0,"byteOffset":17708,"byteLength":192,"target":34962,"byteStride":8},{"buffer":0,"byteOffset":17900,"byteLength":72,"target":34963},{"buffer":0,"byteOffset":17972,"byteLength":480,"target":34962,"byteStride":12},{"buffer":0,"byteOffset":18452,"byteLength":480,"target":34962,"byteStride":12},{"buffer":0,"byteOffset":18932,"byteLength":320,"target":34962,"byteStride":8},{"buffer":0,"byteOffset":19252,"byteLength":120,"target":34963},{"buffer":0,"byteOffset":19372,"byteLength":696,"target":34962,"byteStride":12},{"buffer":0,"byteOffset":20068,"byteLength":696,"target":34962,"byteStride":12},{"buffer":0,"byteOffset":20764,"byteLength":464,"target":34962,"byteStride":8},{"buffer":0,"byteOffset":21228,"byteLength":168,"target":34963},{"buffer":0,"byteOffset":21396,"byteLength":3696,"target":34962,"byteStride":12},{"buffer":0,"byteOffset":25092,"byteLength":3696,"target":34962,"byteStride":12},{"buffer":0,"byteOffset":28788,"byteLength":2464,"target":34962,"byteStride":8},{"buffer":0,"byteOffset":31252,"byteLength":864,"target":34963},{"buffer":0,"byteOffset":32116,"byteLength":5640,"target":34962,"byteStride":12},{"buffer":0,"byteOffset":37756,"byteLength":5640,"target":34962,"byteStride":12},{"buffer":0,"byteOffset":43396,"byteLength":3760,"target":34962,"byteStride":8},{"buffer":0,"byteOffset":47156,"byteLength":1164,"target":34963}],"buffers":[{"byteLength":48320,"uri":"data:application/octet-stream;base64,"}],"accessors":[{"bufferView":0,"componentType":5126,"count":186,"max":[0.15625,0.5625,0.15625],"min":[-0.15625,-0.125,-0.15625],"type":"VEC3"},{"bufferView":1,"componentType":5126,"count":186,"max":[1,1,1],"min":[-1,-1,-1],"type":"VEC3"},{"bufferView":2,"componentType":5126,"count":186,"max":[0.3984375,0.34375],"min":[0,0],"type":"VEC2"},{"bufferView":3,"componentType":5123,"count":270,"max":[185],"min":[0],"type":"SCALAR"},{"bufferView":4,"componentType":5126,"count":24,"max":[0.15625,0.375,0.3125],"min":[-0.15625,0.125,0],"type":"VEC3"},{"bufferView":5,"componentType":5126,"count":24,"max":[1,1,1],"min":[-1,-1,-1],"type":"VEC3"},{"bufferView":6,"componentType":5126,"count":24,"max":[0.39453125,0.40625],"min":[0.140625,0],"type":"VEC2"},{"bufferView":7,"componentType":5123,"count":36,"max":[23],"min":[0],"type":"SCALAR"},{"bufferView":8,"componentType":5126,"count":24,"max":[0.125,0.3125,0.125],"min":[-0.125,0.1875,-0.125],"type":"VEC3"},{"bufferView":9,"componentType":5126,"count":24,"max":[1,1,1],"min":[-1,-1,-1],"type":"VEC3"},{"bufferView":10,"componentType":5126,"count":24,"max":[0.3359375,0.28515625],"min":[0.09375,0.078125],"type":"VEC2"},{"bufferView":11,"componentType":5123,"count":36,"max":[23],"min":[0],"type":"SCALAR"},{"bufferView":12,"componentType":5126,"count":96,"max":[-0.03750000149011612,0.8125,-0.03750000149011612],"min":[-0.15000000596046448,-0.3125,-0.15000000596046448],"type":"VEC3"},{"bufferView":13,"componentType":5126,"count":96,"max":[1,1,1],"min":[-1,-1,-1],"type":"VEC3"},{"bufferView":14,"componentType":5126,"count":96,"max":[0.4375,0.546875],"min":[0,0],"type":"VEC2"},{"bufferView":15,"componentType":5123,"count":144,"max":[95],"min":[0],"type":"SCALAR"},{"bufferView":16,"componentType":5126,"count":48,"max":[0.08749999850988388,0.3062500059604645,0.08749999850988388],"min":[-0.02500000037252903,-0.625,-0.02500000037252903],"type":"VEC3"},{"bufferView":17,"componentType":5126,"count":48,"max":[1,1,1],"min":[-1,-1,-1],"type":"VEC3"},{"bufferView":18,"componentType":5126,"count":48,"max":[0.28515625,0.46484375],"min":[0,0],"type":"VEC2"},{"bufferView":19,"componentType":5123,"count":72,"max":[47],"min":[0],"type":"SCALAR"},{"bufferView":20,"componentType":5126,"count":112,"max":[0.22499999403953552,0.21768203377723694,0.10363157093524933],"min":[-0.22499999403953552,-0.09375,-0.13000652194023132],"type":"VEC3"},{"bufferView":21,"componentType":5126,"count":112,"max":[1,0.9537169337272644,0.9995543360710144],"min":[-1,-1,-0.9984968304634094],"type":"VEC3"},{"bufferView":22,"componentType":5126,"count":112,"max":[0.30859375,0.3740234375],"min":[0,0],"type":"VEC2"},{"bufferView":23,"componentType":5123,"count":168,"max":[111],"min":[0],"type":"SCALAR"},{"bufferView":24,"componentType":5126,"count":24,"max":[0.0625,0.1875,0.0625],"min":[-0.125,0,-0.125],"type":"VEC3"},{"bufferView":25,"componentType":5126,"count":24,"max":[1,1,1],"min":[-1,-1,-1],"type":"VEC3"},{"bufferView":26,"componentType":5126,"count":24,"max":[0.26171875,0.2578125],"min":[0.01953125,0],"type":"VEC2"},{"bufferView":27,"componentType":5123,"count":36,"max":[23],"min":[0],"type":"SCALAR"},{"bufferView":28,"componentType":5126,"count":40,"max":[0.7890549898147583,0.875,1.1875],"min":[-0.7875000238418579,0.3125,-2.125],"type":"VEC3"},{"bufferView":29,"componentType":5126,"count":40,"max":[0.9992606043815613,0,0.05613130331039429],"min":[-0.9989101886749268,0,-0.6945498585700989],"type":"VEC3"},{"bufferView":30,"componentType":5126,"count":40,"max":[0.5409798622131348,0.43359375],"min":[0.109375,0],"type":"VEC2"},{"bufferView":31,"componentType":5123,"count":60,"max":[39],"min":[0],"type":"SCALAR"},{"bufferView":32,"componentType":5126,"count":58,"max":[0.3125,0.25,0.75],"min":[-0.3125,-0.5,-0.25],"type":"VEC3"},{"bufferView":33,"componentType":5126,"count":58,"max":[0.9980525970458984,1,1],"min":[-0.9980525970458984,-1,-1],"type":"VEC3"},{"bufferView":34,"componentType":5126,"count":58,"max":[0.51953125,0.51171875],"min":[0,0.0703125],"type":"VEC2"},{"bufferView":35,"componentType":5123,"count":84,"max":[57],"min":[0],"type":"SCALAR"},{"bufferView":36,"componentType":5126,"count":308,"max":[0.5625,0.5625,1.125],"min":[-0.5625,-0.4375,-1.0501741170883179],"type":"VEC3"},{"bufferView":37,"componentType":5126,"count":308,"max":[1,1,0.9578262567520142],"min":[-1,-1,-1],"type":"VEC3"},{"bufferView":38,"componentType":5126,"count":308,"max":[0.5383443236351013,0.5392175912857056],"min":[0.00004882812572759576,0],"type":"VEC2"},{"bufferView":39,"componentType":5123,"count":432,"max":[307],"min":[0],"type":"SCALAR"},{"bufferView":40,"componentType":5126,"count":470,"max":[0.7890549898147583,0.5,2.987499952316284],"min":[-0.7875000238418579,-1,-2.125],"type":"VEC3"},{"bufferView":41,"componentType":5126,"count":470,"max":[1,1,0.8741713166236877],"min":[-0.9988213181495667,-0.8777472376823425,-0.79368656873703],"type":"VEC3"},{"bufferView":42,"componentType":5126,"count":470,"max":[0.5012792348861694,0.5397610664367676],"min":[0.000049023437895812094,0],"type":"VEC2"},{"bufferView":43,"componentType":5123,"count":582,"max":[469],"min":[0],"type":"SCALAR"}],"materials":[{"pbrMetallicRoughness":{"metallicFactor":0,"roughnessFactor":1,"baseColorTexture":{"index":0}},"alphaMode":"MASK","alphaCutoff":0.05,"doubleSided":true}],"textures":[{"sampler":0,"source":0,"name":"texture2"}],"samplers":[{"magFilter":9728,"minFilter":9728,"wrapS":33071,"wrapT":33071}],"images":[{"mimeType":"image/png","uri":"data:image/png;base64,"}],"meshes":[{"primitives":[{"mode":4,"attributes":{"POSITION":0,"NORMAL":1,"TEXCOORD_0":2},"indices":3,"material":0}]},{"primitives":[{"mode":4,"attributes":{"POSITION":4,"NORMAL":5,"TEXCOORD_0":6},"indices":7,"material":0}]},{"primitives":[{"mode":4,"attributes":{"POSITION":8,"NORMAL":9,"TEXCOORD_0":10},"indices":11,"material":0}]},{"primitives":[{"mode":4,"attributes":{"POSITION":12,"NORMAL":13,"TEXCOORD_0":14},"indices":15,"material":0}]},{"primitives":[{"mode":4,"attributes":{"POSITION":16,"NORMAL":17,"TEXCOORD_0":18},"indices":19,"material":0}]},{"primitives":[{"mode":4,"attributes":{"POSITION":20,"NORMAL":21,"TEXCOORD_0":22},"indices":23,"material":0}]},{"primitives":[{"mode":4,"attributes":{"POSITION":24,"NORMAL":25,"TEXCOORD_0":26},"indices":27,"material":0}]},{"primitives":[{"mode":4,"attributes":{"POSITION":28,"NORMAL":29,"TEXCOORD_0":30},"indices":31,"material":0}]},{"primitives":[{"mode":4,"attributes":{"POSITION":32,"NORMAL":33,"TEXCOORD_0":34},"indices":35,"material":0}]},{"primitives":[{"mode":4,"attributes":{"POSITION":36,"NORMAL":37,"TEXCOORD_0":38},"indices":39,"material":0}]},{"primitives":[{"mode":4,"attributes":{"POSITION":40,"NORMAL":41,"TEXCOORD_0":42},"indices":43,"material":0}]}]}